<svg width="93" height="94" viewBox="0 0 93 94" fill="none" xmlns="http://www.w3.org/2000/svg">
<path d="M1.16991 7.57873C-0.389971 6.01885 -0.389968 3.4898 1.16991 1.92992C2.72979 0.37004 5.25885 0.37004 6.81873 1.92992L39.1425 34.2537C40.7024 35.8136 40.7024 38.3426 39.1425 39.9025C37.5826 41.4624 35.0536 41.4624 33.4937 39.9025L1.16991 7.57873Z" fill="url(#paint0_linear)"/>
<path d="M85.8061 1.92992C87.366 0.370039 89.895 0.370041 91.4549 1.92992C93.0148 3.4898 93.0148 6.01886 91.4549 7.57874L59.1311 39.9025C57.5713 41.4624 55.0422 41.4624 53.4823 39.9025C51.9224 38.3426 51.9224 35.8136 53.4823 34.2537L85.8061 1.92992Z" fill="url(#paint1_linear)"/>
<path d="M33.4937 54.2423C35.0536 52.6824 37.5826 52.6824 39.1425 54.2423C40.7024 55.8022 40.7024 58.3312 39.1425 59.8911L6.81872 92.2149C5.25884 93.7748 2.72979 93.7748 1.16991 92.2149C-0.389969 90.655 -0.389969 88.126 1.16991 86.5661L33.4937 54.2423Z" fill="url(#paint2_linear)"/>
<path d="M53.4823 59.8911C51.9224 58.3312 51.9224 55.8022 53.4823 54.2423C55.0422 52.6824 57.5713 52.6824 59.1311 54.2423L91.4549 86.5661C93.0148 88.126 93.0148 90.655 91.4549 92.2149C89.8951 93.7748 87.366 93.7748 85.8061 92.2149L53.4823 59.8911Z" fill="url(#paint3_linear)"/>
<defs>
<linearGradient id="paint0_linear" x1="-4.5" y1="38.26" x2="98.5" y2="53.26" gradientUnits="userSpaceOnUse">
<stop stop-color="#F46D46"/>
<stop offset="1" stop-color="#EFA749"/>
</linearGradient>
<linearGradient id="paint1_linear" x1="-4.5" y1="38.26" x2="98.5" y2="53.26" gradientUnits="userSpaceOnUse">
<stop stop-color="#F46D46"/>
<stop offset="1" stop-color="#EFA749"/>
</linearGradient>
<linearGradient id="paint2_linear" x1="-4.5" y1="38.26" x2="98.5" y2="53.26" gradientUnits="userSpaceOnUse">
<stop stop-color="#F46D46"/>
<stop offset="1" stop-color="#EFA749"/>
</linearGradient>
<linearGradient id="paint3_linear" x1="-4.5" y1="38.26" x2="98.5" y2="53.26" gradientUnits="userSpaceOnUse">
<stop stop-color="#F46D46"/>
<stop offset="1" stop-color="#EFA749"/>
</linearGradient>
</defs>
</svg>
