<svg width="663" height="88" viewBox="0 0 663 88" fill="none" xmlns="http://www.w3.org/2000/svg">
<path d="M50.1868 38.3262C48.7361 36.8721 48.7361 34.5144 50.1868 33.0603L80.6582 2.51804C82.109 1.0639 84.4612 1.0639 85.9119 2.51804C87.3627 3.97218 87.3627 6.3298 85.9119 7.78394L55.4405 38.3262C53.9898 39.7803 51.6376 39.7803 50.1868 38.3262Z" fill="url(#paint0_linear)"/>
<path d="M1.77825 1.0906C3.22902 -0.363536 5.58118 -0.363535 7.03194 1.09061L37.5033 31.6329C38.9541 33.087 38.9541 35.4446 37.5033 36.8988C36.0526 38.3529 33.7004 38.3529 32.2496 36.8988L1.77825 6.35651C0.327488 4.90237 0.327488 2.54474 1.77825 1.0906Z" fill="url(#paint1_linear)"/>
<path d="M1.08807 86.8474C-0.362692 85.3932 -0.362691 83.0356 1.08808 81.5815L31.5595 51.0392C33.0102 49.5851 35.3624 49.5851 36.8132 51.0392C38.2639 52.4934 38.2639 54.851 36.8132 56.3051L6.34176 86.8474C4.891 88.3015 2.53884 88.3015 1.08807 86.8474Z" fill="url(#paint2_linear)"/>
<path d="M49.4966 51.1012C50.9474 49.6471 53.2996 49.6471 54.7503 51.1012L85.2217 81.6435C86.6725 83.0976 86.6725 85.4552 85.2217 86.9094C83.771 88.3635 81.4188 88.3635 79.968 86.9094L49.4966 56.3671C48.0459 54.913 48.0459 52.5554 49.4966 51.1012Z" fill="url(#paint3_linear)"/>
<path d="M150.557 51.5318V41.7121H123.068V31.1757H146.94V21.3561H123.068V11.178H150.195V1.35838H112V51.5318H150.557Z" fill="url(#paint4_linear)"/>
<path d="M198.584 51.5318L184.912 31.8208L198.006 13.1133H186.504L179.197 24.2948L171.964 13.1133H160.172L173.266 32.0358L159.666 51.5318H171.168L178.98 39.5618L186.793 51.5318H198.584Z" fill="url(#paint5_linear)"/>
<path d="M249.51 32.3942V32.2509C249.51 29.0493 249.004 26.2301 247.991 23.7931C247.026 21.3083 245.724 19.2297 244.085 17.5572C242.445 15.837 240.564 14.5468 238.442 13.6867C236.32 12.8266 234.126 12.3965 231.859 12.3965C228.966 12.3965 226.554 12.9938 224.625 14.1884C222.744 15.3353 221.129 16.8166 219.779 18.6324V13.1133H208.783V63H219.779V46.5144C221.081 48.0435 222.672 49.3815 224.553 50.5283C226.482 51.6751 228.917 52.2486 231.859 52.2486C234.174 52.2486 236.392 51.8185 238.514 50.9584C240.636 50.0983 242.493 48.832 244.085 47.1595C245.724 45.4393 247.026 43.3607 247.991 40.9237C249.004 38.4389 249.51 35.5958 249.51 32.3942ZM238.514 32.3942C238.514 34.0189 238.249 35.4763 237.719 36.7665C237.236 38.0566 236.561 39.1796 235.693 40.1353C234.825 41.0432 233.812 41.7599 232.655 42.2855C231.546 42.7634 230.34 43.0023 229.038 43.0023C227.736 43.0023 226.506 42.7634 225.349 42.2855C224.239 41.7599 223.251 41.0432 222.383 40.1353C221.563 39.1796 220.888 38.0566 220.357 36.7665C219.875 35.4285 219.634 33.9711 219.634 32.3942V32.2509C219.634 30.674 219.875 29.2405 220.357 27.9503C220.888 26.6123 221.563 25.4894 222.383 24.5815C223.251 23.6258 224.239 22.9091 225.349 22.4312C226.506 21.9056 227.736 21.6428 229.038 21.6428C230.34 21.6428 231.546 21.9056 232.655 22.4312C233.812 22.9091 234.825 23.6258 235.693 24.5815C236.561 25.4894 237.236 26.6123 237.719 27.9503C238.249 29.2405 238.514 30.674 238.514 32.2509V32.3942Z" fill="url(#paint6_linear)"/>
<path d="M297.384 33.3977V33.2543C297.384 30.5306 296.999 27.9264 296.227 25.4416C295.504 22.9091 294.346 20.6871 292.755 18.7757C291.211 16.8166 289.258 15.2636 286.895 14.1168C284.532 12.9699 281.735 12.3965 278.504 12.3965C275.658 12.3965 273.054 12.9222 270.691 13.9734C268.376 15.0247 266.375 16.4582 264.687 18.274C262.999 20.0898 261.673 22.2162 260.708 24.6532C259.792 27.0902 259.334 29.6705 259.334 32.3942V32.5376C259.334 35.5002 259.84 38.2 260.853 40.637C261.866 43.0262 263.264 45.1048 265.049 46.8728C266.881 48.6408 269.027 50.0027 271.487 50.9584C273.995 51.9141 276.695 52.3919 279.589 52.3919C283.109 52.3919 286.172 51.7707 288.776 50.5283C291.38 49.2381 293.599 47.4701 295.431 45.2243L289.138 39.7052C287.594 41.0909 286.099 42.0944 284.653 42.7156C283.206 43.3368 281.566 43.6474 279.734 43.6474C277.274 43.6474 275.2 43.0262 273.512 41.7838C271.873 40.4936 270.788 38.6062 270.257 36.1214H297.24C297.288 35.5958 297.312 35.1418 297.312 34.7595C297.36 34.3773 297.384 33.9233 297.384 33.3977ZM286.678 29.3121H270.112C270.547 26.8274 271.463 24.8443 272.861 23.363C274.308 21.8817 276.189 21.141 278.504 21.141C280.819 21.141 282.675 21.9056 284.074 23.4347C285.472 24.916 286.341 26.8751 286.678 29.3121Z" fill="url(#paint7_linear)"/>
<path d="M332.562 23.7931V12.3965C329.282 12.2532 326.678 12.9699 324.749 14.5468C322.82 16.1237 321.301 18.2262 320.191 20.8543V13.1133H309.196V51.5318H320.191V37.3399C320.191 32.7048 321.228 29.2882 323.302 27.0902C325.424 24.8921 328.318 23.7931 331.983 23.7931H332.562Z" fill="url(#paint8_linear)"/>
<path d="M364.822 49.9549V41.2104C363.135 42.1183 361.326 42.5723 359.397 42.5723C357.034 42.5723 355.852 41.3299 355.852 38.8451V22.4312H364.967V13.1133H355.852V3.29364H344.857V13.1133H340.227V22.4312H344.857V40.637C344.857 42.8829 345.122 44.7464 345.653 46.2277C346.231 47.6613 347.003 48.832 347.967 49.7399C348.98 50.6478 350.162 51.269 351.512 51.6035C352.911 51.9857 354.454 52.1769 356.142 52.1769C357.974 52.1769 359.59 51.9618 360.989 51.5318C362.387 51.1495 363.665 50.6239 364.822 49.9549Z" fill="url(#paint9_linear)"/>
<path d="M405.118 39.8486V39.7052C405.118 37.9372 404.757 36.432 404.033 35.1896C403.31 33.9472 402.393 32.896 401.284 32.0358C400.175 31.1757 398.921 30.459 397.523 29.8855C396.124 29.2644 394.75 28.7387 393.399 28.3087C392.338 27.9742 391.326 27.6397 390.361 27.3052C389.445 26.9707 388.625 26.6362 387.902 26.3017C387.178 25.9195 386.599 25.5372 386.165 25.1549C385.731 24.7249 385.514 24.247 385.514 23.7214V23.578C385.514 22.8135 385.852 22.1923 386.527 21.7145C387.202 21.1888 388.215 20.926 389.565 20.926C390.964 20.926 392.579 21.2605 394.412 21.9295C396.245 22.5507 398.125 23.4108 400.055 24.5098L404.25 16.9838C402.128 15.5981 399.789 14.5229 397.233 13.7584C394.726 12.9461 392.242 12.5399 389.782 12.5399C387.805 12.5399 385.948 12.8027 384.212 13.3283C382.524 13.854 381.029 14.6424 379.727 15.6936C378.473 16.7449 377.461 18.0351 376.689 19.5642C375.966 21.0455 375.604 22.7657 375.604 24.7249V24.8682C375.604 26.7318 375.941 28.3087 376.617 29.5988C377.34 30.889 378.256 31.9881 379.366 32.896C380.475 33.7561 381.704 34.4728 383.055 35.0462C384.453 35.5719 385.828 36.0258 387.178 36.4081C388.239 36.7426 389.252 37.0532 390.216 37.3399C391.181 37.6266 392.025 37.9372 392.748 38.2717C393.52 38.5584 394.123 38.9168 394.557 39.3468C394.991 39.7769 395.208 40.2786 395.208 40.852V40.9954C395.208 41.8555 394.822 42.5484 394.05 43.074C393.327 43.5996 392.17 43.8624 390.578 43.8624C388.745 43.8624 386.768 43.4802 384.646 42.7156C382.573 41.9511 380.475 40.8042 378.353 39.2751L373.651 46.4428C376.255 48.4497 378.98 49.931 381.825 50.8867C384.719 51.7946 387.54 52.2486 390.289 52.2486C392.362 52.2486 394.292 52.0096 396.076 51.5318C397.908 51.0062 399.5 50.2416 400.85 49.2381C402.201 48.2347 403.237 46.9684 403.961 45.4393C404.732 43.8624 405.118 41.9988 405.118 39.8486Z" fill="url(#paint10_linear)"/>
<path d="M467.023 1L439.245 32.896L441.053 40.7087H465.793V51.5318H476.427V40.7087H483.227V31.7491H476.427V1H467.023ZM465.793 31.7491H452.338L465.793 16.1237V31.7491Z" fill="url(#paint11_linear)"/>
<path d="M566.725 1.35838H554.066L541.768 21.4994L529.687 1.35838H516.666L536.126 31.7491V51.5318H547.266V31.5341L566.725 1.35838Z" fill="url(#paint12_linear)"/>
<path d="M616.192 32.3942V32.2509C616.192 29.4794 615.662 26.899 614.601 24.5098C613.54 22.0728 612.069 19.9703 610.188 18.2023C608.355 16.3865 606.161 14.9769 603.605 13.9734C601.049 12.9222 598.276 12.3965 595.286 12.3965C592.248 12.3965 589.451 12.9222 586.895 13.9734C584.339 15.0247 582.12 16.4582 580.239 18.274C578.359 20.0898 576.888 22.2162 575.827 24.6532C574.766 27.0424 574.235 29.6227 574.235 32.3942V32.5376C574.235 35.3091 574.766 37.9133 575.827 40.3503C576.888 42.7395 578.335 44.842 580.167 46.6578C582.048 48.4258 584.266 49.8355 586.822 50.8867C589.378 51.8902 592.151 52.3919 595.141 52.3919C598.18 52.3919 600.977 51.8663 603.533 50.815C606.089 49.7638 608.307 48.3302 610.188 46.5144C612.069 44.6986 613.54 42.5961 614.601 40.2069C615.662 37.7699 616.192 35.1657 616.192 32.3942ZM605.341 32.5376C605.341 33.9711 605.1 35.3329 604.618 36.6231C604.184 37.8655 603.533 38.9645 602.665 39.9202C601.797 40.8759 600.736 41.6405 599.482 42.2139C598.276 42.7395 596.877 43.0023 595.286 43.0023C593.743 43.0023 592.344 42.7156 591.09 42.1422C589.885 41.5688 588.824 40.8042 587.907 39.8486C586.991 38.8451 586.292 37.7222 585.81 36.4798C585.327 35.1896 585.086 33.8277 585.086 32.3942V32.2509C585.086 30.8173 585.303 29.4794 585.737 28.237C586.22 26.9468 586.895 25.8239 587.763 24.8682C588.631 23.9125 589.668 23.1719 590.873 22.6462C592.127 22.0728 593.55 21.7861 595.141 21.7861C596.636 21.7861 598.011 22.0728 599.265 22.6462C600.519 23.2197 601.604 24.0081 602.52 25.0116C603.436 25.9672 604.135 27.0902 604.618 28.3803C605.1 29.6227 605.341 30.9607 605.341 32.3942V32.5376Z" fill="url(#paint13_linear)"/>
<path d="M663 51.5318V13.1133H652.004V34.5445C652.004 37.1249 651.378 39.084 650.124 40.422C648.918 41.7121 647.254 42.3572 645.132 42.3572C643.01 42.3572 641.371 41.7121 640.213 40.422C639.056 39.084 638.477 37.1249 638.477 34.5445V13.1133H627.481V37.985C627.481 42.4289 628.615 45.9171 630.881 48.4497C633.196 50.9823 636.452 52.2486 640.647 52.2486C642.046 52.2486 643.3 52.0813 644.409 51.7468C645.518 51.4123 646.531 50.9584 647.447 50.385C648.363 49.8116 649.183 49.1665 649.907 48.4497C650.678 47.6852 651.378 46.8967 652.004 46.0844V51.5318H663Z" fill="url(#paint14_linear)"/>
<path d="M122.718 84.3113V84.2755C122.718 83.4399 122.508 82.7893 122.088 82.3237C121.667 81.8462 121.091 81.4702 120.358 81.1956C120.586 81.0762 120.797 80.933 120.989 80.7658C121.193 80.5987 121.367 80.4077 121.511 80.1928C121.667 79.966 121.787 79.7153 121.871 79.4408C121.968 79.1662 122.016 78.8499 122.016 78.4917V78.4559C122.016 77.4651 121.643 76.6772 120.899 76.0923C120.166 75.5073 119.151 75.2149 117.854 75.2149H112V87.7493H117.999C118.707 87.7493 119.35 87.6777 119.926 87.5344C120.514 87.3912 121.013 87.1763 121.421 86.8898C121.841 86.6033 122.16 86.2452 122.376 85.8154C122.604 85.3857 122.718 84.8843 122.718 84.3113ZM119.259 78.9573C119.259 79.4229 119.079 79.7631 118.719 79.978C118.359 80.1809 117.872 80.2824 117.26 80.2824H114.702V77.6322H117.44C118.029 77.6322 118.479 77.7456 118.791 77.9725C119.103 78.1873 119.259 78.5037 119.259 78.9215V78.9573ZM119.962 83.9711C119.962 84.4366 119.788 84.7828 119.44 85.0096C119.091 85.2245 118.611 85.332 117.999 85.332H114.702V82.5744H117.908C118.629 82.5744 119.151 82.6997 119.476 82.9504C119.8 83.1892 119.962 83.5174 119.962 83.9353V83.9711Z" fill="#787878"/>
<path d="M142.095 82.2879V75.2149H139.321V82.3953C139.321 83.3981 139.081 84.1501 138.6 84.6515C138.12 85.1529 137.453 85.4036 136.601 85.4036C135.748 85.4036 135.082 85.1469 134.601 84.6336C134.121 84.1084 133.881 83.3324 133.881 82.3058V75.2149H131.107V82.3774C131.107 84.2277 131.593 85.6185 132.566 86.5496C133.538 87.4807 134.871 87.9463 136.565 87.9463C137.405 87.9463 138.168 87.8329 138.852 87.6061C139.537 87.3673 140.119 87.0152 140.6 86.5496C141.08 86.0721 141.446 85.4812 141.699 84.7769C141.963 84.0725 142.095 83.2429 142.095 82.2879Z" fill="#787878"/>
<path d="M160.34 84.0427V84.0069C160.34 83.4578 160.25 82.9862 160.07 82.5923C159.902 82.1983 159.644 81.8581 159.295 81.5716C158.959 81.2732 158.539 81.0225 158.034 80.8196C157.542 80.6047 156.978 80.4137 156.341 80.2466C155.801 80.1033 155.35 79.978 154.99 79.8705C154.642 79.7631 154.366 79.6497 154.161 79.5303C153.957 79.4109 153.813 79.2796 153.729 79.1364C153.657 78.9812 153.621 78.8021 153.621 78.5992V78.5634C153.621 78.253 153.753 77.9963 154.017 77.7934C154.294 77.5785 154.702 77.4711 155.242 77.4711C155.783 77.4711 156.323 77.5845 156.864 77.8113C157.404 78.0262 157.956 78.3246 158.521 78.7066L159.962 76.6295C159.313 76.1162 158.599 75.7222 157.818 75.4477C157.05 75.1731 156.203 75.0358 155.278 75.0358C154.63 75.0358 154.035 75.1253 153.495 75.3044C152.955 75.4835 152.486 75.7401 152.09 76.0744C151.706 76.4086 151.405 76.8085 151.189 77.2741C150.973 77.7277 150.865 78.241 150.865 78.814V78.8499C150.865 79.4706 150.961 79.9899 151.153 80.4077C151.357 80.8255 151.64 81.1777 152 81.4642C152.36 81.7388 152.798 81.9715 153.315 82.1625C153.831 82.3535 154.408 82.5266 155.044 82.6818C155.573 82.8131 155.999 82.9385 156.323 83.0579C156.659 83.1772 156.918 83.2966 157.098 83.416C157.29 83.5354 157.416 83.6667 157.476 83.8099C157.548 83.9412 157.584 84.0964 157.584 84.2755V84.3113C157.584 84.6814 157.422 84.9738 157.098 85.1887C156.785 85.3916 156.341 85.4931 155.765 85.4931C155.044 85.4931 154.378 85.3558 153.765 85.0813C153.165 84.8067 152.576 84.4366 152 83.9711L150.361 85.9229C151.117 86.6033 151.958 87.1107 152.883 87.4449C153.807 87.7672 154.75 87.9284 155.711 87.9284C156.395 87.9284 157.02 87.8448 157.584 87.6777C158.148 87.4986 158.635 87.2479 159.043 86.9256C159.451 86.5914 159.77 86.1855 159.998 85.708C160.226 85.2185 160.34 84.6635 160.34 84.0427Z" fill="#787878"/>
<path d="M171.953 87.7493V75.2149H169.178V87.7493H171.953Z" fill="#787878"/>
<path d="M192.613 87.7493V75.2149H189.875V82.9325L183.967 75.2149H181.409V87.7493H184.147V79.781L190.253 87.7493H192.613Z" fill="#787878"/>
<path d="M211.546 87.7493V85.2961H204.701V82.6639H210.645V80.2107H204.701V77.668H211.456V75.2149H201.945V87.7493H211.546Z" fill="#787878"/>
<path d="M229.432 84.0427V84.0069C229.432 83.4578 229.342 82.9862 229.162 82.5923C228.994 82.1983 228.736 81.8581 228.387 81.5716C228.051 81.2732 227.631 81.0225 227.126 80.8196C226.634 80.6047 226.07 80.4137 225.433 80.2466C224.893 80.1033 224.442 79.978 224.082 79.8705C223.734 79.7631 223.458 79.6497 223.253 79.5303C223.049 79.4109 222.905 79.2796 222.821 79.1364C222.749 78.9812 222.713 78.8021 222.713 78.5992V78.5634C222.713 78.253 222.845 77.9963 223.109 77.7934C223.386 77.5785 223.794 77.4711 224.334 77.4711C224.875 77.4711 225.415 77.5845 225.955 77.8113C226.496 78.0262 227.048 78.3246 227.613 78.7066L229.054 76.6295C228.405 76.1162 227.691 75.7222 226.91 75.4477C226.142 75.1731 225.295 75.0358 224.37 75.0358C223.722 75.0358 223.127 75.1253 222.587 75.3044C222.047 75.4835 221.578 75.7401 221.182 76.0744C220.798 76.4086 220.497 76.8085 220.281 77.2741C220.065 77.7277 219.957 78.241 219.957 78.814V78.8499C219.957 79.4706 220.053 79.9899 220.245 80.4077C220.449 80.8255 220.732 81.1777 221.092 81.4642C221.452 81.7388 221.89 81.9715 222.407 82.1625C222.923 82.3535 223.5 82.5266 224.136 82.6818C224.665 82.8131 225.091 82.9385 225.415 83.0579C225.751 83.1772 226.01 83.2966 226.19 83.416C226.382 83.5354 226.508 83.6667 226.568 83.8099C226.64 83.9412 226.676 84.0964 226.676 84.2755V84.3113C226.676 84.6814 226.514 84.9738 226.19 85.1887C225.877 85.3916 225.433 85.4931 224.857 85.4931C224.136 85.4931 223.47 85.3558 222.857 85.0813C222.257 84.8067 221.668 84.4366 221.092 83.9711L219.453 85.9229C220.209 86.6033 221.05 87.1107 221.974 87.4449C222.899 87.7672 223.842 87.9284 224.803 87.9284C225.487 87.9284 226.112 87.8448 226.676 87.6777C227.24 87.4986 227.727 87.2479 228.135 86.9256C228.543 86.5914 228.862 86.1855 229.09 85.708C229.318 85.2185 229.432 84.6635 229.432 84.0427Z" fill="#787878"/>
<path d="M247.259 84.0427V84.0069C247.259 83.4578 247.169 82.9862 246.989 82.5923C246.821 82.1983 246.563 81.8581 246.214 81.5716C245.878 81.2732 245.458 81.0225 244.953 80.8196C244.461 80.6047 243.897 80.4137 243.26 80.2466C242.72 80.1033 242.269 79.978 241.909 79.8705C241.561 79.7631 241.285 79.6497 241.081 79.5303C240.876 79.4109 240.732 79.2796 240.648 79.1364C240.576 78.9812 240.54 78.8021 240.54 78.5992V78.5634C240.54 78.253 240.672 77.9963 240.936 77.7934C241.213 77.5785 241.621 77.4711 242.161 77.4711C242.702 77.4711 243.242 77.5845 243.783 77.8113C244.323 78.0262 244.875 78.3246 245.44 78.7066L246.881 76.6295C246.232 76.1162 245.518 75.7222 244.737 75.4477C243.969 75.1731 243.122 75.0358 242.197 75.0358C241.549 75.0358 240.954 75.1253 240.414 75.3044C239.874 75.4835 239.405 75.7401 239.009 76.0744C238.625 76.4086 238.324 76.8085 238.108 77.2741C237.892 77.7277 237.784 78.241 237.784 78.814V78.8499C237.784 79.4706 237.88 79.9899 238.072 80.4077C238.276 80.8255 238.559 81.1777 238.919 81.4642C239.279 81.7388 239.718 81.9715 240.234 82.1625C240.75 82.3535 241.327 82.5266 241.963 82.6818C242.492 82.8131 242.918 82.9385 243.242 83.0579C243.578 83.1772 243.837 83.2966 244.017 83.416C244.209 83.5354 244.335 83.6667 244.395 83.8099C244.467 83.9412 244.503 84.0964 244.503 84.2755V84.3113C244.503 84.6814 244.341 84.9738 244.017 85.1887C243.705 85.3916 243.26 85.4931 242.684 85.4931C241.963 85.4931 241.297 85.3558 240.684 85.0813C240.084 84.8067 239.495 84.4366 238.919 83.9711L237.28 85.9229C238.036 86.6033 238.877 87.1107 239.802 87.4449C240.726 87.7672 241.669 87.9284 242.63 87.9284C243.314 87.9284 243.939 87.8448 244.503 87.6777C245.068 87.4986 245.554 87.2479 245.962 86.9256C246.371 86.5914 246.689 86.1855 246.917 85.708C247.145 85.2185 247.259 84.6635 247.259 84.0427Z" fill="#787878"/>
<path d="M278.755 85.7259L276.99 83.9532C276.497 84.4068 275.999 84.7649 275.495 85.0275C275.002 85.2902 274.396 85.4215 273.675 85.4215C273.135 85.4215 272.636 85.32 272.18 85.1171C271.736 84.9022 271.352 84.6157 271.027 84.2576C270.715 83.8994 270.469 83.4816 270.289 83.0041C270.109 82.5266 270.019 82.0193 270.019 81.4821V81.4463C270.019 80.9091 270.109 80.4077 270.289 79.9421C270.469 79.4646 270.721 79.0468 271.045 78.6887C271.37 78.3306 271.754 78.05 272.198 77.8471C272.655 77.6442 273.147 77.5427 273.675 77.5427C274.312 77.5427 274.882 77.668 275.387 77.9187C275.903 78.1694 276.407 78.5156 276.9 78.9573L278.665 76.9339C278.377 76.6474 278.065 76.3848 277.728 76.146C277.392 75.9073 277.026 75.7043 276.63 75.5372C276.233 75.3701 275.789 75.2388 275.297 75.1432C274.816 75.0477 274.282 75 273.693 75C272.721 75 271.832 75.1731 271.027 75.5193C270.223 75.8535 269.532 76.3191 268.956 76.916C268.379 77.5009 267.929 78.1873 267.605 78.9752C267.28 79.7511 267.118 80.5868 267.118 81.4821V81.5179C267.118 82.4132 267.28 83.2548 267.605 84.0427C267.929 84.8306 268.379 85.517 268.956 86.1019C269.532 86.6749 270.217 87.1286 271.009 87.4628C271.802 87.7971 272.661 87.9642 273.585 87.9642C274.198 87.9642 274.75 87.9105 275.242 87.803C275.735 87.7075 276.185 87.5643 276.593 87.3733C277.014 87.1703 277.398 86.9316 277.746 86.657C278.095 86.3825 278.431 86.0721 278.755 85.7259Z" fill="#787878"/>
<path d="M300.124 81.4821V81.4463C300.124 80.551 299.956 79.7153 299.62 78.9394C299.296 78.1515 298.833 77.4711 298.233 76.8981C297.644 76.3131 296.942 75.8535 296.125 75.5193C295.309 75.1731 294.414 75 293.441 75C292.469 75 291.568 75.1731 290.739 75.5193C289.923 75.8535 289.214 76.3191 288.614 76.916C288.025 77.5009 287.563 78.1873 287.227 78.9752C286.89 79.7511 286.722 80.5868 286.722 81.4821V81.5179C286.722 82.4132 286.884 83.2548 287.209 84.0427C287.545 84.8186 288.007 85.4991 288.596 86.084C289.196 86.657 289.905 87.1166 290.721 87.4628C291.538 87.7971 292.432 87.9642 293.405 87.9642C294.378 87.9642 295.273 87.7971 296.089 87.4628C296.918 87.1166 297.626 86.6511 298.215 86.0661C298.815 85.4692 299.284 84.7828 299.62 84.0069C299.956 83.219 300.124 82.3774 300.124 81.4821ZM297.224 81.5179C297.224 82.0551 297.128 82.5624 296.936 83.0399C296.756 83.5055 296.498 83.9174 296.161 84.2755C295.837 84.6336 295.441 84.9141 294.972 85.1171C294.504 85.32 293.994 85.4215 293.441 85.4215C292.877 85.4215 292.36 85.32 291.892 85.1171C291.436 84.9022 291.033 84.6157 290.685 84.2576C290.349 83.8994 290.085 83.4816 289.893 83.0041C289.712 82.5266 289.622 82.0193 289.622 81.4821V81.4463C289.622 80.9091 289.712 80.4077 289.893 79.9421C290.085 79.4646 290.343 79.0468 290.667 78.6887C291.003 78.3306 291.4 78.05 291.856 77.8471C292.324 77.6442 292.841 77.5427 293.405 77.5427C293.958 77.5427 294.468 77.6501 294.936 77.865C295.405 78.068 295.807 78.3485 296.143 78.7066C296.492 79.0647 296.756 79.4826 296.936 79.9601C297.128 80.4376 297.224 80.9449 297.224 81.4821V81.5179Z" fill="#787878"/>
<path d="M320.094 87.7493V75.2149H317.356V82.9325L311.448 75.2149H308.89V87.7493H311.628V79.781L317.735 87.7493H320.094Z" fill="#787878"/>
<path d="M338.541 84.0427V84.0069C338.541 83.4578 338.451 82.9862 338.271 82.5923C338.103 82.1983 337.844 81.8581 337.496 81.5716C337.16 81.2732 336.74 81.0225 336.235 80.8196C335.743 80.6047 335.178 80.4137 334.542 80.2466C334.002 80.1033 333.551 79.978 333.191 79.8705C332.843 79.7631 332.566 79.6497 332.362 79.5303C332.158 79.4109 332.014 79.2796 331.93 79.1364C331.858 78.9812 331.822 78.8021 331.822 78.5992V78.5634C331.822 78.253 331.954 77.9963 332.218 77.7934C332.494 77.5785 332.903 77.4711 333.443 77.4711C333.984 77.4711 334.524 77.5845 335.064 77.8113C335.605 78.0262 336.157 78.3246 336.722 78.7066L338.163 76.6295C337.514 76.1162 336.8 75.7222 336.019 75.4477C335.25 75.1731 334.404 75.0358 333.479 75.0358C332.831 75.0358 332.236 75.1253 331.696 75.3044C331.155 75.4835 330.687 75.7401 330.291 76.0744C329.906 76.4086 329.606 76.8085 329.39 77.2741C329.174 77.7277 329.066 78.241 329.066 78.814V78.8499C329.066 79.4706 329.162 79.9899 329.354 80.4077C329.558 80.8255 329.84 81.1777 330.201 81.4642C330.561 81.7388 330.999 81.9715 331.516 82.1625C332.032 82.3535 332.608 82.5266 333.245 82.6818C333.773 82.8131 334.2 82.9385 334.524 83.0579C334.86 83.1772 335.118 83.2966 335.298 83.416C335.491 83.5354 335.617 83.6667 335.677 83.8099C335.749 83.9412 335.785 84.0964 335.785 84.2755V84.3113C335.785 84.6814 335.623 84.9738 335.298 85.1887C334.986 85.3916 334.542 85.4931 333.965 85.4931C333.245 85.4931 332.578 85.3558 331.966 85.0813C331.366 84.8067 330.777 84.4366 330.201 83.9711L328.561 85.9229C329.318 86.6033 330.159 87.1107 331.083 87.4449C332.008 87.7672 332.951 87.9284 333.911 87.9284C334.596 87.9284 335.22 87.8448 335.785 87.6777C336.349 87.4986 336.836 87.2479 337.244 86.9256C337.652 86.5914 337.971 86.1855 338.199 85.708C338.427 85.2185 338.541 84.6635 338.541 84.0427Z" fill="#787878"/>
<path d="M358.043 82.2879V75.2149H355.269V82.3953C355.269 83.3981 355.029 84.1501 354.549 84.6515C354.068 85.1529 353.402 85.4036 352.549 85.4036C351.697 85.4036 351.03 85.1469 350.55 84.6336C350.069 84.1084 349.829 83.3324 349.829 82.3058V75.2149H347.055V82.3774C347.055 84.2277 347.541 85.6185 348.514 86.5496C349.487 87.4807 350.82 87.9463 352.513 87.9463C353.354 87.9463 354.116 87.8329 354.801 87.6061C355.485 87.3673 356.068 87.0152 356.548 86.5496C357.029 86.0721 357.395 85.4812 357.647 84.7769C357.911 84.0725 358.043 83.2429 358.043 82.2879Z" fill="#787878"/>
<path d="M376.234 87.7493V85.2424H369.948V75.2149H367.174V87.7493H376.234Z" fill="#787878"/>
<path d="M394.179 77.7576V75.2149H383.731V77.7576H387.568V87.7493H390.342V77.7576H394.179Z" fill="#787878"/>
<path d="M414.902 87.7493L409.498 75.1253H406.94L401.536 87.7493H404.364L405.517 84.938H410.849L412.002 87.7493H414.902ZM409.858 82.5028H406.508L408.183 78.438L409.858 82.5028Z" fill="#787878"/>
<path d="M434.357 87.7493V75.2149H431.619V82.9325L425.711 75.2149H423.153V87.7493H425.891V79.781L431.998 87.7493H434.357Z" fill="#787878"/>
<path d="M453.236 77.7576V75.2149H442.788V77.7576H446.625V87.7493H449.399V77.7576H453.236Z" fill="#787878"/>
<path d="M470.789 84.0427V84.0069C470.789 83.4578 470.699 82.9862 470.519 82.5923C470.351 82.1983 470.093 81.8581 469.745 81.5716C469.408 81.2732 468.988 81.0225 468.484 80.8196C467.991 80.6047 467.427 80.4137 466.79 80.2466C466.25 80.1033 465.8 79.978 465.439 79.8705C465.091 79.7631 464.815 79.6497 464.611 79.5303C464.407 79.4109 464.263 79.2796 464.179 79.1364C464.106 78.9812 464.07 78.8021 464.07 78.5992V78.5634C464.07 78.253 464.203 77.9963 464.467 77.7934C464.743 77.5785 465.151 77.4711 465.692 77.4711C466.232 77.4711 466.772 77.5845 467.313 77.8113C467.853 78.0262 468.406 78.3246 468.97 78.7066L470.411 76.6295C469.763 76.1162 469.048 75.7222 468.268 75.4477C467.499 75.1731 466.652 75.0358 465.728 75.0358C465.079 75.0358 464.485 75.1253 463.944 75.3044C463.404 75.4835 462.936 75.7401 462.539 76.0744C462.155 76.4086 461.855 76.8085 461.639 77.2741C461.422 77.7277 461.314 78.241 461.314 78.814V78.8499C461.314 79.4706 461.41 79.9899 461.603 80.4077C461.807 80.8255 462.089 81.1777 462.449 81.4642C462.809 81.7388 463.248 81.9715 463.764 82.1625C464.281 82.3535 464.857 82.5266 465.493 82.6818C466.022 82.8131 466.448 82.9385 466.772 83.0579C467.109 83.1772 467.367 83.2966 467.547 83.416C467.739 83.5354 467.865 83.6667 467.925 83.8099C467.997 83.9412 468.033 84.0964 468.033 84.2755V84.3113C468.033 84.6814 467.871 84.9738 467.547 85.1887C467.235 85.3916 466.79 85.4931 466.214 85.4931C465.493 85.4931 464.827 85.3558 464.215 85.0813C463.614 84.8067 463.026 84.4366 462.449 83.9711L460.81 85.9229C461.567 86.6033 462.407 87.1107 463.332 87.4449C464.257 87.7672 465.199 87.9284 466.16 87.9284C466.845 87.9284 467.469 87.8448 468.033 87.6777C468.598 87.4986 469.084 87.2479 469.493 86.9256C469.901 86.5914 470.219 86.1855 470.447 85.708C470.675 85.2185 470.789 84.6635 470.789 84.0427Z" fill="#787878"/>
<path d="M501.727 86.5854L499.872 84.741C500.184 84.3232 500.478 83.8875 500.754 83.4339C501.03 82.9803 501.289 82.5326 501.529 82.0909L499.493 80.9807C499.289 81.3627 499.085 81.7388 498.881 82.1088C498.677 82.4669 498.473 82.8072 498.268 83.1295L496.593 81.4642C497.374 81.1657 498.01 80.7539 498.503 80.2286C498.995 79.7034 499.241 79.017 499.241 78.1694C499.241 77.7277 499.157 77.3159 498.989 76.9339C498.821 76.5399 498.581 76.1997 498.268 75.9132C497.956 75.6267 497.584 75.4059 497.152 75.2507C496.719 75.0836 496.233 75 495.692 75C495.08 75 494.534 75.0955 494.053 75.2865C493.585 75.4656 493.189 75.7103 492.864 76.0207C492.54 76.3191 492.294 76.6713 492.126 77.0771C491.958 77.4711 491.874 77.8829 491.874 78.3127C491.874 78.7544 491.94 79.1781 492.072 79.584C492.216 79.978 492.444 80.3958 492.756 80.8375C491.964 81.1956 491.357 81.6612 490.937 82.2342C490.517 82.7952 490.306 83.4816 490.306 84.2934C490.306 84.8545 490.414 85.3618 490.631 85.8154C490.847 86.2571 491.141 86.6391 491.513 86.9614C491.898 87.2718 492.348 87.5106 492.864 87.6777C493.381 87.8448 493.939 87.9284 494.54 87.9284C495.272 87.9284 495.939 87.803 496.539 87.5523C497.152 87.2897 497.716 86.9495 498.232 86.5317L499.691 88L501.727 86.5854ZM496.827 78.3306C496.827 78.7365 496.683 79.0707 496.395 79.3333C496.119 79.584 495.704 79.8108 495.152 80.0138C494.888 79.7153 494.696 79.4527 494.576 79.2259C494.467 78.9871 494.413 78.7245 494.413 78.438C494.413 78.056 494.522 77.7456 494.738 77.5069C494.966 77.2681 495.266 77.1488 495.638 77.1488C495.987 77.1488 496.269 77.2502 496.485 77.4532C496.713 77.6561 496.827 77.9486 496.827 78.3306ZM496.683 84.9559C496.395 85.1827 496.095 85.3618 495.783 85.4931C495.482 85.6125 495.176 85.6722 494.864 85.6722C494.347 85.6722 493.921 85.5409 493.585 85.2782C493.261 85.0037 493.098 84.6396 493.098 84.1859C493.098 83.8756 493.189 83.5771 493.369 83.2906C493.549 82.9922 493.849 82.7355 494.269 82.5207L496.683 84.9559Z" fill="#787878"/>
<path d="M534.045 87.7493L528.641 75.1253H526.083L520.679 87.7493H523.507L524.66 84.938H529.992L531.145 87.7493H534.045ZM529.001 82.5028H525.651L527.326 78.438L529.001 82.5028Z" fill="#787878"/>
<path d="M553.086 82.2879V75.2149H550.312V82.3953C550.312 83.3981 550.072 84.1501 549.591 84.6515C549.111 85.1529 548.445 85.4036 547.592 85.4036C546.739 85.4036 546.073 85.1469 545.592 84.6336C545.112 84.1084 544.872 83.3324 544.872 82.3058V75.2149H542.098V82.3774C542.098 84.2277 542.584 85.6185 543.557 86.5496C544.53 87.4807 545.863 87.9463 547.556 87.9463C548.397 87.9463 549.159 87.8329 549.844 87.6061C550.528 87.3673 551.111 87.0152 551.591 86.5496C552.071 86.0721 552.438 85.4812 552.69 84.7769C552.954 84.0725 553.086 83.2429 553.086 82.2879Z" fill="#787878"/>
<path d="M573.835 81.4821V81.4463C573.835 80.5629 573.673 79.7452 573.349 78.9931C573.025 78.2291 572.562 77.5666 571.962 77.0055C571.373 76.4444 570.665 76.0087 569.836 75.6983C569.02 75.376 568.119 75.2149 567.134 75.2149H562.216V87.7493H567.134C568.119 87.7493 569.02 87.5882 569.836 87.2658C570.665 86.9435 571.373 86.5018 571.962 85.9408C572.562 85.3797 573.025 84.7172 573.349 83.9532C573.673 83.1892 573.835 82.3655 573.835 81.4821ZM570.935 81.5179C570.935 82.079 570.839 82.5863 570.647 83.0399C570.467 83.4936 570.208 83.8875 569.872 84.2218C569.548 84.556 569.152 84.8127 568.683 84.9917C568.215 85.1708 567.699 85.2603 567.134 85.2603H564.991V77.7039H567.134C567.699 77.7039 568.215 77.7994 568.683 77.9904C569.152 78.1694 569.548 78.4261 569.872 78.7603C570.208 79.0946 570.467 79.4945 570.647 79.9601C570.839 80.4256 570.935 80.933 570.935 81.4821V81.5179Z" fill="#787878"/>
<path d="M585.512 87.7493V75.2149H582.738V87.7493H585.512Z" fill="#787878"/>
<path d="M604.515 77.7576V75.2149H594.067V77.7576H597.904V87.7493H600.678V77.7576H604.515Z" fill="#787878"/>
<path d="M625.797 81.4821V81.4463C625.797 80.551 625.629 79.7153 625.293 78.9394C624.969 78.1515 624.506 77.4711 623.906 76.8981C623.317 76.3131 622.615 75.8535 621.798 75.5193C620.982 75.1731 620.087 75 619.114 75C618.141 75 617.241 75.1731 616.412 75.5193C615.595 75.8535 614.887 76.3191 614.286 76.916C613.698 77.5009 613.236 78.1873 612.899 78.9752C612.563 79.7511 612.395 80.5868 612.395 81.4821V81.5179C612.395 82.4132 612.557 83.2548 612.881 84.0427C613.218 84.8186 613.68 85.4991 614.268 86.084C614.869 86.657 615.578 87.1166 616.394 87.4628C617.211 87.7971 618.105 87.9642 619.078 87.9642C620.051 87.9642 620.946 87.7971 621.762 87.4628C622.591 87.1166 623.299 86.6511 623.888 86.0661C624.488 85.4692 624.957 84.7828 625.293 84.0069C625.629 83.219 625.797 82.3774 625.797 81.4821ZM622.897 81.5179C622.897 82.0551 622.801 82.5624 622.609 83.0399C622.429 83.5055 622.17 83.9174 621.834 84.2755C621.51 84.6336 621.114 84.9141 620.645 85.1171C620.177 85.32 619.667 85.4215 619.114 85.4215C618.55 85.4215 618.033 85.32 617.565 85.1171C617.109 84.9022 616.706 84.6157 616.358 84.2576C616.022 83.8994 615.758 83.4816 615.565 83.0041C615.385 82.5266 615.295 82.0193 615.295 81.4821V81.4463C615.295 80.9091 615.385 80.4077 615.565 79.9421C615.758 79.4646 616.016 79.0468 616.34 78.6887C616.676 78.3306 617.073 78.05 617.529 77.8471C617.997 77.6442 618.514 77.5427 619.078 77.5427C619.631 77.5427 620.141 77.6501 620.609 77.865C621.078 78.068 621.48 78.3485 621.816 78.7066C622.164 79.0647 622.429 79.4826 622.609 79.9601C622.801 80.4376 622.897 80.9449 622.897 81.4821V81.5179Z" fill="#787878"/>
<path d="M645.461 87.7493L642.381 83.2727C643.185 82.9743 643.834 82.5087 644.326 81.876C644.831 81.2314 645.083 80.4017 645.083 79.3871V79.3512C645.083 78.05 644.662 77.0354 643.822 76.3072C642.993 75.579 641.828 75.2149 640.327 75.2149H634.563V87.7493H637.337V83.7383H639.516L642.219 87.7493H645.461ZM642.273 79.5303C642.273 80.0675 642.086 80.4972 641.714 80.8196C641.354 81.1419 640.831 81.303 640.147 81.303H637.337V77.7039H640.093C640.777 77.7039 641.312 77.8531 641.696 78.1515C642.08 78.45 642.273 78.8976 642.273 79.4945V79.5303Z" fill="#787878"/>
<path d="M663 84.0427V84.0069C663 83.4578 662.91 82.9862 662.73 82.5923C662.562 82.1983 662.303 81.8581 661.955 81.5716C661.619 81.2732 661.199 81.0225 660.694 80.8196C660.202 80.6047 659.638 80.4137 659.001 80.2466C658.461 80.1033 658.01 79.978 657.65 79.8705C657.302 79.7631 657.026 79.6497 656.821 79.5303C656.617 79.4109 656.473 79.2796 656.389 79.1364C656.317 78.9812 656.281 78.8021 656.281 78.5992V78.5634C656.281 78.253 656.413 77.9963 656.677 77.7934C656.953 77.5785 657.362 77.4711 657.902 77.4711C658.443 77.4711 658.983 77.5845 659.523 77.8113C660.064 78.0262 660.616 78.3246 661.181 78.7066L662.622 76.6295C661.973 76.1162 661.259 75.7222 660.478 75.4477C659.709 75.1731 658.863 75.0358 657.938 75.0358C657.29 75.0358 656.695 75.1253 656.155 75.3044C655.614 75.4835 655.146 75.7401 654.75 76.0744C654.365 76.4086 654.065 76.8085 653.849 77.2741C653.633 77.7277 653.525 78.241 653.525 78.814V78.8499C653.525 79.4706 653.621 79.9899 653.813 80.4077C654.017 80.8255 654.299 81.1777 654.66 81.4642C655.02 81.7388 655.458 81.9715 655.975 82.1625C656.491 82.3535 657.068 82.5266 657.704 82.6818C658.232 82.8131 658.659 82.9385 658.983 83.0579C659.319 83.1772 659.577 83.2966 659.758 83.416C659.95 83.5354 660.076 83.6667 660.136 83.8099C660.208 83.9412 660.244 84.0964 660.244 84.2755V84.3113C660.244 84.6814 660.082 84.9738 659.758 85.1887C659.445 85.3916 659.001 85.4931 658.425 85.4931C657.704 85.4931 657.037 85.3558 656.425 85.0813C655.825 84.8067 655.236 84.4366 654.66 83.9711L653.021 85.9229C653.777 86.6033 654.618 87.1107 655.542 87.4449C656.467 87.7672 657.41 87.9284 658.371 87.9284C659.055 87.9284 659.68 87.8448 660.244 87.6777C660.808 87.4986 661.295 87.2479 661.703 86.9256C662.111 86.5914 662.43 86.1855 662.658 85.708C662.886 85.2185 663 84.6635 663 84.0427Z" fill="#787878"/>
<defs>
<linearGradient id="paint0_linear" x1="0" y1="44" x2="87" y2="44" gradientUnits="userSpaceOnUse">
<stop stop-color="#F46B45"/>
<stop offset="1" stop-color="#EEA849"/>
</linearGradient>
<linearGradient id="paint1_linear" x1="0" y1="44" x2="87" y2="44" gradientUnits="userSpaceOnUse">
<stop stop-color="#F46B45"/>
<stop offset="1" stop-color="#EEA849"/>
</linearGradient>
<linearGradient id="paint2_linear" x1="0" y1="44" x2="87" y2="44" gradientUnits="userSpaceOnUse">
<stop stop-color="#F46B45"/>
<stop offset="1" stop-color="#EEA849"/>
</linearGradient>
<linearGradient id="paint3_linear" x1="0" y1="44" x2="87" y2="44" gradientUnits="userSpaceOnUse">
<stop stop-color="#F46B45"/>
<stop offset="1" stop-color="#EEA849"/>
</linearGradient>
<linearGradient id="paint4_linear" x1="105.924" y1="31.124" x2="668.561" y2="31.124" gradientUnits="userSpaceOnUse">
<stop stop-color="#2C3E50"/>
<stop offset="1" stop-color="#3498DB"/>
</linearGradient>
<linearGradient id="paint5_linear" x1="105.924" y1="31.124" x2="668.561" y2="31.124" gradientUnits="userSpaceOnUse">
<stop stop-color="#2C3E50"/>
<stop offset="1" stop-color="#3498DB"/>
</linearGradient>
<linearGradient id="paint6_linear" x1="105.924" y1="31.124" x2="668.561" y2="31.124" gradientUnits="userSpaceOnUse">
<stop stop-color="#2C3E50"/>
<stop offset="1" stop-color="#3498DB"/>
</linearGradient>
<linearGradient id="paint7_linear" x1="105.924" y1="31.124" x2="668.561" y2="31.124" gradientUnits="userSpaceOnUse">
<stop stop-color="#2C3E50"/>
<stop offset="1" stop-color="#3498DB"/>
</linearGradient>
<linearGradient id="paint8_linear" x1="105.924" y1="31.124" x2="668.561" y2="31.124" gradientUnits="userSpaceOnUse">
<stop stop-color="#2C3E50"/>
<stop offset="1" stop-color="#3498DB"/>
</linearGradient>
<linearGradient id="paint9_linear" x1="105.924" y1="31.124" x2="668.561" y2="31.124" gradientUnits="userSpaceOnUse">
<stop stop-color="#2C3E50"/>
<stop offset="1" stop-color="#3498DB"/>
</linearGradient>
<linearGradient id="paint10_linear" x1="105.924" y1="31.124" x2="668.561" y2="31.124" gradientUnits="userSpaceOnUse">
<stop stop-color="#2C3E50"/>
<stop offset="1" stop-color="#3498DB"/>
</linearGradient>
<linearGradient id="paint11_linear" x1="105.924" y1="31.124" x2="668.561" y2="31.124" gradientUnits="userSpaceOnUse">
<stop stop-color="#2C3E50"/>
<stop offset="1" stop-color="#3498DB"/>
</linearGradient>
<linearGradient id="paint12_linear" x1="105.924" y1="31.124" x2="668.561" y2="31.124" gradientUnits="userSpaceOnUse">
<stop stop-color="#2C3E50"/>
<stop offset="1" stop-color="#3498DB"/>
</linearGradient>
<linearGradient id="paint13_linear" x1="105.924" y1="31.124" x2="668.561" y2="31.124" gradientUnits="userSpaceOnUse">
<stop stop-color="#2C3E50"/>
<stop offset="1" stop-color="#3498DB"/>
</linearGradient>
<linearGradient id="paint14_linear" x1="105.924" y1="31.124" x2="668.561" y2="31.124" gradientUnits="userSpaceOnUse">
<stop stop-color="#2C3E50"/>
<stop offset="1" stop-color="#3498DB"/>
</linearGradient>
</defs>
</svg>
