<svg width="453" height="95" viewBox="0 0 453 95" fill="none" xmlns="http://www.w3.org/2000/svg">
<path d="M155.424 50.76V40.896H128.064V30.312H151.824V20.448H128.064V10.224H155.064V0.36H117.048V50.76H155.424Z" fill="url(#paint0_linear)"/>
<path d="M199.626 50.76L186.018 30.96L199.05 12.168H187.602L180.33 23.4L173.13 12.168H161.394L174.426 31.176L160.89 50.76H172.338L180.114 38.736L187.89 50.76H199.626Z" fill="url(#paint1_linear)"/>
<path d="M246.713 31.536V31.392C246.713 28.176 246.209 25.344 245.201 22.896C244.241 20.4 242.945 18.312 241.313 16.632C239.681 14.904 237.809 13.608 235.697 12.744C233.585 11.88 231.401 11.448 229.145 11.448C226.265 11.448 223.865 12.048 221.945 13.248C220.073 14.4 218.465 15.888 217.121 17.712V12.168H206.177V62.28H217.121V45.72C218.417 47.256 220.001 48.6 221.873 49.752C223.793 50.904 226.217 51.48 229.145 51.48C231.449 51.48 233.657 51.048 235.769 50.184C237.881 49.32 239.729 48.048 241.313 46.368C242.945 44.64 244.241 42.552 245.201 40.104C246.209 37.608 246.713 34.752 246.713 31.536ZM235.769 31.536C235.769 33.168 235.505 34.632 234.977 35.928C234.497 37.224 233.825 38.352 232.961 39.312C232.097 40.224 231.089 40.944 229.937 41.472C228.833 41.952 227.633 42.192 226.337 42.192C225.041 42.192 223.817 41.952 222.665 41.472C221.561 40.944 220.577 40.224 219.713 39.312C218.897 38.352 218.225 37.224 217.697 35.928C217.217 34.584 216.977 33.12 216.977 31.536V31.392C216.977 29.808 217.217 28.368 217.697 27.072C218.225 25.728 218.897 24.6 219.713 23.688C220.577 22.728 221.561 22.008 222.665 21.528C223.817 21 225.041 20.736 226.337 20.736C227.633 20.736 228.833 21 229.937 21.528C231.089 22.008 232.097 22.728 232.961 23.688C233.825 24.6 234.497 25.728 234.977 27.072C235.505 28.368 235.769 29.808 235.769 31.392V31.536Z" fill="url(#paint2_linear)"/>
<path d="M290.763 32.544V32.4C290.763 29.664 290.379 27.048 289.611 24.552C288.891 22.008 287.739 19.776 286.155 17.856C284.619 15.888 282.675 14.328 280.323 13.176C277.971 12.024 275.187 11.448 271.971 11.448C269.139 11.448 266.547 11.976 264.195 13.032C261.891 14.088 259.899 15.528 258.219 17.352C256.539 19.176 255.219 21.312 254.259 23.76C253.347 26.208 252.891 28.8 252.891 31.536V31.68C252.891 34.656 253.395 37.368 254.403 39.816C255.411 42.216 256.803 44.304 258.579 46.08C260.403 47.856 262.539 49.224 264.987 50.184C267.483 51.144 270.171 51.624 273.051 51.624C276.555 51.624 279.603 51 282.195 49.752C284.787 48.456 286.995 46.68 288.819 44.424L282.555 38.88C281.019 40.272 279.531 41.28 278.091 41.904C276.651 42.528 275.019 42.84 273.195 42.84C270.747 42.84 268.683 42.216 267.003 40.968C265.371 39.672 264.291 37.776 263.763 35.28H290.619C290.667 34.752 290.691 34.296 290.691 33.912C290.739 33.528 290.763 33.072 290.763 32.544ZM280.107 28.44H263.619C264.051 25.944 264.963 23.952 266.355 22.464C267.795 20.976 269.667 20.232 271.971 20.232C274.275 20.232 276.123 21 277.515 22.536C278.907 24.024 279.771 25.992 280.107 28.44Z" fill="url(#paint3_linear)"/>
<path d="M322.175 22.896V11.448C318.911 11.304 316.319 12.024 314.399 13.608C312.479 15.192 310.967 17.304 309.863 19.944V12.168H298.919V50.76H309.863V36.504C309.863 31.848 310.895 28.416 312.959 26.208C315.071 24 317.951 22.896 321.599 22.896H322.175Z" fill="url(#paint4_linear)"/>
<path d="M350.685 49.176V40.392C349.005 41.304 347.205 41.76 345.285 41.76C342.933 41.76 341.757 40.512 341.757 38.016V21.528H350.829V12.168H341.757V2.304H330.813V12.168H326.205V21.528H330.813V39.816C330.813 42.072 331.077 43.944 331.605 45.432C332.181 46.872 332.949 48.048 333.909 48.96C334.917 49.872 336.093 50.496 337.437 50.832C338.829 51.216 340.365 51.408 342.045 51.408C343.869 51.408 345.477 51.192 346.869 50.76C348.261 50.376 349.533 49.848 350.685 49.176Z" fill="url(#paint5_linear)"/>
<path d="M383.88 0L356.232 32.04L358.032 39.888H382.656V50.76H393.24V39.888H400.008V30.888H393.24V0H383.88ZM382.656 30.888H369.264L382.656 15.192V30.888Z" fill="url(#paint6_linear)"/>
<path d="M452.817 28.8V0.36H441.729V29.232C441.729 33.264 440.769 36.288 438.849 38.304C436.929 40.32 434.265 41.328 430.857 41.328C427.449 41.328 424.785 40.296 422.865 38.232C420.945 36.12 419.985 33 419.985 28.872V0.36H408.897V29.16C408.897 36.6 410.841 42.192 414.729 45.936C418.617 49.68 423.945 51.552 430.713 51.552C434.073 51.552 437.121 51.096 439.857 50.184C442.593 49.224 444.921 47.808 446.841 45.936C448.761 44.016 450.225 41.64 451.233 38.808C452.289 35.976 452.817 32.64 452.817 28.8Z" fill="url(#paint7_linear)"/>
<path d="M130.617 89.344V89.298C130.617 88.2247 130.349 87.389 129.812 86.791C129.275 86.1777 128.539 85.6947 127.604 85.342C127.895 85.1887 128.164 85.0047 128.409 84.79C128.67 84.5754 128.892 84.33 129.076 84.054C129.275 83.7627 129.429 83.4407 129.536 83.088C129.659 82.7354 129.72 82.329 129.72 81.869V81.823C129.72 80.5504 129.245 79.5384 128.294 78.787C127.359 78.0357 126.063 77.66 124.407 77.66H116.932V93.76H124.591C125.496 93.76 126.316 93.668 127.052 93.484C127.803 93.3 128.44 93.024 128.961 92.656C129.498 92.288 129.904 91.828 130.18 91.276C130.471 90.724 130.617 90.08 130.617 89.344ZM126.201 82.467C126.201 83.065 125.971 83.502 125.511 83.778C125.051 84.0387 124.43 84.169 123.648 84.169H120.382V80.765H123.878C124.629 80.765 125.204 80.9107 125.603 81.202C126.002 81.478 126.201 81.8844 126.201 82.421V82.467ZM127.098 88.907C127.098 89.505 126.876 89.9497 126.431 90.241C125.986 90.517 125.373 90.655 124.591 90.655H120.382V87.113H124.476C125.396 87.113 126.063 87.274 126.477 87.596C126.891 87.9027 127.098 88.3244 127.098 88.861V88.907Z" fill="#787878"/>
<path d="M148.918 86.745V77.66H145.376V86.883C145.376 88.171 145.069 89.137 144.456 89.781C143.842 90.425 142.991 90.747 141.903 90.747C140.814 90.747 139.963 90.4174 139.35 89.758C138.736 89.0834 138.43 88.0867 138.43 86.768V77.66H134.888V86.86C134.888 89.2367 135.509 91.023 136.751 92.219C137.993 93.415 139.695 94.013 141.857 94.013C142.93 94.013 143.904 93.8674 144.778 93.576C145.652 93.2694 146.395 92.817 147.009 92.219C147.622 91.6057 148.09 90.8467 148.412 89.942C148.749 89.0374 148.918 87.9717 148.918 86.745Z" fill="#787878"/>
<path d="M165.773 88.999V88.953C165.773 88.2477 165.658 87.642 165.428 87.136C165.214 86.63 164.884 86.193 164.439 85.825C164.01 85.4417 163.473 85.1197 162.829 84.859C162.201 84.583 161.48 84.3377 160.667 84.123C159.977 83.939 159.402 83.778 158.942 83.64C158.498 83.502 158.145 83.3564 157.884 83.203C157.624 83.0497 157.44 82.881 157.332 82.697C157.24 82.4977 157.194 82.2677 157.194 82.007V81.961C157.194 81.5624 157.363 81.2327 157.7 80.972C158.053 80.696 158.574 80.558 159.264 80.558C159.954 80.558 160.644 80.7037 161.334 80.995C162.024 81.271 162.73 81.6544 163.45 82.145L165.29 79.477C164.462 78.8177 163.55 78.3117 162.553 77.959C161.572 77.6064 160.491 77.43 159.31 77.43C158.482 77.43 157.723 77.545 157.033 77.775C156.343 78.005 155.745 78.3347 155.239 78.764C154.749 79.1934 154.365 79.707 154.089 80.305C153.813 80.8877 153.675 81.547 153.675 82.283V82.329C153.675 83.1264 153.798 83.7934 154.043 84.33C154.304 84.8667 154.664 85.319 155.124 85.687C155.584 86.0397 156.144 86.3387 156.803 86.584C157.463 86.8294 158.199 87.0517 159.011 87.251C159.686 87.4197 160.23 87.5807 160.644 87.734C161.074 87.8874 161.403 88.0407 161.633 88.194C161.879 88.3474 162.04 88.516 162.116 88.7C162.208 88.8687 162.254 89.068 162.254 89.298V89.344C162.254 89.8194 162.047 90.195 161.633 90.471C161.235 90.7317 160.667 90.862 159.931 90.862C159.011 90.862 158.16 90.6857 157.378 90.333C156.612 89.9804 155.86 89.505 155.124 88.907L153.031 91.414C153.997 92.288 155.071 92.9397 156.251 93.369C157.432 93.783 158.636 93.99 159.862 93.99C160.736 93.99 161.534 93.8827 162.254 93.668C162.975 93.438 163.596 93.116 164.117 92.702C164.639 92.2727 165.045 91.7514 165.336 91.138C165.628 90.5094 165.773 89.7964 165.773 88.999Z" fill="#787878"/>
<path d="M174.16 93.76V77.66H170.618V93.76H174.16Z" fill="#787878"/>
<path d="M194.1 93.76V77.66H190.604V87.573L183.06 77.66H179.794V93.76H183.29V83.525L191.087 93.76H194.1Z" fill="#787878"/>
<path d="M211.834 93.76V90.609H203.094V87.228H210.684V84.077H203.094V80.811H211.719V77.66H199.575V93.76H211.834Z" fill="#787878"/>
<path d="M228.231 88.999V88.953C228.231 88.2477 228.116 87.642 227.886 87.136C227.671 86.63 227.342 86.193 226.897 85.825C226.468 85.4417 225.931 85.1197 225.287 84.859C224.658 84.583 223.938 84.3377 223.125 84.123C222.435 83.939 221.86 83.778 221.4 83.64C220.955 83.502 220.603 83.3564 220.342 83.203C220.081 83.0497 219.897 82.881 219.79 82.697C219.698 82.4977 219.652 82.2677 219.652 82.007V81.961C219.652 81.5624 219.821 81.2327 220.158 80.972C220.511 80.696 221.032 80.558 221.722 80.558C222.412 80.558 223.102 80.7037 223.792 80.995C224.482 81.271 225.187 81.6544 225.908 82.145L227.748 79.477C226.92 78.8177 226.008 78.3117 225.011 77.959C224.03 77.6064 222.949 77.43 221.768 77.43C220.94 77.43 220.181 77.545 219.491 77.775C218.801 78.005 218.203 78.3347 217.697 78.764C217.206 79.1934 216.823 79.707 216.547 80.305C216.271 80.8877 216.133 81.547 216.133 82.283V82.329C216.133 83.1264 216.256 83.7934 216.501 84.33C216.762 84.8667 217.122 85.319 217.582 85.687C218.042 86.0397 218.602 86.3387 219.261 86.584C219.92 86.8294 220.656 87.0517 221.469 87.251C222.144 87.4197 222.688 87.5807 223.102 87.734C223.531 87.8874 223.861 88.0407 224.091 88.194C224.336 88.3474 224.497 88.516 224.574 88.7C224.666 88.8687 224.712 89.068 224.712 89.298V89.344C224.712 89.8194 224.505 90.195 224.091 90.471C223.692 90.7317 223.125 90.862 222.389 90.862C221.469 90.862 220.618 90.6857 219.836 90.333C219.069 89.9804 218.318 89.505 217.582 88.907L215.489 91.414C216.455 92.288 217.528 92.9397 218.709 93.369C219.89 93.783 221.093 93.99 222.32 93.99C223.194 93.99 223.991 93.8827 224.712 93.668C225.433 93.438 226.054 93.116 226.575 92.702C227.096 92.2727 227.503 91.7514 227.794 91.138C228.085 90.5094 228.231 89.7964 228.231 88.999Z" fill="#787878"/>
<path d="M244.553 88.999V88.953C244.553 88.2477 244.438 87.642 244.208 87.136C243.993 86.63 243.664 86.193 243.219 85.825C242.79 85.4417 242.253 85.1197 241.609 84.859C240.98 84.583 240.26 84.3377 239.447 84.123C238.757 83.939 238.182 83.778 237.722 83.64C237.277 83.502 236.925 83.3564 236.664 83.203C236.403 83.0497 236.219 82.881 236.112 82.697C236.02 82.4977 235.974 82.2677 235.974 82.007V81.961C235.974 81.5624 236.143 81.2327 236.48 80.972C236.833 80.696 237.354 80.558 238.044 80.558C238.734 80.558 239.424 80.7037 240.114 80.995C240.804 81.271 241.509 81.6544 242.23 82.145L244.07 79.477C243.242 78.8177 242.33 78.3117 241.333 77.959C240.352 77.6064 239.271 77.43 238.09 77.43C237.262 77.43 236.503 77.545 235.813 77.775C235.123 78.005 234.525 78.3347 234.019 78.764C233.528 79.1934 233.145 79.707 232.869 80.305C232.593 80.8877 232.455 81.547 232.455 82.283V82.329C232.455 83.1264 232.578 83.7934 232.823 84.33C233.084 84.8667 233.444 85.319 233.904 85.687C234.364 86.0397 234.924 86.3387 235.583 86.584C236.242 86.8294 236.978 87.0517 237.791 87.251C238.466 87.4197 239.01 87.5807 239.424 87.734C239.853 87.8874 240.183 88.0407 240.413 88.194C240.658 88.3474 240.819 88.516 240.896 88.7C240.988 88.8687 241.034 89.068 241.034 89.298V89.344C241.034 89.8194 240.827 90.195 240.413 90.471C240.014 90.7317 239.447 90.862 238.711 90.862C237.791 90.862 236.94 90.6857 236.158 90.333C235.391 89.9804 234.64 89.505 233.904 88.907L231.811 91.414C232.777 92.288 233.85 92.9397 235.031 93.369C236.212 93.783 237.415 93.99 238.642 93.99C239.516 93.99 240.313 93.8827 241.034 93.668C241.755 93.438 242.376 93.116 242.897 92.702C243.418 92.2727 243.825 91.7514 244.116 91.138C244.407 90.5094 244.553 89.7964 244.553 88.999Z" fill="#787878"/>
<path d="M271.887 91.161L269.633 88.884C269.005 89.4667 268.368 89.9267 267.724 90.264C267.096 90.6014 266.321 90.77 265.401 90.77C264.711 90.77 264.075 90.6397 263.492 90.379C262.925 90.103 262.434 89.735 262.02 89.275C261.622 88.815 261.307 88.2784 261.077 87.665C260.847 87.0517 260.732 86.4 260.732 85.71V85.664C260.732 84.974 260.847 84.33 261.077 83.732C261.307 83.1187 261.629 82.582 262.043 82.122C262.457 81.662 262.948 81.3017 263.515 81.041C264.098 80.7804 264.727 80.65 265.401 80.65C266.214 80.65 266.942 80.811 267.586 81.133C268.246 81.455 268.89 81.8997 269.518 82.467L271.772 79.868C271.404 79.5 271.006 79.1627 270.576 78.856C270.147 78.5494 269.679 78.2887 269.173 78.074C268.667 77.8594 268.1 77.6907 267.471 77.568C266.858 77.4454 266.176 77.384 265.424 77.384C264.182 77.384 263.048 77.6064 262.02 78.051C260.993 78.4804 260.111 79.0784 259.375 79.845C258.639 80.5964 258.064 81.478 257.65 82.49C257.236 83.4867 257.029 84.56 257.029 85.71V85.756C257.029 86.906 257.236 87.987 257.65 88.999C258.064 90.011 258.639 90.8927 259.375 91.644C260.111 92.38 260.985 92.9627 261.997 93.392C263.009 93.8214 264.106 94.036 265.286 94.036C266.068 94.036 266.774 93.967 267.402 93.829C268.031 93.7064 268.606 93.5224 269.127 93.277C269.664 93.0164 270.155 92.7097 270.599 92.357C271.044 92.0044 271.473 91.6057 271.887 91.161Z" fill="#787878"/>
<path d="M292.732 85.71V85.664C292.732 84.514 292.517 83.4407 292.088 82.444C291.674 81.432 291.083 80.558 290.317 79.822C289.565 79.0707 288.668 78.4804 287.626 78.051C286.583 77.6064 285.441 77.384 284.199 77.384C282.957 77.384 281.807 77.6064 280.749 78.051C279.706 78.4804 278.801 79.0784 278.035 79.845C277.283 80.5964 276.693 81.478 276.264 82.49C275.834 83.4867 275.62 84.56 275.62 85.71V85.756C275.62 86.906 275.827 87.987 276.241 88.999C276.67 89.9957 277.26 90.8697 278.012 91.621C278.778 92.357 279.683 92.9474 280.726 93.392C281.768 93.8214 282.911 94.036 284.153 94.036C285.395 94.036 286.537 93.8214 287.58 93.392C288.638 92.9474 289.542 92.3494 290.294 91.598C291.06 90.8314 291.658 89.9497 292.088 88.953C292.517 87.941 292.732 86.86 292.732 85.71ZM289.029 85.756C289.029 86.446 288.906 87.0977 288.661 87.711C288.431 88.309 288.101 88.838 287.672 89.298C287.258 89.758 286.752 90.1184 286.154 90.379C285.556 90.6397 284.904 90.77 284.199 90.77C283.478 90.77 282.819 90.6397 282.221 90.379C281.638 90.103 281.124 89.735 280.68 89.275C280.25 88.815 279.913 88.2784 279.668 87.665C279.438 87.0517 279.323 86.4 279.323 85.71V85.664C279.323 84.974 279.438 84.33 279.668 83.732C279.913 83.1187 280.243 82.582 280.657 82.122C281.086 81.662 281.592 81.3017 282.175 81.041C282.773 80.7804 283.432 80.65 284.153 80.65C284.858 80.65 285.51 80.788 286.108 81.064C286.706 81.3247 287.219 81.685 287.649 82.145C288.093 82.605 288.431 83.1417 288.661 83.755C288.906 84.3684 289.029 85.02 289.029 85.71V85.756Z" fill="#787878"/>
<path d="M311.79 93.76V77.66H308.294V87.573L300.75 77.66H297.484V93.76H300.98V83.525L308.777 93.76H311.79Z" fill="#787878"/>
<path d="M328.903 88.999V88.953C328.903 88.2477 328.788 87.642 328.558 87.136C328.343 86.63 328.013 86.193 327.569 85.825C327.139 85.4417 326.603 85.1197 325.959 84.859C325.33 84.583 324.609 84.3377 323.797 84.123C323.107 83.939 322.532 83.778 322.072 83.64C321.627 83.502 321.274 83.3564 321.014 83.203C320.753 83.0497 320.569 82.881 320.462 82.697C320.37 82.4977 320.324 82.2677 320.324 82.007V81.961C320.324 81.5624 320.492 81.2327 320.83 80.972C321.182 80.696 321.704 80.558 322.394 80.558C323.084 80.558 323.774 80.7037 324.464 80.995C325.154 81.271 325.859 81.6544 326.58 82.145L328.42 79.477C327.592 78.8177 326.679 78.3117 325.683 77.959C324.701 77.6064 323.62 77.43 322.44 77.43C321.612 77.43 320.853 77.545 320.163 77.775C319.473 78.005 318.875 78.3347 318.369 78.764C317.878 79.1934 317.495 79.707 317.219 80.305C316.943 80.8877 316.805 81.547 316.805 82.283V82.329C316.805 83.1264 316.927 83.7934 317.173 84.33C317.433 84.8667 317.794 85.319 318.254 85.687C318.714 86.0397 319.273 86.3387 319.933 86.584C320.592 86.8294 321.328 87.0517 322.141 87.251C322.815 87.4197 323.36 87.5807 323.774 87.734C324.203 87.8874 324.533 88.0407 324.763 88.194C325.008 88.3474 325.169 88.516 325.246 88.7C325.338 88.8687 325.384 89.068 325.384 89.298V89.344C325.384 89.8194 325.177 90.195 324.763 90.471C324.364 90.7317 323.797 90.862 323.061 90.862C322.141 90.862 321.29 90.6857 320.508 90.333C319.741 89.9804 318.99 89.505 318.254 88.907L316.161 91.414C317.127 92.288 318.2 92.9397 319.381 93.369C320.561 93.783 321.765 93.99 322.992 93.99C323.866 93.99 324.663 93.8827 325.384 93.668C326.104 93.438 326.725 93.116 327.247 92.702C327.768 92.2727 328.174 91.7514 328.466 91.138C328.757 90.5094 328.903 89.7964 328.903 88.999Z" fill="#787878"/>
<path d="M347.364 86.745V77.66H343.822V86.883C343.822 88.171 343.515 89.137 342.902 89.781C342.288 90.425 341.437 90.747 340.349 90.747C339.26 90.747 338.409 90.4174 337.796 89.758C337.182 89.0834 336.876 88.0867 336.876 86.768V77.66H333.334V86.86C333.334 89.2367 333.955 91.023 335.197 92.219C336.439 93.415 338.141 94.013 340.303 94.013C341.376 94.013 342.35 93.8674 343.224 93.576C344.098 93.2694 344.841 92.817 345.455 92.219C346.068 91.6057 346.536 90.8467 346.858 89.942C347.195 89.0374 347.364 87.9717 347.364 86.745Z" fill="#787878"/>
<path d="M364.15 93.76V90.54H356.123V77.66H352.581V93.76H364.15Z" fill="#787878"/>
<path d="M380.622 80.926V77.66H367.282V80.926H372.181V93.76H375.723V80.926H380.622Z" fill="#787878"/>
<path d="M400.642 93.76L393.742 77.545H390.476L383.576 93.76H387.187L388.659 90.149H395.467L396.939 93.76H400.642ZM394.202 87.021H389.924L392.063 81.8L394.202 87.021Z" fill="#787878"/>
<path d="M419.043 93.76V77.66H415.547V87.573L408.003 77.66H404.737V93.76H408.233V83.525L416.03 93.76H419.043Z" fill="#787878"/>
<path d="M436.707 80.926V77.66H423.367V80.926H428.266V93.76H431.808V80.926H436.707Z" fill="#787878"/>
<path d="M452.68 88.999V88.953C452.68 88.2477 452.565 87.642 452.335 87.136C452.12 86.63 451.79 86.193 451.346 85.825C450.916 85.4417 450.38 85.1197 449.736 84.859C449.107 84.583 448.386 84.3377 447.574 84.123C446.884 83.939 446.309 83.778 445.849 83.64C445.404 83.502 445.051 83.3564 444.791 83.203C444.53 83.0497 444.346 82.881 444.239 82.697C444.147 82.4977 444.101 82.2677 444.101 82.007V81.961C444.101 81.5624 444.269 81.2327 444.607 80.972C444.959 80.696 445.481 80.558 446.171 80.558C446.861 80.558 447.551 80.7037 448.241 80.995C448.931 81.271 449.636 81.6544 450.357 82.145L452.197 79.477C451.369 78.8177 450.456 78.3117 449.46 77.959C448.478 77.6064 447.397 77.43 446.217 77.43C445.389 77.43 444.63 77.545 443.94 77.775C443.25 78.005 442.652 78.3347 442.146 78.764C441.655 79.1934 441.272 79.707 440.996 80.305C440.72 80.8877 440.582 81.547 440.582 82.283V82.329C440.582 83.1264 440.704 83.7934 440.95 84.33C441.21 84.8667 441.571 85.319 442.031 85.687C442.491 86.0397 443.05 86.3387 443.71 86.584C444.369 86.8294 445.105 87.0517 445.918 87.251C446.592 87.4197 447.137 87.5807 447.551 87.734C447.98 87.8874 448.31 88.0407 448.54 88.194C448.785 88.3474 448.946 88.516 449.023 88.7C449.115 88.8687 449.161 89.068 449.161 89.298V89.344C449.161 89.8194 448.954 90.195 448.54 90.471C448.141 90.7317 447.574 90.862 446.838 90.862C445.918 90.862 445.067 90.6857 444.285 90.333C443.518 89.9804 442.767 89.505 442.031 88.907L439.938 91.414C440.904 92.288 441.977 92.9397 443.158 93.369C444.338 93.783 445.542 93.99 446.769 93.99C447.643 93.99 448.44 93.8827 449.161 93.668C449.881 93.438 450.502 93.116 451.024 92.702C451.545 92.2727 451.951 91.7514 452.243 91.138C452.534 90.5094 452.68 89.7964 452.68 88.999Z" fill="#787878"/>
<path d="M1.16991 7.57873C-0.389971 6.01885 -0.389968 3.4898 1.16991 1.92992C2.72979 0.37004 5.25885 0.37004 6.81873 1.92992L39.1425 34.2537C40.7024 35.8136 40.7024 38.3426 39.1425 39.9025C37.5826 41.4624 35.0536 41.4624 33.4937 39.9025L1.16991 7.57873Z" fill="url(#paint8_linear)"/>
<path d="M85.8061 1.92992C87.366 0.370039 89.895 0.370041 91.4549 1.92992C93.0148 3.4898 93.0148 6.01886 91.4549 7.57874L59.1311 39.9025C57.5713 41.4624 55.0422 41.4624 53.4823 39.9025C51.9224 38.3426 51.9224 35.8136 53.4823 34.2537L85.8061 1.92992Z" fill="url(#paint9_linear)"/>
<path d="M33.4937 54.2423C35.0536 52.6824 37.5826 52.6824 39.1425 54.2423C40.7024 55.8022 40.7024 58.3312 39.1425 59.8911L6.81872 92.2149C5.25884 93.7748 2.72979 93.7748 1.16991 92.2149C-0.389969 90.655 -0.389969 88.126 1.16991 86.5661L33.4937 54.2423Z" fill="url(#paint10_linear)"/>
<path d="M53.4823 59.8911C51.9224 58.3312 51.9224 55.8022 53.4823 54.2423C55.0422 52.6824 57.5713 52.6824 59.1311 54.2423L91.4549 86.5661C93.0148 88.126 93.0148 90.655 91.4549 92.2149C89.8951 93.7748 87.366 93.7748 85.8061 92.2149L53.4823 59.8911Z" fill="url(#paint11_linear)"/>
<defs>
<linearGradient id="paint0_linear" x1="116" y1="3.26002" x2="454" y2="30.76" gradientUnits="userSpaceOnUse">
<stop stop-color="#2D4154"/>
<stop offset="1" stop-color="#3382B9"/>
</linearGradient>
<linearGradient id="paint1_linear" x1="116" y1="3.26002" x2="454" y2="30.76" gradientUnits="userSpaceOnUse">
<stop stop-color="#2D4154"/>
<stop offset="1" stop-color="#3382B9"/>
</linearGradient>
<linearGradient id="paint2_linear" x1="116" y1="3.26002" x2="454" y2="30.76" gradientUnits="userSpaceOnUse">
<stop stop-color="#2D4154"/>
<stop offset="1" stop-color="#3382B9"/>
</linearGradient>
<linearGradient id="paint3_linear" x1="116" y1="3.26002" x2="454" y2="30.76" gradientUnits="userSpaceOnUse">
<stop stop-color="#2D4154"/>
<stop offset="1" stop-color="#3382B9"/>
</linearGradient>
<linearGradient id="paint4_linear" x1="116" y1="3.26002" x2="454" y2="30.76" gradientUnits="userSpaceOnUse">
<stop stop-color="#2D4154"/>
<stop offset="1" stop-color="#3382B9"/>
</linearGradient>
<linearGradient id="paint5_linear" x1="116" y1="3.26002" x2="454" y2="30.76" gradientUnits="userSpaceOnUse">
<stop stop-color="#2D4154"/>
<stop offset="1" stop-color="#3382B9"/>
</linearGradient>
<linearGradient id="paint6_linear" x1="116" y1="3.26002" x2="454" y2="30.76" gradientUnits="userSpaceOnUse">
<stop stop-color="#2D4154"/>
<stop offset="1" stop-color="#3382B9"/>
</linearGradient>
<linearGradient id="paint7_linear" x1="116" y1="3.26002" x2="454" y2="30.76" gradientUnits="userSpaceOnUse">
<stop stop-color="#2D4154"/>
<stop offset="1" stop-color="#3382B9"/>
</linearGradient>
<linearGradient id="paint8_linear" x1="-4.5" y1="38.26" x2="98.5" y2="53.26" gradientUnits="userSpaceOnUse">
<stop stop-color="#F46D46"/>
<stop offset="1" stop-color="#EFA749"/>
</linearGradient>
<linearGradient id="paint9_linear" x1="-4.5" y1="38.26" x2="98.5" y2="53.26" gradientUnits="userSpaceOnUse">
<stop stop-color="#F46D46"/>
<stop offset="1" stop-color="#EFA749"/>
</linearGradient>
<linearGradient id="paint10_linear" x1="-4.5" y1="38.26" x2="98.5" y2="53.26" gradientUnits="userSpaceOnUse">
<stop stop-color="#F46D46"/>
<stop offset="1" stop-color="#EFA749"/>
</linearGradient>
<linearGradient id="paint11_linear" x1="-4.5" y1="38.26" x2="98.5" y2="53.26" gradientUnits="userSpaceOnUse">
<stop stop-color="#F46D46"/>
<stop offset="1" stop-color="#EFA749"/>
</linearGradient>
</defs>
</svg>
