<svg width="631" height="93" viewBox="0 0 631 93" fill="none" xmlns="http://www.w3.org/2000/svg">
<path d="M52.4943 40.5038C50.9768 38.9671 50.9768 36.4755 52.4943 34.9387L84.3667 2.66111C85.8841 1.12434 88.3444 1.12434 89.8619 2.66111C91.3794 4.19787 91.3794 6.68945 89.8619 8.22621L57.9895 40.5038C56.4721 42.0406 54.0118 42.0406 52.4943 40.5038Z" fill="url(#paint0_linear)"/>
<path d="M1.86001 1.15257C3.37748 -0.384191 5.83778 -0.38419 7.35525 1.15257L39.2276 33.4302C40.7451 34.9669 40.7451 37.4585 39.2276 38.9953C37.7102 40.5321 35.2499 40.5321 33.7324 38.9953L1.86001 6.71768C0.342545 5.18092 0.342544 2.68933 1.86001 1.15257Z" fill="url(#paint1_linear)"/>
<path d="M1.1381 91.7819C-0.379368 90.2451 -0.379367 87.7535 1.1381 86.2168L33.0105 53.9392C34.5279 52.4024 36.9882 52.4024 38.5057 53.9392C40.0232 55.4759 40.0232 57.9675 38.5057 59.5043L6.63334 91.7819C5.11587 93.3186 2.65557 93.3186 1.1381 91.7819Z" fill="url(#paint2_linear)"/>
<path d="M51.7724 54.0047C53.2898 52.4679 55.7501 52.4679 57.2676 54.0047L89.14 86.2823C90.6574 87.8191 90.6574 90.3107 89.14 91.8474C87.6225 93.3842 85.1622 93.3842 83.6447 91.8474L51.7724 59.5698C50.2549 58.0331 50.2549 55.5415 51.7724 54.0047Z" fill="url(#paint3_linear)"/>
<path d="M163.424 51V41.136H136.064V30.552H159.824V20.688H136.064V10.464H163.064V0.59999H125.048V51H163.424Z" fill="url(#paint4_linear)"/>
<path d="M207.626 51L194.018 31.2L207.05 12.408H195.602L188.33 23.64L181.13 12.408H169.394L182.426 31.416L168.89 51H180.338L188.114 38.976L195.89 51H207.626Z" fill="url(#paint5_linear)"/>
<path d="M254.713 31.776V31.632C254.713 28.416 254.209 25.584 253.201 23.136C252.241 20.64 250.945 18.552 249.313 16.872C247.681 15.144 245.809 13.848 243.697 12.984C241.585 12.12 239.401 11.688 237.145 11.688C234.265 11.688 231.865 12.288 229.945 13.488C228.073 14.64 226.465 16.128 225.121 17.952V12.408H214.177V62.52H225.121V45.96C226.417 47.496 228.001 48.84 229.873 49.992C231.793 51.144 234.217 51.72 237.145 51.72C239.449 51.72 241.657 51.288 243.769 50.424C245.881 49.56 247.729 48.288 249.313 46.608C250.945 44.88 252.241 42.792 253.201 40.344C254.209 37.848 254.713 34.992 254.713 31.776ZM243.769 31.776C243.769 33.408 243.505 34.872 242.977 36.168C242.497 37.464 241.825 38.592 240.961 39.552C240.097 40.464 239.089 41.184 237.937 41.712C236.833 42.192 235.633 42.432 234.337 42.432C233.041 42.432 231.817 42.192 230.665 41.712C229.561 41.184 228.577 40.464 227.713 39.552C226.897 38.592 226.225 37.464 225.697 36.168C225.217 34.824 224.977 33.36 224.977 31.776V31.632C224.977 30.048 225.217 28.608 225.697 27.312C226.225 25.968 226.897 24.84 227.713 23.928C228.577 22.968 229.561 22.248 230.665 21.768C231.817 21.24 233.041 20.976 234.337 20.976C235.633 20.976 236.833 21.24 237.937 21.768C239.089 22.248 240.097 22.968 240.961 23.928C241.825 24.84 242.497 25.968 242.977 27.312C243.505 28.608 243.769 30.048 243.769 31.632V31.776Z" fill="url(#paint6_linear)"/>
<path d="M298.763 32.784V32.64C298.763 29.904 298.379 27.288 297.611 24.792C296.891 22.248 295.739 20.016 294.155 18.096C292.619 16.128 290.675 14.568 288.323 13.416C285.971 12.264 283.187 11.688 279.971 11.688C277.139 11.688 274.547 12.216 272.195 13.272C269.891 14.328 267.899 15.768 266.219 17.592C264.539 19.416 263.219 21.552 262.259 24C261.347 26.448 260.891 29.04 260.891 31.776V31.92C260.891 34.896 261.395 37.608 262.403 40.056C263.411 42.456 264.803 44.544 266.579 46.32C268.403 48.096 270.539 49.464 272.987 50.424C275.483 51.384 278.171 51.864 281.051 51.864C284.555 51.864 287.603 51.24 290.195 49.992C292.787 48.696 294.995 46.92 296.819 44.664L290.555 39.12C289.019 40.512 287.531 41.52 286.091 42.144C284.651 42.768 283.019 43.08 281.195 43.08C278.747 43.08 276.683 42.456 275.003 41.208C273.371 39.912 272.291 38.016 271.763 35.52H298.619C298.667 34.992 298.691 34.536 298.691 34.152C298.739 33.768 298.763 33.312 298.763 32.784ZM288.107 28.68H271.619C272.051 26.184 272.963 24.192 274.355 22.704C275.795 21.216 277.667 20.472 279.971 20.472C282.275 20.472 284.123 21.24 285.515 22.776C286.907 24.264 287.771 26.232 288.107 28.68Z" fill="url(#paint7_linear)"/>
<path d="M330.175 23.136V11.688C326.911 11.544 324.319 12.264 322.399 13.848C320.479 15.432 318.967 17.544 317.863 20.184V12.408H306.919V51H317.863V36.744C317.863 32.088 318.895 28.656 320.959 26.448C323.071 24.24 325.951 23.136 329.599 23.136H330.175Z" fill="url(#paint8_linear)"/>
<path d="M358.685 49.416V40.632C357.005 41.544 355.205 42 353.285 42C350.933 42 349.757 40.752 349.757 38.256V21.768H358.829V12.408H349.757V2.54399H338.813V12.408H334.205V21.768H338.813V40.056C338.813 42.312 339.077 44.184 339.605 45.672C340.181 47.112 340.949 48.288 341.909 49.2C342.917 50.112 344.093 50.736 345.437 51.072C346.829 51.456 348.365 51.648 350.045 51.648C351.869 51.648 353.477 51.432 354.869 51C356.261 50.616 357.533 50.088 358.685 49.416Z" fill="url(#paint9_linear)"/>
<path d="M395.192 39.264V39.12C395.192 37.344 394.832 35.832 394.112 34.584C393.392 33.336 392.48 32.28 391.376 31.416C390.272 30.552 389.024 29.832 387.632 29.256C386.24 28.632 384.872 28.104 383.528 27.672C382.472 27.336 381.464 27 380.504 26.664C379.592 26.328 378.776 25.992 378.056 25.656C377.336 25.272 376.76 24.888 376.328 24.504C375.896 24.072 375.68 23.592 375.68 23.064V22.92C375.68 22.152 376.016 21.528 376.688 21.048C377.36 20.52 378.368 20.256 379.712 20.256C381.104 20.256 382.712 20.592 384.536 21.264C386.36 21.888 388.232 22.752 390.152 23.856L394.328 16.296C392.216 14.904 389.888 13.824 387.344 13.056C384.848 12.24 382.376 11.832 379.928 11.832C377.96 11.832 376.112 12.096 374.384 12.624C372.704 13.152 371.216 13.944 369.92 15C368.672 16.056 367.664 17.352 366.896 18.888C366.176 20.376 365.816 22.104 365.816 24.072V24.216C365.816 26.088 366.152 27.672 366.824 28.968C367.544 30.264 368.456 31.368 369.56 32.28C370.664 33.144 371.888 33.864 373.232 34.44C374.624 34.968 375.992 35.424 377.336 35.808C378.392 36.144 379.4 36.456 380.36 36.744C381.32 37.032 382.16 37.344 382.88 37.68C383.648 37.968 384.248 38.328 384.68 38.76C385.112 39.192 385.328 39.696 385.328 40.272V40.416C385.328 41.28 384.944 41.976 384.176 42.504C383.456 43.032 382.304 43.296 380.72 43.296C378.896 43.296 376.928 42.912 374.816 42.144C372.752 41.376 370.664 40.224 368.552 38.688L363.872 45.888C366.464 47.904 369.176 49.392 372.008 50.352C374.888 51.264 377.696 51.72 380.432 51.72C382.496 51.72 384.416 51.48 386.192 51C388.016 50.472 389.6 49.704 390.944 48.696C392.288 47.688 393.32 46.416 394.04 44.88C394.808 43.296 395.192 41.424 395.192 39.264Z" fill="url(#paint10_linear)"/>
<path d="M449.607 0.23999L421.959 32.28L423.759 40.128H448.383V51H458.967V40.128H465.735V31.128H458.967V0.23999H449.607ZM448.383 31.128H434.991L448.383 15.432V31.128Z" fill="url(#paint11_linear)"/>
<path d="M541.641 0.59999H529.041L516.801 20.832L504.777 0.59999H491.817L511.185 31.128V51H522.273V30.912L541.641 0.59999Z" fill="url(#paint12_linear)"/>
<path d="M587.276 31.776V31.632C587.276 28.848 586.748 26.256 585.692 23.856C584.636 21.408 583.172 19.296 581.3 17.52C579.476 15.696 577.292 14.28 574.748 13.272C572.204 12.216 569.444 11.688 566.468 11.688C563.444 11.688 560.66 12.216 558.116 13.272C555.572 14.328 553.364 15.768 551.492 17.592C549.62 19.416 548.156 21.552 547.1 24C546.044 26.4 545.516 28.992 545.516 31.776V31.92C545.516 34.704 546.044 37.32 547.1 39.768C548.156 42.168 549.596 44.28 551.42 46.104C553.292 47.88 555.5 49.296 558.044 50.352C560.588 51.36 563.348 51.864 566.324 51.864C569.348 51.864 572.132 51.336 574.676 50.28C577.22 49.224 579.428 47.784 581.3 45.96C583.172 44.136 584.636 42.024 585.692 39.624C586.748 37.176 587.276 34.56 587.276 31.776ZM576.476 31.92C576.476 33.36 576.236 34.728 575.756 36.024C575.324 37.272 574.676 38.376 573.812 39.336C572.948 40.296 571.892 41.064 570.644 41.64C569.444 42.168 568.052 42.432 566.468 42.432C564.932 42.432 563.54 42.144 562.292 41.568C561.092 40.992 560.036 40.224 559.124 39.264C558.212 38.256 557.516 37.128 557.036 35.88C556.556 34.584 556.316 33.216 556.316 31.776V31.632C556.316 30.192 556.532 28.848 556.964 27.6C557.444 26.304 558.116 25.176 558.98 24.216C559.844 23.256 560.876 22.512 562.076 21.984C563.324 21.408 564.74 21.12 566.324 21.12C567.812 21.12 569.18 21.408 570.428 21.984C571.676 22.56 572.756 23.352 573.668 24.36C574.58 25.32 575.276 26.448 575.756 27.744C576.236 28.992 576.476 30.336 576.476 31.776V31.92Z" fill="url(#paint13_linear)"/>
<path d="M630.265 51V12.408H619.321V33.936C619.321 36.528 618.697 38.496 617.449 39.84C616.249 41.136 614.593 41.784 612.481 41.784C610.369 41.784 608.737 41.136 607.585 39.84C606.433 38.496 605.857 36.528 605.857 33.936V12.408H594.913V37.392C594.913 41.856 596.041 45.36 598.297 47.904C600.601 50.448 603.841 51.72 608.017 51.72C609.409 51.72 610.657 51.552 611.761 51.216C612.865 50.88 613.873 50.424 614.785 49.848C615.697 49.272 616.513 48.624 617.233 47.904C618.001 47.136 618.697 46.344 619.321 45.528V51H630.265Z" fill="url(#paint14_linear)"/>
<path d="M125 92.2331H133.558C136.664 92.2331 138.893 90.4159 138.893 87.7858C138.893 85.9687 137.802 84.4384 135.906 83.5777C137.352 82.8126 138.181 81.5932 138.181 79.9195C138.181 77.5285 136.166 75.8069 133.25 75.8069H125V92.2331ZM128.485 82.43V78.8196H132.373C133.677 78.8196 134.602 79.5847 134.602 80.6128C134.602 81.6649 133.677 82.43 132.373 82.43H128.485ZM128.485 89.2204V85.2036H132.918C134.317 85.2036 135.313 86.0404 135.313 87.212C135.313 88.3836 134.317 89.2204 132.918 89.2204H128.485Z" fill="#787878"/>
<path d="M158.504 92.52C162.819 92.52 165.877 89.4595 165.877 85.1318V75.8069H162.369V84.9884C162.369 87.5228 160.756 89.3161 158.504 89.3161C156.228 89.3161 154.616 87.5228 154.616 84.9884V75.8069H151.131V85.1318C151.131 89.4595 154.166 92.52 158.504 92.52Z" fill="#787878"/>
<path d="M184.936 92.52C188.918 92.52 191.265 90.4399 191.265 87.3076C191.265 84.2711 188.942 83.219 185.433 82.43C182.92 81.8562 181.948 81.4736 181.948 80.2781C181.948 79.2978 182.849 78.5088 184.343 78.5088C185.908 78.5088 187.543 79.1543 188.99 80.3259L190.815 77.7915C189.155 76.3569 187.093 75.52 184.438 75.52C180.882 75.52 178.416 77.6002 178.416 80.6368C178.416 83.8168 180.858 84.7971 184.295 85.5861C186.785 86.16 187.733 86.5186 187.733 87.6902C187.733 88.7183 186.832 89.5313 185.078 89.5313C183.015 89.5313 181.261 88.7183 179.72 87.3794L177.705 89.7943C179.601 91.5636 182.114 92.52 184.936 92.52Z" fill="#787878"/>
<path d="M203.542 92.2331H207.05V75.8069H203.542V92.2331Z" fill="#787878"/>
<path d="M220.163 92.2331H223.648V81.6171L231.496 92.2331H235.004V75.8069H231.496V86.423L223.648 75.8069H220.163V92.2331Z" fill="#787878"/>
<path d="M260.642 78.987V75.8069H248.101V92.2331H260.642V89.0531H251.61V85.4427H259.789V82.2626H251.61V78.987H260.642Z" fill="#787878"/>
<path d="M279.173 92.52C283.156 92.52 285.503 90.4399 285.503 87.3076C285.503 84.2711 283.179 83.219 279.671 82.43C277.158 81.8562 276.186 81.4736 276.186 80.2781C276.186 79.2978 277.087 78.5088 278.58 78.5088C280.145 78.5088 281.781 79.1543 283.227 80.3259L285.052 77.7915C283.393 76.3569 281.33 75.52 278.675 75.52C275.119 75.52 272.653 77.6002 272.653 80.6368C272.653 83.8168 275.095 84.7971 278.533 85.5861C281.022 86.16 281.97 86.5186 281.97 87.6902C281.97 88.7183 281.069 89.5313 279.315 89.5313C277.252 89.5313 275.498 88.7183 273.957 87.3794L271.942 89.7943C273.839 91.5636 276.352 92.52 279.173 92.52Z" fill="#787878"/>
<path d="M303.895 92.52C307.878 92.52 310.225 90.4399 310.225 87.3076C310.225 84.2711 307.902 83.219 304.393 82.43C301.88 81.8562 300.908 81.4736 300.908 80.2781C300.908 79.2978 301.809 78.5088 303.303 78.5088C304.868 78.5088 306.503 79.1543 307.95 80.3259L309.775 77.7915C308.115 76.3569 306.053 75.52 303.398 75.52C299.841 75.52 297.376 77.6002 297.376 80.6368C297.376 83.8168 299.818 84.7971 303.255 85.5861C305.745 86.16 306.693 86.5186 306.693 87.6902C306.693 88.7183 305.792 89.5313 304.038 89.5313C301.975 89.5313 300.221 88.7183 298.68 87.3794L296.665 89.7943C298.561 91.5636 301.074 92.52 303.895 92.52Z" fill="#787878"/>
<path d="M363.151 92.52C365.616 92.52 367.892 91.4441 369.481 89.7704L366.944 87.475C365.996 88.5749 364.644 89.3161 363.151 89.3161C360.424 89.3161 358.101 86.8773 358.101 84.0081C358.101 81.1628 360.424 78.724 363.151 78.724C364.644 78.724 365.996 79.4652 366.944 80.565L369.481 78.2697C367.892 76.5721 365.616 75.52 363.151 75.52C358.48 75.52 354.497 79.3934 354.497 84.0081C354.497 88.6227 358.48 92.52 363.151 92.52Z" fill="#787878"/>
<path d="M389.031 92.52C393.749 92.52 397.684 88.6227 397.684 84.0081C397.684 79.3934 393.749 75.52 389.031 75.52C384.361 75.52 380.378 79.3934 380.378 84.0081C380.378 88.6227 384.361 92.52 389.031 92.52ZM389.031 89.3161C386.305 89.3161 383.981 86.8773 383.981 84.0081C383.981 81.1628 386.305 78.724 389.031 78.724C391.781 78.724 394.104 81.1628 394.104 84.0081C394.104 86.8773 391.781 89.3161 389.031 89.3161Z" fill="#787878"/>
<path d="M410.12 92.2331H413.605V81.6171L421.452 92.2331H424.961V75.8069H421.452V86.423L413.605 75.8069H410.12V92.2331Z" fill="#787878"/>
<path d="M444.221 92.52C448.204 92.52 450.551 90.4399 450.551 87.3076C450.551 84.2711 448.228 83.219 444.719 82.43C442.206 81.8562 441.234 81.4736 441.234 80.2781C441.234 79.2978 442.135 78.5088 443.628 78.5088C445.193 78.5088 446.829 79.1543 448.275 80.3259L450.101 77.7915C448.441 76.3569 446.379 75.52 443.723 75.52C440.167 75.52 437.701 77.6002 437.701 80.6368C437.701 83.8168 440.143 84.7971 443.581 85.5861C446.07 86.16 447.019 86.5186 447.019 87.6902C447.019 88.7183 446.118 89.5313 444.363 89.5313C442.301 89.5313 440.546 88.7183 439.005 87.3794L436.99 89.7943C438.887 91.5636 441.4 92.52 444.221 92.52Z" fill="#787878"/>
<path d="M470.129 92.52C474.444 92.52 477.502 89.4595 477.502 85.1318V75.8069H473.994V84.9884C473.994 87.5228 472.381 89.3161 470.129 89.3161C467.853 89.3161 466.241 87.5228 466.241 84.9884V75.8069H462.756V85.1318C462.756 89.4595 465.791 92.52 470.129 92.52Z" fill="#787878"/>
<path d="M493.787 89.0531V75.8069H490.278V92.2331H501.895V89.0531H493.787Z" fill="#787878"/>
<path d="M517.626 92.2331H521.135V78.987H526.208V75.8069H512.553V78.987H517.626V92.2331Z" fill="#787878"/>
<path d="M548.989 92.2331H552.925L546.287 75.8069H542.375L535.737 92.2331H539.648L540.692 89.6508H547.946L548.989 92.2331ZM541.901 86.6621L544.319 80.6607L546.737 86.6621H541.901Z" fill="#787878"/>
<path d="M564.707 92.2331H568.192V81.6171L576.039 92.2331H579.548V75.8069H576.039V86.423L568.192 75.8069H564.707V92.2331Z" fill="#787878"/>
<path d="M596.864 92.2331H600.373V78.987H605.447V75.8069H591.791V78.987H596.864V92.2331Z" fill="#787878"/>
<path d="M623.67 92.52C627.653 92.52 630 90.4399 630 87.3076C630 84.2711 627.677 83.219 624.168 82.43C621.655 81.8562 620.683 81.4736 620.683 80.2781C620.683 79.2978 621.584 78.5088 623.077 78.5088C624.642 78.5088 626.278 79.1543 627.724 80.3259L629.549 77.7915C627.89 76.3569 625.827 75.52 623.172 75.52C619.616 75.52 617.15 77.6002 617.15 80.6368C617.15 83.8168 619.592 84.7971 623.03 85.5861C625.519 86.16 626.468 86.5186 626.468 87.6902C626.468 88.7183 625.567 89.5313 623.812 89.5313C621.75 89.5313 619.995 88.7183 618.454 87.3794L616.439 89.7943C618.336 91.5636 620.849 92.52 623.67 92.52Z" fill="#787878"/>
<defs>
<linearGradient id="paint0_linear" x1="0" y1="46.5" x2="91" y2="46.5" gradientUnits="userSpaceOnUse">
<stop stop-color="#F46B45"/>
<stop offset="1" stop-color="#EEA849"/>
</linearGradient>
<linearGradient id="paint1_linear" x1="0" y1="46.5" x2="91" y2="46.5" gradientUnits="userSpaceOnUse">
<stop stop-color="#F46B45"/>
<stop offset="1" stop-color="#EEA849"/>
</linearGradient>
<linearGradient id="paint2_linear" x1="0" y1="46.5" x2="91" y2="46.5" gradientUnits="userSpaceOnUse">
<stop stop-color="#F46B45"/>
<stop offset="1" stop-color="#EEA849"/>
</linearGradient>
<linearGradient id="paint3_linear" x1="0" y1="46.5" x2="91" y2="46.5" gradientUnits="userSpaceOnUse">
<stop stop-color="#F46B45"/>
<stop offset="1" stop-color="#EEA849"/>
</linearGradient>
<linearGradient id="paint4_linear" x1="160.5" y1="3.50001" x2="643" y2="45" gradientUnits="userSpaceOnUse">
<stop stop-color="#2D4053"/>
<stop offset="1" stop-color="#3497D9"/>
</linearGradient>
<linearGradient id="paint5_linear" x1="160.5" y1="3.50001" x2="643" y2="45" gradientUnits="userSpaceOnUse">
<stop stop-color="#2D4053"/>
<stop offset="1" stop-color="#3497D9"/>
</linearGradient>
<linearGradient id="paint6_linear" x1="160.5" y1="3.50001" x2="643" y2="45" gradientUnits="userSpaceOnUse">
<stop stop-color="#2D4053"/>
<stop offset="1" stop-color="#3497D9"/>
</linearGradient>
<linearGradient id="paint7_linear" x1="160.5" y1="3.50001" x2="643" y2="45" gradientUnits="userSpaceOnUse">
<stop stop-color="#2D4053"/>
<stop offset="1" stop-color="#3497D9"/>
</linearGradient>
<linearGradient id="paint8_linear" x1="160.5" y1="3.50001" x2="643" y2="45" gradientUnits="userSpaceOnUse">
<stop stop-color="#2D4053"/>
<stop offset="1" stop-color="#3497D9"/>
</linearGradient>
<linearGradient id="paint9_linear" x1="160.5" y1="3.50001" x2="643" y2="45" gradientUnits="userSpaceOnUse">
<stop stop-color="#2D4053"/>
<stop offset="1" stop-color="#3497D9"/>
</linearGradient>
<linearGradient id="paint10_linear" x1="160.5" y1="3.50001" x2="643" y2="45" gradientUnits="userSpaceOnUse">
<stop stop-color="#2D4053"/>
<stop offset="1" stop-color="#3497D9"/>
</linearGradient>
<linearGradient id="paint11_linear" x1="160.5" y1="3.50001" x2="643" y2="45" gradientUnits="userSpaceOnUse">
<stop stop-color="#2D4053"/>
<stop offset="1" stop-color="#3497D9"/>
</linearGradient>
<linearGradient id="paint12_linear" x1="160.5" y1="3.50001" x2="643" y2="45" gradientUnits="userSpaceOnUse">
<stop stop-color="#2D4053"/>
<stop offset="1" stop-color="#3497D9"/>
</linearGradient>
<linearGradient id="paint13_linear" x1="160.5" y1="3.50001" x2="643" y2="45" gradientUnits="userSpaceOnUse">
<stop stop-color="#2D4053"/>
<stop offset="1" stop-color="#3497D9"/>
</linearGradient>
<linearGradient id="paint14_linear" x1="160.5" y1="3.50001" x2="643" y2="45" gradientUnits="userSpaceOnUse">
<stop stop-color="#2D4053"/>
<stop offset="1" stop-color="#3497D9"/>
</linearGradient>
</defs>
</svg>
