<svg id="Capa_1" enable-background="new 0 0 512.013 512.013" height="512" viewBox="0 0 512.013 512.013" width="512" xmlns="http://www.w3.org/2000/svg"><g><g><path d="m292.636 55.694 42.874-44.051c7.423-7.626 20.333-4.167 22.948 6.149l15.104 59.587 59.156-16.713c10.241-2.893 19.692 6.557 16.799 16.799l-16.713 59.156 59.587 15.104c10.316 2.615 13.775 15.525 6.149 22.948l-44.051 42.874 44.051 42.874c7.626 7.423 4.167 20.333-6.149 22.948l-59.587 15.104 16.713 59.156c2.893 10.241-6.557 19.692-16.799 16.799l-59.156-16.713-15.104 59.587c-2.615 10.316-15.525 13.775-22.948 6.149l-42.874-44.051-42.874 44.051c-7.423 7.626-20.333 4.167-22.948-6.149l-15.104-59.587-59.156 16.713c-10.241 2.893-19.692-6.557-16.799-16.799l16.713-59.156-59.587-15.104c-10.316-2.615-13.775-15.525-6.149-22.948l44.051-42.874-44.051-42.874c-7.626-7.423-4.167-20.333 6.149-22.948l59.587-15.104-16.713-59.156c-2.893-10.241 6.557-19.692 16.799-16.799l59.156 16.713 15.104-59.587c2.615-10.316 15.525-13.775 22.948-6.149z" fill="#fcb44d"/><path d="m498.538 260.42c7.622 7.418 4.165 20.335-6.152 22.948l-59.576 15.108 16.701 59.154c2.899 10.235-6.547 19.695-16.796 16.796l-59.154-16.714-15.108 59.589c-2.613 10.317-15.517 13.774-22.948 6.152l-8.847-9.092 20.92-91.916c.871-3.797 4.737-6.098 8.48-5.036l39.077 11.039c5.131 1.456 9.854-3.28 8.412-8.398l-11.093-39.241c-1.048-3.689 1.157-7.513 4.873-8.453l39.54-10.018c5.159-1.307 6.887-7.758 3.076-11.474l-29.237-28.447c-2.736-2.668-2.736-7.078 0-9.745l29.237-28.447c3.811-3.716 2.083-10.167-3.076-11.474l-39.54-10.018c-3.702-.939-5.921-4.764-4.873-8.452l11.093-39.241c1.443-5.118-3.28-9.841-8.412-8.398l-39.227 11.079c-3.689 1.048-7.513-1.171-8.452-4.886l-22.703-90.16 10.753-11.039c7.432-7.622 20.335-4.165 22.948 6.152l15.108 59.589 59.154-16.714c10.249-2.886 19.695 6.56 16.796 16.796l-16.701 59.154 59.576 15.108c10.317 2.613 13.774 15.53 6.152 22.948l-44.045 42.875z" fill="#fb9927"/></g><g><g><g><g><path d="m381.619 309.857h-3.935c18.828 0 34.091-15.263 34.091-34.091s-15.263-34.091-34.091-34.091h-107.11l17.545-40.667c.808-1.872 1.434-3.818 1.87-5.81l3.506-16.012c6.849-31.273-16.966-60.867-48.98-60.867-9.836 0-18.461 6.567-21.077 16.049l-13.063 47.343-51.384 91.916h-76.977v186.338h116.01l9.392 8.45c9.156 8.263 21.011 12.81 33.344 12.81h123.288c15.377 0 27.842-12.465 27.842-27.842s-12.465-27.842-27.842-27.842h10.383c15.291 0 27.686-12.396 27.686-27.686 0-15.291-12.396-27.686-27.686-27.686h7.189c16.655 0 30.156-13.502 30.156-30.157-.001-16.653-13.502-30.155-30.157-30.155z" fill="#fda79b"/><g fill="#fc9085"><path d="m411.781 340.009c0 16.661-13.51 30.159-30.16 30.159h-7.196c7.654 0 14.568 3.092 19.577 8.113 5.009 5.009 8.113 11.934 8.113 19.577 0 15.286-12.393 27.679-27.69 27.679h-10.383c15.38 0 27.843 12.475 27.843 27.843 0 15.38-12.463 27.843-27.843 27.843h-34.992c15.38 0 27.843-12.464 27.843-27.843 0-15.368-12.464-27.843-27.843-27.843h10.382c15.297 0 27.69-12.393 27.69-27.679 0-7.643-3.104-14.568-8.113-19.577-5.009-5.021-11.923-8.113-19.577-8.113h7.196c16.649 0 30.148-13.498 30.148-30.159 0-16.649-13.498-30.148-30.148-30.148h-3.939c18.825 0 34.087-15.262 34.087-34.098 0-18.825-15.262-34.087-34.087-34.087h34.992c18.825 0 34.098 15.262 34.098 34.087 0 18.836-15.274 34.098-34.098 34.098h3.939c16.651.001 30.161 13.499 30.161 30.148z"/><path d="m293.494 179.182-3.504 16.015c-.435 1.999-1.058 3.939-1.87 5.809l-17.543 40.671h-34.992l17.543-40.671c.8-1.87 1.435-3.81 1.87-5.809l3.504-16.015c5.197-23.74-7.278-46.503-27.596-56.098.118-.106.235-.2.364-.294 3.716-2.822 8.325-4.468 13.24-4.468 32.017 0 55.839 29.595 48.984 60.86z"/></g></g></g><g><path d="m9.334 253.198h87.534c6.121 0 11.083 4.962 11.083 11.083v205.86c0 6.121-4.962 11.083-11.083 11.083h-87.534z" fill="#64b9fc"/><path d="m107.954 264.277v205.863c0 6.122-4.969 11.081-11.081 11.081h-35.51c6.122 0 11.081-4.959 11.081-11.081v-205.863c0-6.112-4.959-11.081-11.081-11.081h35.509c6.113 0 11.082 4.969 11.082 11.081z" fill="#31a7fb"/></g></g><g><g><circle cx="157.275" cy="436.324" fill="#83d167" r="68.189"/><path d="m225.459 436.32c0 37.662-30.52 68.192-68.182 68.192-9.632 0-18.806-2-27.111-5.602.806.031 1.622.051 2.439.051 34.591 0 62.631-28.05 62.631-62.641s-28.04-62.631-62.631-62.631c-.816 0-1.632.02-2.439.051 8.306-3.602 17.479-5.602 27.111-5.602 37.662 0 68.182 30.53 68.182 68.182z" fill="#54c032"/></g><g><g><g><path d="m158.745 469.907c-3.524 0-7.047-1.344-9.735-4.032l-26.187-26.187c-5.377-5.376-5.377-14.093 0-19.47 5.376-5.377 14.094-5.377 19.47 0l16.452 16.452 57.301-57.301c5.378-5.376 14.094-5.375 19.47 0 5.377 5.377 5.377 14.094 0 19.47l-67.036 67.036c-2.688 2.688-6.212 4.032-9.735 4.032z" fill="#f8f3f1"/></g></g><g><path d="m503.771 255.049-38.528-37.506 38.526-37.493c5.556-5.403 7.677-13.098 5.674-20.584-2.004-7.491-7.689-13.103-15.21-15.013l-52.119-13.207 14.624-51.746c2.105-7.458.09-15.184-5.391-20.665-5.481-5.48-13.206-7.496-20.666-5.391l-51.743 14.616-1.798-7.099c-1.017-4.016-5.097-6.445-9.112-5.429-4.015 1.017-6.446 5.097-5.429 9.112l3.69 14.57c.497 1.962 1.767 3.641 3.52 4.653s3.84 1.272 5.79.723l59.159-16.709c3.117-.879 5.221.8 5.983 1.561.762.762 2.44 2.871 1.562 5.981l-16.72 59.16c-.551 1.949-.29 4.037.722 5.79s2.69 3.023 4.653 3.52l59.587 15.1c3.142.797 4.129 3.308 4.408 4.35.278 1.04.675 3.702-1.644 5.956l-44.05 42.87c-1.451 1.412-2.269 3.35-2.269 5.375s.818 3.963 2.269 5.375l44.052 42.883c2.318 2.253 1.919 4.915 1.641 5.955-.279 1.04-1.266 3.544-4.405 4.338l-59.59 15.11c-1.962.498-3.64 1.767-4.652 3.521-1.012 1.753-1.272 3.841-.722 5.789l16.72 59.158c.878 3.113-.8 5.221-1.562 5.982-.761.761-2.869 2.435-5.982 1.553l-21.919-6.188c4.054-6.006 6.436-13.228 6.436-21.003 0-12.916-6.535-24.333-16.472-31.119 10.002-7.603 16.472-19.625 16.472-33.129 0-22.933-18.658-41.591-41.591-41.591h-95.707l13.026-30.195c.995-2.304 1.772-4.719 2.311-7.177l3.506-16.012c3.753-17.136-.402-34.801-11.399-48.467-10.998-13.667-27.366-21.504-44.907-21.504-13.165 0-24.805 8.863-28.307 21.554l-12.822 46.469-17.114 30.615c-2.021 3.616-.729 8.185 2.887 10.206s8.186.728 10.206-2.887l17.557-31.406c.294-.525.523-1.084.684-1.665l13.063-47.343c1.713-6.208 7.407-10.544 13.847-10.544 12.977 0 25.085 5.798 33.221 15.908s11.209 23.178 8.433 35.854l-3.506 16.011c-.333 1.522-.815 3.017-1.431 4.444l-15.591 36.138h-30.056c-4.142 0-7.5 3.358-7.5 7.5s3.358 7.5 7.5 7.5h142.099c14.662 0 26.591 11.929 26.591 26.591 0 14.663-11.929 26.591-26.591 26.591-.514 0-33.068 0-33.068 0-4.142 0-7.5 3.358-7.5 7.5s3.358 7.5 7.5 7.5h37.002c12.493 0 22.656 10.164 22.656 22.657s-10.164 22.657-22.656 22.657h-43.252c-4.142 0-7.5 3.358-7.5 7.5s3.358 7.5 7.5 7.5h36.064c11.131 0 20.186 9.056 20.186 20.186 0 11.131-9.055 20.186-20.186 20.186h-48.564c-4.142 0-7.5 3.358-7.5 7.5s3.358 7.5 7.5 7.5h38.181c11.216 0 20.342 9.125 20.342 20.342s-9.125 20.342-20.342 20.342h-123.289c-5.512 0-10.964-1.08-16.028-3.15 5.248-10.294 8.228-21.929 8.228-34.254 0-7.234-1.03-14.386-3.04-21.282l10.899-10.898c4.018-4.017 6.23-9.357 6.23-15.038s-2.212-11.021-6.229-15.039c-8.292-8.29-21.783-8.291-30.076 0l-4.534 4.534c-13.664-11.61-30.875-17.967-48.939-17.967-15.241 0-29.697 4.635-41.82 12.695v-92.2h43.542c2.717 0 5.221-1.469 6.546-3.84l16.109-28.816c2.021-3.616.729-8.185-2.887-10.206s-8.185-.729-10.206 2.887l-13.962 24.976h-39.142v-1.845c0-5.874-2.748-11.111-7.017-14.518l27.578-26.848c1.45-1.412 2.268-3.351 2.268-5.375s-.818-3.962-2.269-5.375l-44.048-42.87c-2.317-2.256-1.919-4.922-1.64-5.963s1.266-3.548 4.399-4.344l59.59-15.1c1.962-.497 3.641-1.767 4.653-3.52s1.273-3.842.722-5.79l-16.72-59.157c-.878-3.113.8-5.222 1.562-5.984s2.873-2.44 5.981-1.562l59.16 16.71c1.947.55 4.035.289 5.789-.723 1.753-1.012 3.022-2.69 3.52-4.652l15.1-59.577c.797-3.142 3.307-4.129 4.35-4.408 1.04-.278 3.701-.675 5.957 1.644l42.88 44.05c1.412 1.451 3.35 2.269 5.375 2.269s3.962-.818 5.375-2.269l42.871-44.052c2.253-2.317 4.917-1.919 5.955-1.642 1.042.279 3.552 1.267 4.349 4.406l2.48 9.78c1.018 4.015 5.101 6.446 9.113 5.427 4.015-1.018 6.445-5.099 5.427-9.113l-2.48-9.783c-1.909-7.518-7.521-13.203-15.012-15.207-7.486-2.003-15.181.118-20.583 5.672l-37.495 38.528-37.503-38.526c-5.402-5.556-13.097-7.677-20.584-5.674-7.491 2.004-13.103 7.689-15.012 15.21l-13.207 52.111-51.746-14.616c-7.457-2.104-15.183-.089-20.664 5.391-5.48 5.48-7.496 13.206-5.39 20.667l14.624 51.743-52.123 13.208c-7.513 1.908-13.195 7.516-15.201 15.002-2.006 7.487.112 15.185 5.666 20.593l38.528 37.496-28.925 28.159h-81.773c-4.142 0-7.5 3.358-7.5 7.5s3.358 7.5 7.5 7.5h87.54c1.974 0 3.58 1.606 3.58 3.58v122.111c-7.338 8.32-12.915 18.31-16.042 29.453-1.119 3.988 1.207 8.128 5.195 9.248.678.19 1.359.281 2.03.281 3.277 0 6.288-2.166 7.217-5.476 7.313-26.063 31.336-44.266 58.419-44.266 14.069 0 27.488 4.814 38.286 13.62l-36.811 36.811-11.148-11.148c-4.017-4.018-9.357-6.23-15.039-6.23s-11.022 2.212-15.038 6.229c-4.017 4.017-6.229 9.358-6.229 15.039s2.212 11.021 6.229 15.038l26.187 26.186c4.016 4.017 9.357 6.229 15.039 6.229s11.023-2.212 15.038-6.229l43.554-43.554c.411 2.87.623 5.776.623 8.699 0 33.464-27.226 60.69-60.69 60.69-27.355 0-51.44-18.425-58.57-44.807-1.081-3.999-5.201-6.366-9.197-5.284-3.999 1.081-6.364 5.198-5.284 9.197 1.691 6.258 4.151 12.153 7.254 17.604h-82.143c-4.142 0-7.5 3.358-7.5 7.5s3.358 7.5 7.5 7.5h87.54c1.761 0 3.47-.262 5.12-.738 13.985 14.932 33.824 24.028 55.28 24.028 23.976 0 45.369-11.219 59.247-28.669 7.561 3.528 15.851 5.382 24.242 5.382h123.289c19.487 0 35.342-15.854 35.342-35.342 0-9.243-3.567-17.669-9.397-23.974 11.618-5.753 19.624-17.736 19.624-31.554 0-9.612-3.875-18.337-10.144-24.694.131-.071.254-.152.384-.225l30.82 8.701c1.951.552 3.92.823 5.863.823 5.482 0 10.754-2.154 14.802-6.199 5.485-5.479 7.502-13.206 5.395-20.67l-14.625-51.745 52.116-13.215c7.518-1.901 13.205-7.507 15.211-14.996 2.009-7.488-.111-15.186-5.668-20.589zm-340.596 205.523c-1.183 1.183-2.756 1.834-4.431 1.834s-3.248-.652-4.432-1.835l-26.188-26.187c-1.184-1.184-1.835-2.757-1.835-4.431s.652-3.248 1.837-4.433c1.183-1.184 2.757-1.835 4.431-1.835s3.248.652 4.432 1.836l16.452 16.452c2.929 2.929 7.678 2.929 10.606 0l57.301-57.3c2.444-2.444 6.42-2.443 8.864-.001 1.184 1.184 1.836 2.758 1.836 4.432s-.652 3.247-1.836 4.431z"/><path d="m51.937 458.279c4.142 0 7.5-3.358 7.5-7.5s-3.358-7.5-7.5-7.5h-11.833c-4.142 0-7.5 3.358-7.5 7.5s3.358 7.5 7.5 7.5z"/></g></g></g></g></g></svg>