<svg width="777" height="107" viewBox="0 0 777 107" fill="none" xmlns="http://www.w3.org/2000/svg">
<path d="M106.848 105.12L63.648 3.6H43.2L0 105.12H22.608L31.824 82.512H74.448L83.664 105.12H106.848ZM66.528 62.928H39.744L53.136 30.24L66.528 62.928Z" fill="url(#paint0_linear)"/>
<path d="M197.718 105.12V0H175.83V38.016C173.238 34.944 170.022 32.256 166.182 29.952C162.438 27.648 157.638 26.496 151.782 26.496C147.174 26.496 142.758 27.36 138.534 29.088C134.31 30.816 130.566 33.408 127.302 36.864C124.134 40.224 121.542 44.4 119.526 49.392C117.606 54.288 116.646 59.952 116.646 66.384V66.672C116.646 73.104 117.606 78.816 119.526 83.808C121.542 88.704 124.182 92.88 127.446 96.336C130.71 99.696 134.454 102.24 138.678 103.968C142.902 105.696 147.27 106.56 151.782 106.56C157.542 106.56 162.294 105.408 166.038 103.104C169.878 100.704 173.142 97.68 175.83 94.032V105.12H197.718ZM176.118 66.672C176.118 69.84 175.59 72.768 174.534 75.456C173.574 78.048 172.23 80.304 170.502 82.224C168.87 84.048 166.902 85.488 164.598 86.544C162.39 87.504 159.99 87.984 157.398 87.984C154.806 87.984 152.358 87.504 150.054 86.544C147.846 85.488 145.878 84.048 144.15 82.224C142.422 80.304 141.03 78.048 139.974 75.456C139.014 72.768 138.534 69.84 138.534 66.672V66.384C138.534 63.12 139.014 60.192 139.974 57.6C141.03 55.008 142.422 52.8 144.15 50.976C145.878 49.056 147.846 47.616 150.054 46.656C152.358 45.6 154.806 45.072 157.398 45.072C159.99 45.072 162.39 45.6 164.598 46.656C166.902 47.616 168.87 49.056 170.502 50.976C172.23 52.8 173.574 55.056 174.534 57.744C175.59 60.336 176.118 63.216 176.118 66.384V66.672Z" fill="url(#paint1_linear)"/>
<path d="M291.002 27.936H268.25L250.826 79.632L233.546 27.936H210.362L240.746 105.696H260.618L291.002 27.936Z" fill="url(#paint2_linear)"/>
<path d="M375.617 68.688V68.4C375.617 62.928 374.849 57.696 373.313 52.704C371.873 47.616 369.569 43.152 366.401 39.312C363.329 35.376 359.441 32.256 354.737 29.952C350.033 27.648 344.465 26.496 338.033 26.496C332.369 26.496 327.185 27.552 322.481 29.664C317.873 31.776 313.889 34.656 310.529 38.304C307.169 41.952 304.529 46.224 302.609 51.12C300.785 56.016 299.873 61.2 299.873 66.672V66.96C299.873 72.912 300.881 78.336 302.897 83.232C304.913 88.032 307.697 92.208 311.249 95.76C314.897 99.312 319.169 102.048 324.065 103.968C329.057 105.888 334.433 106.848 340.193 106.848C347.201 106.848 353.297 105.6 358.481 103.104C363.665 100.512 368.081 96.96 371.729 92.448L359.201 81.36C356.129 84.144 353.153 86.16 350.273 87.408C347.393 88.656 344.129 89.28 340.481 89.28C335.585 89.28 331.457 88.032 328.097 85.536C324.833 82.944 322.673 79.152 321.617 74.16H375.329C375.425 73.104 375.473 72.192 375.473 71.424C375.569 70.656 375.617 69.744 375.617 68.688ZM354.305 60.48H321.329C322.193 55.488 324.017 51.504 326.801 48.528C329.681 45.552 333.425 44.064 338.033 44.064C342.641 44.064 346.337 45.6 349.121 48.672C351.905 51.648 353.633 55.584 354.305 60.48Z" fill="url(#paint3_linear)"/>
<path d="M438.442 49.392V26.496C431.914 26.208 426.73 27.648 422.89 30.816C419.05 33.984 416.026 38.208 413.818 43.488V27.936H391.93V105.12H413.818V76.608C413.818 67.296 415.882 60.432 420.01 56.016C424.234 51.6 429.994 49.392 437.29 49.392H438.442Z" fill="url(#paint4_linear)"/>
<path d="M495.461 101.952V84.384C492.101 86.208 488.501 87.12 484.661 87.12C479.957 87.12 477.605 84.624 477.605 79.632V46.656H495.749V27.936H477.605V8.208H455.717V27.936H446.501V46.656H455.717V83.232C455.717 87.744 456.245 91.488 457.301 94.464C458.453 97.344 459.989 99.696 461.909 101.52C463.925 103.344 466.277 104.592 468.965 105.264C471.749 106.032 474.821 106.416 478.181 106.416C481.829 106.416 485.045 105.984 487.829 105.12C490.613 104.352 493.157 103.296 495.461 101.952Z" fill="url(#paint5_linear)"/>
<path d="M578.267 105.12V60.336C578.267 49.872 575.531 41.712 570.059 35.856C564.587 30 555.851 27.072 543.851 27.072C537.323 27.072 531.755 27.648 527.147 28.8C522.539 29.952 518.123 31.44 513.899 33.264L519.371 49.968C522.923 48.624 526.283 47.616 529.451 46.944C532.715 46.176 536.459 45.792 540.683 45.792C546.155 45.792 550.283 46.992 553.067 49.392C555.851 51.792 557.243 55.296 557.243 59.904V61.2C554.459 60.24 551.579 59.472 548.603 58.896C545.723 58.32 542.315 58.032 538.379 58.032C533.771 58.032 529.547 58.56 525.707 59.616C521.963 60.576 518.699 62.064 515.915 64.08C513.227 66.096 511.115 68.64 509.579 71.712C508.043 74.784 507.275 78.432 507.275 82.656V82.944C507.275 86.784 507.947 90.192 509.291 93.168C510.731 96.048 512.651 98.496 515.051 100.512C517.451 102.528 520.235 104.064 523.403 105.12C526.667 106.08 530.123 106.56 533.771 106.56C539.147 106.56 543.707 105.696 547.451 103.968C551.195 102.144 554.411 99.744 557.099 96.768V105.12H578.267ZM557.531 77.904C557.531 81.936 555.947 85.2 552.779 87.696C549.707 90.192 545.579 91.44 540.395 91.44C536.843 91.44 533.963 90.624 531.755 88.992C529.547 87.36 528.443 85.056 528.443 82.08V81.792C528.443 78.336 529.787 75.696 532.475 73.872C535.163 72.048 538.859 71.136 543.563 71.136C546.251 71.136 548.747 71.424 551.051 72C553.451 72.48 555.611 73.152 557.531 74.016V77.904Z" fill="url(#paint6_linear)"/>
<path d="M643.614 49.392V26.496C637.086 26.208 631.902 27.648 628.062 30.816C624.222 33.984 621.198 38.208 618.99 43.488V27.936H597.102V105.12H618.99V76.608C618.99 67.296 621.054 60.432 625.182 56.016C629.406 51.6 635.166 49.392 642.462 49.392H643.614Z" fill="url(#paint7_linear)"/>
<path d="M737.065 66.672V66.384C737.065 60.816 736.009 55.632 733.897 50.832C731.785 45.936 728.857 41.712 725.113 38.16C721.465 34.512 717.097 31.68 712.009 29.664C706.921 27.552 701.401 26.496 695.449 26.496C689.401 26.496 683.833 27.552 678.745 29.664C673.657 31.776 669.241 34.656 665.497 38.304C661.753 41.952 658.825 46.224 656.713 51.12C654.601 55.92 653.545 61.104 653.545 66.672V66.96C653.545 72.528 654.601 77.76 656.713 82.656C658.825 87.456 661.705 91.68 665.353 95.328C669.097 98.88 673.513 101.712 678.601 103.824C683.689 105.84 689.209 106.848 695.161 106.848C701.209 106.848 706.777 105.792 711.865 103.68C716.953 101.568 721.369 98.688 725.113 95.04C728.857 91.392 731.785 87.168 733.897 82.368C736.009 77.472 737.065 72.24 737.065 66.672ZM715.465 66.96C715.465 69.84 714.985 72.576 714.025 75.168C713.161 77.664 711.865 79.872 710.137 81.792C708.409 83.712 706.297 85.248 703.801 86.4C701.401 87.456 698.617 87.984 695.449 87.984C692.377 87.984 689.593 87.408 687.097 86.256C684.697 85.104 682.585 83.568 680.761 81.648C678.937 79.632 677.545 77.376 676.585 74.88C675.625 72.288 675.145 69.552 675.145 66.672V66.384C675.145 63.504 675.577 60.816 676.441 58.32C677.401 55.728 678.745 53.472 680.473 51.552C682.201 49.632 684.265 48.144 686.665 47.088C689.161 45.936 691.993 45.36 695.161 45.36C698.137 45.36 700.873 45.936 703.369 47.088C705.865 48.24 708.025 49.824 709.849 51.84C711.673 53.76 713.065 56.016 714.025 58.608C714.985 61.104 715.465 63.792 715.465 66.672V66.96Z" fill="url(#paint8_linear)"/>
<path d="M762.408 106.936C758.472 106.936 755.16 105.592 752.472 102.904C749.784 100.216 748.44 96.856 748.44 92.824C748.44 88.696 749.784 85.384 752.472 82.888C755.16 80.296 758.472 79 762.408 79C766.344 79 769.656 80.296 772.344 82.888C775.032 85.384 776.376 88.696 776.376 92.824C776.376 96.856 775.032 100.216 772.344 102.904C769.656 105.592 766.344 106.936 762.408 106.936Z" fill="#51290C"/>
<defs>
<linearGradient id="paint0_linear" x1="370.044" y1="-4.88001" x2="370.544" y2="105.12" gradientUnits="userSpaceOnUse">
<stop stop-color="#F37417"/>
<stop offset="1" stop-color="#DA4516"/>
</linearGradient>
<linearGradient id="paint1_linear" x1="370.044" y1="-4.88001" x2="370.544" y2="105.12" gradientUnits="userSpaceOnUse">
<stop stop-color="#F37417"/>
<stop offset="1" stop-color="#DA4516"/>
</linearGradient>
<linearGradient id="paint2_linear" x1="370.044" y1="-4.88001" x2="370.544" y2="105.12" gradientUnits="userSpaceOnUse">
<stop stop-color="#F37417"/>
<stop offset="1" stop-color="#DA4516"/>
</linearGradient>
<linearGradient id="paint3_linear" x1="370.044" y1="-4.88001" x2="370.544" y2="105.12" gradientUnits="userSpaceOnUse">
<stop stop-color="#F37417"/>
<stop offset="1" stop-color="#DA4516"/>
</linearGradient>
<linearGradient id="paint4_linear" x1="370.044" y1="-4.88001" x2="370.544" y2="105.12" gradientUnits="userSpaceOnUse">
<stop stop-color="#F37417"/>
<stop offset="1" stop-color="#DA4516"/>
</linearGradient>
<linearGradient id="paint5_linear" x1="370.044" y1="-4.88001" x2="370.544" y2="105.12" gradientUnits="userSpaceOnUse">
<stop stop-color="#F37417"/>
<stop offset="1" stop-color="#DA4516"/>
</linearGradient>
<linearGradient id="paint6_linear" x1="370.044" y1="-4.88001" x2="370.544" y2="105.12" gradientUnits="userSpaceOnUse">
<stop stop-color="#F37417"/>
<stop offset="1" stop-color="#DA4516"/>
</linearGradient>
<linearGradient id="paint7_linear" x1="370.044" y1="-4.88001" x2="370.544" y2="105.12" gradientUnits="userSpaceOnUse">
<stop stop-color="#F37417"/>
<stop offset="1" stop-color="#DA4516"/>
</linearGradient>
<linearGradient id="paint8_linear" x1="370.044" y1="-4.88001" x2="370.544" y2="105.12" gradientUnits="userSpaceOnUse">
<stop stop-color="#F37417"/>
<stop offset="1" stop-color="#DA4516"/>
</linearGradient>
</defs>
</svg>
