<?xml version="1.0" encoding="utf-8"?>
<!-- Generator: Adobe Illustrator 23.0.3, SVG Export Plug-In . SVG Version: 6.00 Build 0)  -->
<svg version="1.1"
	 id="logosvg.com" inkscape:version="0.92.4 (5da689c313, 2019-01-14)" sodipodi:docname="Asian_Football_Confederation_(logo).svg" xmlns:cc="http://creativecommons.org/ns#" xmlns:dc="http://purl.org/dc/elements/1.1/" xmlns:inkscape="http://www.inkscape.org/namespaces/inkscape" xmlns:rdf="http://www.w3.org/1999/02/22-rdf-syntax-ns#" xmlns:sodipodi="http://sodipodi.sourceforge.net/DTD/sodipodi-0.dtd" xmlns:svg="http://www.w3.org/2000/svg"
	 xmlns="http://www.w3.org/2000/svg" xmlns:xlink="http://www.w3.org/1999/xlink" x="0px" y="0px" viewBox="0 0 400 300"
	 style="enable-background:new 0 0 400 300;" xml:space="preserve">
<style type="text/css">
	.st0{fill:#FFC72C;}
	.st1{fill:#002395;}
</style>
<path id="yellow" class="st0" d="M319.2,107.7c0.9,0.6,1.6,1.2,2.5,1.9c0,0.6,0,1.2,0,1.9c-0.9-0.3-1.8-0.5-2.7-0.7
	c-0.5-0.8-1-1.6-1.5-2.4C318.1,108.1,318.6,107.8,319.2,107.7z M314.2,109L314.2,109c-2.6,0.3-5.4,0.7-8.6,1.4
	c-0.1,2.2-0.3,4.6-0.5,7.2c2.8,2.7,5.5,5.4,8.3,8.3c3.5-0.9,6.5-1.6,9.3-2.2c-0.1-3.1-0.3-5.9-0.6-8.5C319.5,113,317,111,314.2,109z
	 M324.6,111.9L324.6,111.9c0.3,1.7,0.6,3.3,0.9,5.1c1.6,1.1,2.6,1.8,4.4,3.1c0.6-0.9,0.9-1.9,1.4-2.7c-1-1.7-1.6-2.6-2.7-4.2
	C327.5,112.8,326.1,112.3,324.6,111.9z M324,108.4c-0.4-0.1-0.8-0.2-1.2-0.4c0,0.3,0.1,0.6,0.1,1c0.5,0.4,1,0.8,1.5,1.2
	c0.4,0.1,0.8,0.3,1.2,0.4c-0.1-0.4-0.2-0.7-0.2-1C324.9,109.2,324.5,108.8,324,108.4z M321.9,107.2c0-0.2-0.1-0.2-0.1-0.4
	c-0.3-0.2-0.6-0.5-0.9-0.7c-0.2-0.1-0.5-0.2-0.7-0.2c0,0.1,0.1,0.3,0.1,0.5c0.3,0.2,0.6,0.5,0.9,0.7
	C321.4,107.1,321.7,107.1,321.9,107.2z M250.4,118.6C250.4,118.6,250.4,118.6,250.4,118.6C250.4,118.6,250.4,118.6,250.4,118.6
	L250.4,118.6z M291,96.7c-0.5,1-1,2.6-1.7,4.6c4.4,1.9,9.2,4.5,14.3,7.7c5.5-1.1,10.2-1.6,14.2-1.6c-0.3-1.7-0.5-2.7-1.1-4.1
	C308.9,99.2,301,96.7,291,96.7z M255.8,128.2c3.6-2.2,7.5-4.3,11.9-6.3c1.3-4.4,2.5-8.1,3.9-11.6c-2.8-1.7-6.4-3.4-8.6-4.2
	c-4.2,3-7.6,6.2-10.2,9.4c-1.1,2.5-1.7,4.1-2.6,7.1C251.6,124.1,253.4,125.9,255.8,128.2z M286.7,102.4c1.2-2.6,1.7-3.6,2.9-5.6
	c-9.9,0.7-17.6,3.2-25.5,8.3c1.8,0.5,4.3,1.5,7,2.7C275.9,105.8,281.8,103.8,286.7,102.4z M333.7,141.5L333.7,141.5L333.7,141.5
	L333.7,141.5z M329.6,135.8L329.6,135.8L329.6,135.8L329.6,135.8z M331.2,156.4c-0.2,1-0.6,1.9-0.9,2.9c0.4,0.7,0.9,1.3,1.4,2
	c0.7-0.3,1.2-0.7,1.9-1c0.3-0.9,0.6-1.8,0.9-2.7c-0.4-0.6-0.8-1.3-1.2-2h0C332.6,155.8,332,156.1,331.2,156.4z M331.9,143.3
	c0.3,1.2,0.5,2.3,0.7,3.5c0.8,0.1,1.6,0.1,2.4,0.1c0.2-1.1,0.4-2.2,0.6-3.2c-0.6-0.7-1.2-1.5-1.9-2.2
	C333.1,142.1,332.5,142.7,331.9,143.3z M329.6,135.8c-0.3,1.2-0.7,2.3-1,3.6c0.9,1,1.7,2,2.5,3c0.8-0.7,1.5-1.2,2.2-1.9
	c-0.3-1.3-0.5-2.7-0.9-4C331.6,136.3,330.7,136,329.6,135.8z M324,123.6L324,123.6c0,0.5,0.1,1,0.1,1.6c0.5,0.3,1,0.6,1.5,1
	c0.3-0.4,0.5-0.7,0.7-1c-0.3-0.6-0.6-1.1-0.9-1.6C325,123.6,324.5,123.6,324,123.6z M326.9,134c0.3,0.5,0.6,0.9,1,1.4
	c0.4-0.1,0.8-0.2,1.2-0.2c0.1-0.6,0.2-1.1,0.2-1.6c-0.3-0.5-0.6-0.9-1-1.4h0c-0.4,0.1-0.9,0.2-1.4,0.2
	C326.9,133,326.9,133.5,326.9,134z M328.6,147.9L328.6,147.9L328.6,147.9L328.6,147.9z M330,152.7c0.1-1,0.2-2,0.2-3
	c-0.6-0.6-1-1.1-1.6-1.7c-0.7,0.4-1.4,0.8-2.1,1.2c-0.1,1-0.2,2-0.4,3c0.7,0.6,1.3,1.2,1.9,1.7C328.7,153.5,329.3,153.1,330,152.7z
	 M244.6,138.9c1.1-7,2.8-12.9,5.8-20.3c-4.5,6.5-7.5,14.1-8.6,22.3C242.9,140,243.6,139.6,244.6,138.9z M308.7,156.8
	C308.7,156.8,308.7,156.8,308.7,156.8C308.7,156.8,308.7,156.8,308.7,156.8L308.7,156.8z M311.5,164.4L311.5,164.4
	c-0.9,0.2-1.8,0.3-2.7,0.5c-0.2,0.9-0.4,1.9-0.6,2.7c0.8,0.4,1.4,0.7,2.2,1.1c0.7-0.7,1.4-1.3,2.1-2
	C312.1,165.9,311.8,165.2,311.5,164.4z M311.6,161.1c0-0.9-0.1-1.9-0.1-2.9c-0.9-0.5-1.8-1-2.7-1.5c-0.8,0.5-1.6,0.9-2.5,1.4
	c0.1,1,0.2,1.9,0.2,2.9c0.9,0.5,1.7,1,2.6,1.5C309.9,162,310.8,161.6,311.6,161.1z M320.8,138.6c-3.3-4.5-6.7-8.9-10.4-13.2
	c-4.8,1.5-10,3.1-15.5,5.1c0.4,5.6,0.9,11.6,1.2,17.9c6,1.6,11.5,3.1,16.8,4.5C315.8,147.9,318.5,143.1,320.8,138.6z M325.5,153.2
	c-1.7,1.5-3.4,3.1-5.2,4.7c0.6,2.4,1.1,4.6,1.5,6.8c2.1-0.2,4-0.5,5.8-0.7c0.8-2.3,1.4-4.5,2.1-6.8
	C328.4,155.9,327.1,154.6,325.5,153.2z M304.6,95.6C304.6,95.6,304.6,95.6,304.6,95.6C304.6,95.6,304.6,95.6,304.6,95.6L304.6,95.6z
	 M315.3,165.7c-1,1-2,2-3,3c0.2,1.3,0.4,2.4,0.6,3.6c1.2,0.2,2.2,0.4,3.4,0.6c1-0.9,1.9-1.9,2.9-2.9c-0.1-1.2-0.2-2.3-0.4-3.6
	C317.7,166.2,316.5,166,315.3,165.7z M367.5,124.9c-3-0.2-14.6-1.2-17.9-1.7c-0.6-0.1-0.8-0.4-0.4-1.1c2.2-3.3,8.2-10.2,9.7-11.7
	c0.7-0.7,0.2-1.1-0.5-0.6c-2.4,1.7-9.2,6.3-12.1,7.7c-0.9,0.4-1.1,0.4-1.4-0.5c-0.7-2.7-1.7-10.9-1.9-14.2c-0.1-0.8-0.8-0.8-0.9-0.1
	c-0.1,3-0.8,11.3-1.5,13.8c-0.3,1-0.7,1-1.2,0.2c-3.5-5-14.9-17.7-34.9-21.1c23.2,5.7,40.4,26.7,40.4,51.7c0,15-6.3,28.5-16.3,38.2
	c20.6-17.9,21.3-41.4,18.7-53.1c-0.2-0.9,0.1-1,1-0.5c2.9,1.7,7.9,5.4,10.1,7c0.5,0.4,0.9-0.1,0.5-0.5c-2.8-3-5.9-6.2-7.8-8.9
	c-0.7-1-0.5-1.3,0.5-1.5c4.2-1,13.2-2,15.9-2.2C368.4,125.6,368.3,125,367.5,124.9z M303.5,111.1c-4.9-3.2-9.5-5.8-13.8-7.8
	c-5.3,1.3-10.3,2.8-15.7,5c-1.5,4.2-3.1,9-4.8,14.7c4,3,8.5,6.3,13.7,10.3c6.5-2.6,12.8-4.8,18.9-6.7
	C302.5,120.6,303.1,115.5,303.5,111.1z M273.7,132.5c-0.3,1.4-0.5,2.7-0.7,4.1c1,0.8,1.9,1.7,3,2.6c1.3-0.6,2.7-1.2,4.1-1.7
	c0.3-1.5,0.5-2.7,0.7-4.1c-1.1-0.8-2.1-1.7-3.1-2.5C276.3,131.5,275,132,273.7,132.5z M252.4,178.7l3-2l0.1-15.8
	c-5.4-4-8.9-6.3-13.9-11.1C242.1,160.6,246.3,171.4,252.4,178.7z M252.5,127.7c-1.8,0.9-2.9,1.6-4.9,2.7c-0.6,2.2-1.2,4.7-1.5,7.5
	c1.3,1.4,2.5,2.4,3.9,3.7c1.8-0.9,3.5-1.7,5.3-2.6c0.5-2.6,0.8-4.7,1.4-7.1C255.4,130.5,253.9,129.1,252.5,127.7z M248.4,148.8
	c0.1-2,0.1-3.7,0.2-5.7c-1.1-1.2-2-2.3-3.1-3.2c-1.4,0.9-2.5,1.6-3.7,2.5c-0.2,2-0.4,3.9-0.4,6c1.3,1.1,2.2,1.7,3.4,2.5
	C246.2,150,247.1,149.5,248.4,148.8z M267.1,124L267.1,124L267.1,124L267.1,124z M245.6,139.9L245.6,139.9L245.6,139.9L245.6,139.9z
	 M273.2,128.7c-2.2-1.7-4.2-3.3-6.1-4.7c-2.7,1.3-5.2,2.5-7.6,3.9c-0.8,2.8-1.4,5.5-2,8.5c1.7,1.7,3.5,3.4,5.6,5.3
	c2.6-1.2,5.3-2.4,8.2-3.7C271.9,134.7,272.5,131.7,273.2,128.7z M273.7,138.9L273.7,138.9L273.7,138.9L273.7,138.9z M264.1,143.2
	c0.1,3.7,0.2,7.3,0.5,11.1c3.1,1.1,6.4,2.1,9.9,3.2c1.9-3.2,3.9-6.3,6.1-9.7c-2.5-3.1-4.8-6-7-8.9
	C270.2,140.4,267.2,141.8,264.1,143.2z M273.5,158.8L273.5,158.8c-0.6,1-1,2-1.5,3c0.8,0.9,1.5,1.7,2.4,2.6c1-0.4,2.1-0.8,3.1-1.2
	c-0.2-1.2-0.3-2.4-0.5-3.6C275.9,159.2,274.7,159.1,273.5,158.8z"/>
<path id="blue" inkscape:connector-curvature="0" class="st1" d="M278.8,88.8c-33.8,0-61.2,27.4-61.2,61.2
	c0,33.8,27.4,61.3,61.2,61.3c14.5,0,27.9-5.1,38.4-13.6l-0.6-3.2c-7.4,3.9-15.7,6.1-24.6,6.1c-29.4,0-53.2-23.8-53.2-53.2
	c0-29.4,23.8-53.2,53.2-53.2c2,0,3.9,0.2,5.8,0.4l-0.5-2.9C291.5,89.8,285.2,88.8,278.8,88.8L278.8,88.8z M97.5,90.4v3.7
	c6.5,1,10.5,5.9,6.7,12.1L31.8,210h9l76.3-102.3V144H97l-5.3,9.8h25.5V210h0.2H137V90.4H97.5z M144,90.4V94
	c10,1.6,11.7,7.7,11.8,12.2V210h19.9v-56h30.5c-0.1-1.3-0.1-2.6-0.1-4c0-2,0.1-3.9,0.2-5.8h-30.6V99.8h52.1
	c3.8-3.6,7.9-6.7,12.4-9.4L144,90.4z M350,164.5l-0.4,0.5c0.2,0.2,0.3,0.6,0.4,0.9c0,0.3,0.2,0.5,0.1,0.7l0.6,0.4
	c0.1-0.4,0.1-0.8,0-1.2l2.7,1.5l0.4-0.7L350,164.5L350,164.5z M349,167.3c-0.4,0.1-0.7,0.3-0.9,0.6c-0.2,0.4-0.3,0.6-0.1,1
	c0.2,0.4,0.5,1,1.2,1.4c0.7,0.4,1.3,0.6,1.7,0.5c0.4-0.1,0.8-0.3,1-0.6c0.2-0.4,0.1-0.8,0-1.1c-0.2-0.4-0.5-0.8-1.2-1.2
	C350,167.4,349.5,167.3,349,167.3L349,167.3z M348.9,168.1L348.9,168.1c0.1,0,0.3,0,0.5,0c0.2,0.1,0.4,0.2,0.9,0.5s0.8,0.5,1,0.6
	c0.1,0.1,0.1,0.3,0.1,0.4c0,0.1,0,0.2,0,0.2c-0.1,0.1-0.2,0.1-0.2,0.1c-0.1,0-0.2,0-0.4,0c-0.2-0.1-0.5-0.2-1-0.5
	c-0.4-0.3-0.7-0.5-0.9-0.6c-0.1-0.1-0.2-0.1-0.2-0.2c0-0.1,0-0.3,0-0.4C348.7,168.1,348.8,168.1,348.9,168.1z M347.3,170.1
	c-0.4,0-0.7,0.3-0.9,0.6c-0.2,0.4-0.2,0.8-0.1,1.1c0.2,0.4,0.5,0.8,1.2,1.2c0.7,0.4,1.3,0.7,1.7,0.6c0.4,0,0.8-0.3,1-0.6
	c0.2-0.4,0.3-0.8,0.1-1.1c-0.2-0.4-0.7-0.8-1.4-1.2C348.3,170.3,347.7,170,347.3,170.1L347.3,170.1z M347.4,170.9c0.1,0,0.1,0,0.2,0
	c0.2,0.1,0.6,0.2,1,0.5c0.4,0.3,0.7,0.5,0.9,0.6c0.1,0.1,0.1,0.3,0.1,0.4c0,0.1,0.1,0.2,0,0.2c0,0.1-0.2,0.2-0.2,0.2
	c-0.1,0-0.2-0.1-0.4-0.1c-0.2-0.1-0.6-0.2-1-0.5c-0.4-0.3-0.7-0.5-0.9-0.6c-0.1-0.1-0.2-0.3-0.2-0.4c0-0.1,0.1-0.2,0.1-0.2
	c0.1-0.1,0.2-0.1,0.2-0.1v0C347.3,170.9,347.4,170.9,347.4,170.9L347.4,170.9z M346,172.8c-0.1,0-0.3,0-0.5,0h0
	c-0.3,0.1-0.6,0.3-0.9,0.6c-0.2,0.3-0.3,0.7-0.2,1c0,0.3,0.1,0.7,0.5,1l0.5-0.7c-0.2-0.1-0.2-0.2-0.2-0.4c0-0.1-0.1-0.4,0-0.5
	c0.1-0.1,0.2-0.2,0.4-0.2c0.1,0,0.3,0,0.5,0.1c0.1,0.1,0.3,0.2,0.4,0.4c0.1,0.1,0,0.5,0.1,1c0.1,0.6,0.2,1.1,0.4,1.4
	c0.1,0.3,0.3,0.6,0.5,0.7l1.6-2.5l-0.6-0.4l-0.9,1.4c0-0.1-0.1-0.1-0.1-0.2c0-0.1-0.1-0.4-0.1-0.7c-0.1-0.4-0.1-0.6-0.1-0.7
	c-0.1-0.2-0.1-0.5-0.2-0.6c-0.1-0.2-0.3-0.3-0.5-0.4C346.3,172.8,346.1,172.8,346,172.8L346,172.8z M343.2,176.9c-0.1,0-0.3,0-0.4,0
	c-0.4,0.1-0.9,0.3-1.2,0.7c-0.4,0.5-0.5,1.1-0.4,1.6c0.1,0.5,0.4,0.9,1,1.4c0.6,0.4,1.2,0.7,1.7,0.6c0.5-0.1,0.9-0.4,1.2-0.9
	c0.3-0.4,0.5-0.7,0.5-1.1c0-0.4-0.2-0.7-0.5-1.1l-0.7,0.5c0.2,0.2,0.4,0.5,0.4,0.7c0,0.2-0.1,0.4-0.2,0.6c-0.2,0.3-0.4,0.4-0.7,0.4
	c-0.3,0-0.7-0.2-1.1-0.5c-0.4-0.3-0.6-0.6-0.6-0.9c-0.1-0.3-0.1-0.6,0.1-0.9c0.1-0.2,0.3-0.3,0.5-0.4c0.2,0,0.4,0,0.6,0.1l0.4-0.9
	C343.5,177,343.4,176.9,343.2,176.9L343.2,176.9z M340.2,179.8l-1.9,2.2l3.4,2.7l0.6-0.6l-1.5-1.2l1.1-1.4l-0.5-0.5l-1.1,1.5
	l-0.9-0.7l1.4-1.6L340.2,179.8L340.2,179.8z M337,183.6l-0.6,0.7l2.2,4.1l0.6-0.7l-0.5-0.9l1.1-1.4l1,0.4l0.6-0.7L337,183.6
	L337,183.6z M337.5,184.6l1.6,0.6l-0.7,0.9L337.5,184.6L337.5,184.6z M335.3,186.5c-0.2,0-0.4,0.1-0.6,0.1c-0.4,0.1-0.7,0.3-1,0.6
	c-0.3,0.3-0.5,0.6-0.6,1c-0.1,0.4,0,0.7,0.1,1.1c0.1,0.4,0.2,0.8,0.5,1.1c0.3,0.3,0.7,0.4,1.1,0.5c0.4,0.1,0.7,0.1,1.1,0
	c0.4-0.1,0.7-0.3,1-0.6c0.3-0.3,0.5-0.7,0.6-1.1c0.1-0.4,0-0.7-0.1-1.1c-0.1-0.4-0.3-0.7-0.6-1c-0.3-0.3-0.6-0.5-1-0.6
	C335.6,186.4,335.5,186.4,335.3,186.5L335.3,186.5z M335.3,187c0.5,0,0.9,0.1,1.2,0.5c0.4,0.3,0.6,0.7,0.6,1.2
	c0,0.5-0.2,0.9-0.5,1.2c-0.3,0.4-0.9,0.6-1.4,0.6c-0.5,0-0.9-0.2-1.2-0.5c-0.4-0.3-0.6-0.7-0.6-1.2c0-0.5,0.2-1,0.5-1.4
	C334.3,187.1,334.8,187,335.3,187L335.3,187z M335.5,187.5c-0.1,0-0.3,0-0.4,0c-0.2,0-0.4,0.2-0.6,0.4c-0.2,0.3-0.4,0.5-0.4,0.9
	c0,0.3,0.1,0.6,0.4,0.9c0.3,0.3,0.7,0.4,1,0.4c0.3,0,0.6-0.1,0.9-0.4c0.2-0.2,0.2-0.5,0.2-0.7c0-0.2,0-0.4-0.1-0.6l-0.5,0.4
	c0.1,0.2,0.1,0.2,0.1,0.4c0,0.1,0,0.3-0.1,0.4c-0.1,0.1-0.3,0.2-0.5,0.1c-0.1,0-0.3-0.2-0.5-0.4c-0.2-0.2-0.3-0.3-0.4-0.5
	c0-0.2,0-0.3,0.1-0.4c0.1-0.1,0.3-0.2,0.4-0.2c0.1,0,0.2,0,0.4,0.1l0.4-0.5C335.7,187.5,335.6,187.5,335.5,187.5L335.5,187.5z"/>
</svg>
