<?xml version="1.0" encoding="utf-8"?>
<!-- Generator: Adobe Illustrator 23.0.3, SVG Export Plug-In . SVG Version: 6.00 Build 0)  -->
<svg version="1.1"
	 id="logosvg.com" xmlns:cc="http://creativecommons.org/ns#" xmlns:dc="http://purl.org/dc/elements/1.1/" xmlns:rdf="http://www.w3.org/1999/02/22-rdf-syntax-ns#" xmlns:svg="http://www.w3.org/2000/svg"
	 xmlns="http://www.w3.org/2000/svg" xmlns:xlink="http://www.w3.org/1999/xlink" x="0px" y="0px" viewBox="0 0 400 300"
	 style="enable-background:new 0 0 400 300;" xml:space="preserve">
<style type="text/css">
	.st0{fill:#DC0D15;}
</style>
<path id="red" class="st0" d="M60.5,223.3c2.7-2.9,5.9-6.2,7.8-7.8c-0.5,0-1.4-0.1-2.3-0.3c-2,1.8-4.5,4.5-6.8,6.9
	c-2.9,3.1-5.2,5.8-5.2,5.8c0,0-0.1,0.1-0.1,0.1c-1.9,0.5-5.1,1.4-7.2,2c-3.1,0.9-6,0.7-6,2.7c0,0-3.3,1.7-2.5,4.3
	c0,0,6.5-5.2,12.1-6.1c0,0-3.4,2.2-3.1,5.2c0,0,4.6-6.9,10-2.7c0,0-2.4-3.3-1.4-5C56.7,227.5,58.5,225.5,60.5,223.3 M50.2,142.1
	c-0.3,0.1-0.6,0.2-0.9,0.2c-1,0-1.8-0.6-2.2-1.5c0-0.1-0.1-0.2-0.1-0.3l-0.7,0.2c0.6,1.7,2.4,2.7,4,2.1c0.4-0.1,0.8-0.4,1.1-0.6
	c0.9-0.8,1.2-2.2,0.8-3.5l-1.6,0.6c0.1,0.2,0.2,0.5,0.2,0.8c0,0.2,0,0.5-0.1,0.7l0.7,0.5c-0.1,0.2-0.3,0.4-0.5,0.6
	C50.6,141.9,50.4,142,50.2,142.1 M115.9,136.9l-32.1,7.8v0l0,0l62.7-27.1l-51.7,6.3l27.7-20.2l-29.6,11.6l4.5-9l-21.2,15.3l-0.2-0.3
	l30-65l-48.9,57.8l-0.3-31.5l-17.9,42.2L38,112.3l-8.8,32.3l0,0v0c0,0,1.2-0.9,2.8-1.4c0.1,0,0.3-0.1,0.4-0.1c0,0,0,0,0.1,0
	c0.1,0,0.3-0.1,0.4-0.1c0,0,0,0,0.1,0c0.1,0,0.3,0,0.4-0.1v0c0.1,0,0.3,0,0.4,0h0.1c0.1,0,0.3,0,0.4,0c0,0,0,0,0,0
	c0.1,0,0.2,0,0.4,0c0,0,0,0,0.1,0c0.1,0,0.3,0,0.4,0.1c0,0,0.1,0,0.1,0c0.1,0,0.3,0.1,0.4,0.1c3,1.1,5.6,0,5.6,0s2.8,1.8,2.8,3.4h0
	v0c0,0-3.7,0.2-3.7-1.4c0,0-4.8-1.7-11.5,0.8l14.1,6.1c0-0.1-0.8-2.7,0.1-3.6c0.3-0.3,0.7-0.4,1.4-0.2c0.3,0.1,0.4,0.1,0.6,0
	c1.1-1.1-4.2-11-4.2-11s-4.8-0.5-8.9,3.9c-0.3,0.3-0.6,0.6-0.8,0.9v0v0c0.4-0.7,1.8-2.9,4-4.7c1.3-1.1,3-2.1,5-2.7
	c0.5-1.3-0.1-0.5,1-1.2c0,0,0,0,0,0c0.5-3.5,2.5-12.4,9.3-20c0.5-0.5,0.9-1,1.4-1.5c0,0-1.7,3.3-1.7,5.5c0-0.1,1.8-2.6,4.1-5v0
	c0,0,0,0-0.1,0.1c-0.4,0.9-3.7,7.8-3.3,9.9c0,0,0,0,0,0l6.5-6c0,0,0,0,0,0c-0.2,0.3-6.1,8.3-6.7,11v0l9.9-7.1l0,0
	c0,0.1-1.2,1.7-1.8,2.7c-0.4,0.7-0.4,0.9-0.4,1l0,0.1l5.3-2.3c0,0-0.2,0.3-0.6,0.7l-2,2l-0.5,0.5l-3.6,3.6l-0.1,0.1l-2.7,2.8
	l-1.8,1.8c0,0-1.4,1.5-1.6,2.3c-0.2,0.8,0.6,1.2,0.6,1.2h0c0.7,0.4,1.3,1,1.7,1.8c0.2,0.5,0.3,1,0.3,1.5c0,1-0.4,2-1.1,2.7
	c-0.7,0.7-1.7,1.1-2.8,1.1c-1,0-1.9-0.4-2.6-0.9c0.1,0.2,2.1,2.6,5.6,0.7l4.4-3.2l0.2-0.1l4.6-3.3c1.1,1.3,2.1,2.8,3,4.5
	c-2.7,2.6-7.3,7-12,11.9c-2.8,2.9-5.5,6-7.8,8.9l1.6-7.7l0.1-0.6c0,0,0,0,0,0c0,0,0,0,0,0c0,0,0,0,0,0c0,0,0,0,0,0c0,0,0,0,0,0
	c0,0,0,0-0.1,0c0,0,0,0,0,0c0,0,0,0-0.1,0c0,0,0,0-0.1,0.1c0,0,0,0-0.1,0c0,0,0,0-0.1,0.1c0,0,0,0.1-0.1,0.1c0,0-0.1,0.1-0.1,0.1
	c0,0-0.1,0.1-0.1,0.1c0,0-0.1,0.1-0.1,0.1c0,0-0.1,0.1-0.1,0.1c0,0-0.1,0-0.1,0.1c0,0-0.1,0.1-0.1,0.1c0,0-0.1,0.1-0.1,0.1
	c0,0-0.1,0.1-0.1,0.1c0,0-0.1,0.1-0.1,0.1c0,0.1-0.1,0.1-0.1,0.1c0,0-0.1,0.1-0.1,0.1c0,0-0.1,0.1-0.1,0.1c0,0,0,0,0,0
	c0,0-0.1,0.1-0.2,0.2c0,0-0.1,0.1-0.1,0.1c-0.1,0-0.1,0.1-0.2,0.1c0,0-0.1,0.1-0.1,0.1c0,0.1-0.1,0.1-0.1,0.1c0,0,0,0-0.1,0.1
	c0,0,0,0,0,0c0,0-0.1,0.1-0.1,0.1c0,0.1-0.1,0.1-0.1,0.1c0,0,0,0,0,0c0,0,0,0-0.1,0c0,0-0.1,0.1-0.1,0.1c-0.1,0.1-0.1,0.1-0.2,0.2
	c0,0.1-0.1,0.1-0.1,0.2c-0.1,0.1-0.1,0.1-0.2,0.2c-0.1,0.1-0.1,0.1-0.1,0.2c-0.1,0.1-0.1,0.1-0.2,0.2c0,0.1-0.1,0.1-0.2,0.2
	c-0.1,0.1-0.1,0.1-0.2,0.2c-0.1,0-0.1,0.1-0.1,0.2c-0.1,0.1-0.1,0.2-0.2,0.3c-0.1,0.1-0.1,0.1-0.1,0.2c-0.1,0.1-0.2,0.2-0.3,0.3
	c0,0-0.1,0.1-0.1,0.1c-0.1,0.2-0.2,0.3-0.4,0.5l0,0c-0.1,0.2-0.2,0.3-0.3,0.5c0,0-0.1,0.1-0.1,0.2c-0.1,0.1-0.2,0.3-0.3,0.4
	c0,0.1-0.1,0.1-0.1,0.2c-0.1,0.1-0.2,0.2-0.2,0.4c0,0.1-0.1,0.1-0.1,0.2c-0.1,0.1-0.2,0.3-0.2,0.4c0,0.1-0.1,0.2-0.1,0.2
	c-0.1,0.1-0.1,0.3-0.2,0.4c0,0.1-0.1,0.2-0.1,0.2c-0.1,0.2-0.2,0.3-0.2,0.4c0,0.1-0.1,0.2-0.1,0.3c-0.4,0.7-0.7,1.4-1.1,2.1v0
	l-1.8,0.3c0.4-0.9,0.7-1.8,1.1-2.6l-3,4.2l3-0.3c-2.5,5.8-4.4,13.4-4.4,24.3l2.4-1.5c2.1,12.1,12.1,17.4,12.1,17.4l0-0.1
	c5.5,3.6,12.2,6.1,19.6,7.1c1,0.1,1.9,0.2,2,0.2c0,0,0,0,0,0c0.1,0,0.3,0,0.4,0c4,0.3,7.9,0.2,11.6-0.3c0,0.1,0,0.3,0,0.4
	c0,2.4,1.3,4.4,3,4.5c-3.5,5.9-6.3,13.8-6.3,13.9c-0.1,0.4-0.4,1-0.7,1.2c-0.9,0.2-0.9,0.2-1.9,0.5l0,0c-0.3-0.3-3.1-0.8-5.9,0.2
	c0,0,0,0,0,0c-1.6,0.7-3.1,2-4.2,4.1c1.1-0.9,3.3-2.4,5-2.2c-2.1,1.2-5.6,3.4-6,6.6c0,0,12.3-8.6,18.4-7c0,0-0.9,1,1.2,4.7l1-3.5
	c1.1-3.4-3.1-3.9-4.9-3.9c0,0,0,0,0,0c0,0,0.2-0.5,0.5-1.4c1-2.7,3.5-8.7,6.1-12.9c0-0.1,0.1-0.2,0.1-0.3l-0.5-0.7
	c0,0,0.4-0.4,0.6-0.7c0.4-0.6,0.8-1.5,0.9-2.8c0-1-0.2-2.2-0.9-3.8l1.6-0.7c0.1,0.2,0.2,0.4,0.3,0.6c0,0.1,0,0.1,0.1,0.2
	c0,0.1,0.1,0.3,0.1,0.4c0,0.1,0,0.1,0.1,0.2c0,0.1,0.1,0.3,0.1,0.4c0,0,0,0.1,0,0.1l9-2.7l-2-1.6h0l-0.1-0.1l0,0l-34.1-31
	c0,0,0,0,0,0l0,0c9.5,4.6,20.5,10,39.3,18.7c18.5,8.5,30.2,13.5,36.2,15.9c0.1,0,0.1,0.1,0.1,0.1h0c0.9,0.4,1.6,0.7,2.3,0.9
	c1.3,0.5,2.5,1,2.6,1c0.1-0.1,0.2-0.1,0.3-0.1l-68.9-47.3L115.9,136.9z M68.2,151.4L68.2,151.4L58,159.2l7.4-16.2v0
	C66.5,145.5,67.5,148.3,68.2,151.4L68.2,151.4z M104.9,207.3l0.3,1.2h0l12,7.1l3,1.8l-1.7-4.3c9.9,2.9,18,3.1,23.3,0.6c0,0,0,0,0,0
	C132.5,216.5,109.4,208.7,104.9,207.3"/>
<path id="black" d="M40.3,145.1c0,1.7,3.7,1.4,3.7,1.4c0-1.5-2.8-3.4-2.8-3.4s-2.6,1.1-5.6,0c-1.2-0.4-2.5-0.3-3.6,0
	c-1.4,1-3.2,2.7-3.2,2.7C35.5,143.4,40.3,145.1,40.3,145.1 M65.3,143L58,159.2l10.3-7.8C67.5,148.3,66.5,145.5,65.3,143
	 M141.9,213.7c0,0-23.1-8.7-80.5-36.6l34.2,31.2h0c3.1-1.3,5.2-2.2,9.5,0.3l-0.3-1.2C109.4,208.7,132.6,216.5,141.9,213.7
	 M86.4,211.5c0.7,1.5,0.9,2.8,0.9,3.8c0,1.3-0.5,2.2-0.9,2.8c-0.2,0.3-0.5,0.7-0.6,0.7l1,1.4c0.1-0.1,2.1-1.6,2.1-4.8
	c0-1.3-0.3-2.8-1.1-4.5L86.4,211.5z M65.8,215.2c1.6,0.3,3.1,0.4,3.1,0.4l0.1-0.9c0,0-1.5-0.1-3-0.4L65.8,215.2z M64.6,141.5
	c-0.9-1.7-1.9-3.3-3-4.5l-9.2,6.7c-3.7,2-5.7-0.7-5.7-0.7c0.7,0.6,1.6,0.9,2.6,0.9c2.2,0,3.9-1.7,3.9-3.8c0-0.5-0.1-1-0.3-1.5
	c-0.3-0.8-0.9-1.4-1.7-1.8l0,0c0,0-0.8-0.5-0.6-1.2c0.2-0.8,1.6-2.3,1.6-2.3l0,0l4.5-4.6l0.1-0.1l4.1-4.2l2-2
	c0.4-0.4,0.6-0.7,0.6-0.7l-5.3,2.3c0,0-0.1-0.1,0.4-1c0.5-0.9,1.8-2.7,1.8-2.7l-9.9,7.1c0.6-2.8,6.8-11.1,6.8-11.1l-6.5,6
	c-0.4-2.1,3.4-10,3.4-10c-2.4,2.4-4.1,5-4.1,5c0-2.3,1.7-5.6,1.7-5.6c-7.9,7.9-10.1,17.9-10.7,21.6c-1.2,0.7-0.4-0.2-1,1.2
	c-5.3,1.5-8.3,6.3-9,7.4c4.3-5.3,9.8-4.8,9.8-4.8s6.5,12,3.7,11c-2.8-1-1.5,3.8-1.5,3.8l-5.3-2.3c0.9,1.7,2.6,5.8,1.6,10.1
	c-1.1,1.7-2.2,3.7-3.1,6.2l1.8-0.3c0.4-0.8,0.7-1.5,1.1-2.1c0.1-0.1,0.1-0.2,0.1-0.3c0.1-0.1,0.1-0.3,0.2-0.4c0-0.1,0.1-0.2,0.1-0.3
	c0.1-0.1,0.1-0.3,0.2-0.4c0.1-0.1,0.1-0.2,0.1-0.2c0.1-0.1,0.2-0.3,0.2-0.4c0-0.1,0.1-0.1,0.1-0.2c0.1-0.1,0.2-0.3,0.2-0.4
	c0-0.1,0.1-0.1,0.1-0.2c0.1-0.1,0.2-0.3,0.3-0.4c0-0.1,0.1-0.1,0.1-0.2c0.1-0.2,0.2-0.3,0.3-0.5c0,0,0,0,0,0
	c0.1-0.2,0.2-0.3,0.4-0.5c0,0,0.1-0.1,0.1-0.1c0.1-0.1,0.2-0.2,0.3-0.3c0-0.1,0.1-0.1,0.1-0.2c0.1-0.1,0.1-0.2,0.2-0.3
	c0.1-0.1,0.1-0.1,0.1-0.2c0.1-0.1,0.1-0.2,0.2-0.2c0-0.1,0.1-0.1,0.2-0.2c0.1-0.1,0.1-0.1,0.2-0.2c0.1-0.1,0.1-0.1,0.1-0.2
	c0.1-0.1,0.1-0.1,0.2-0.2c0-0.1,0.1-0.1,0.1-0.2c0.1-0.1,0.1-0.1,0.2-0.2c0.1,0,0.1-0.1,0.1-0.2c0.1-0.1,0.1-0.1,0.2-0.2
	c0-0.1,0.1-0.1,0.1-0.1c0.1-0.1,0.1-0.1,0.2-0.2c0,0,0.1-0.1,0.1-0.1c0,0,0.1-0.1,0.2-0.1c0,0,0.1-0.1,0.1-0.1
	c0.1-0.1,0.1-0.1,0.2-0.2c0,0,0.1-0.1,0.1-0.1c0.1-0.1,0.2-0.2,0.2-0.2c0,0,0.1-0.1,0.1-0.1c0,0,0.1-0.1,0.1-0.1
	c0,0,0.1-0.1,0.1-0.1c0,0,0.1-0.1,0.1-0.1c0,0,0.1,0,0.1-0.1c0,0,0.1-0.1,0.1-0.1c0,0,0-0.1,0.1-0.1c0,0,0.1-0.1,0.1-0.1
	c0,0,0.1,0,0.1-0.1c0,0,0.1,0,0.1-0.1c0,0,0,0,0.1-0.1c0,0,0.1,0,0.1,0c0,0,0,0,0.1-0.1c0,0,0,0,0.1,0c0,0,0,0,0,0c0,0,0,0,0.1,0
	c0,0,0,0,0,0c0,0,0,0,0,0c0,0,0,0,0,0c0,0,0,0,0,0c0,0,0,0,0,0l-0.1,0.6l-1.6,7.7C51,154.6,60.3,145.6,64.6,141.5 M46.3,140.7
	l0.7-0.2c0,0.1,0.1,0.2,0.1,0.3c0.4,0.9,1.3,1.5,2.2,1.5c0.3,0,0.6,0,0.9-0.2c0.5-0.2,0.9-0.5,1.1-0.9l-0.7-0.4
	c0.1-0.2,0.1-0.4,0.1-0.7c0-0.3-0.1-0.5-0.2-0.8l1.6-0.6c0.6,1.7-0.2,3.6-1.9,4.1C48.6,143.4,46.8,142.5,46.3,140.7 M196.5,153.7
	c-1.1-0.3-2.7-0.5-4.9-0.5H187v26.1l0.5-0.3l3.8-2.7l0.1-0.1v-7.4h1.5c2.7,0,4.9-0.7,6.5-2.1c1.6-1.4,2.4-3.3,2.4-5.7
	c0-2.2-0.8-4.1-2.3-5.6C198.6,154.6,197.6,154,196.5,153.7 M192.6,165.1h-1.2v-8h1.4c3.5,0,5.3,1.3,5.3,3.9
	C198,163.7,196.2,165.1,192.6,165.1 M221.1,168.3c1.5-0.4,2.8-1.3,3.8-2.5c1.1-1.3,1.6-3,1.6-4.8c0-2.4-0.9-4.3-2.6-5.8
	c-1.5-1.3-4-2-7.4-2h-4.8v26.1l0.5-0.3l3.8-2.7l0.1-0.1v-7.5h0.2l7.1,10.2l0.2,0.3l0.3-0.2l3.1-2.2l0.3-0.2l-0.2-0.3L221.1,168.3z
	 M216.1,165.1v-0.3v-7.4v-0.4h1.4c3.5,0,5.3,1.3,5.3,3.9c0,2.8-1.8,4.1-5.4,4.1H216.1z M154.7,154.1c-1.5-0.5-3.6-0.8-6.1-0.8H143
	v25.8h5.5c2.6,0,4.6-0.2,6-0.7c1.5-0.5,3-1.3,4.4-2.6c2.8-2.5,4.2-5.7,4.2-9.6c0-3.9-1.4-7.2-4-9.6
	C157.8,155.4,156.3,154.6,154.7,154.1 M155.9,172.7c-0.9,0.8-1.9,1.4-3,1.7c-1.1,0.4-2.5,0.5-4.1,0.5h-1.4v-17.4h1.4
	c3.1,0,5.6,0.7,7.1,2.2c1.8,1.7,2.7,3.8,2.7,6.5C158.6,168.8,157.7,171,155.9,172.7 M126.9,157c1.6,0,3.2,0.5,4.8,1.4l0.3,0.2
	l0.1-0.3l1.8-3.2l0.2-0.3l-0.3-0.2c-2.2-1.2-4.4-1.9-6.7-1.9c-4.2,0-7.7,1.6-10.4,4.7c-2.2,2.6-3.3,5.5-3.3,8.8
	c0,3.6,1.3,6.8,3.9,9.4c2.6,2.6,5.8,3.9,9.5,3.9c2.4,0,4.8-0.6,7-1.9l0.2-0.1v-0.3l0-0.1l-1.9-3.2l-0.2-0.3l-0.3,0.2
	c-0.5,0.3-1,0.6-1.5,0.8c-0.9,0.4-2,0.6-3.3,0.6c-2.5,0-4.6-0.9-6.3-2.6c-1.7-1.7-2.6-3.9-2.6-6.5c0-2.6,0.9-4.8,2.6-6.6
	C122.3,157.9,124.4,157,126.9,157 M342.3,157.5h5.8v21.9l0.5-0.3l3.8-2.7l0.1-0.1v-18.8h5.8v-4.2h-16V157.5z M248.6,152.8
	c-3.7,0-6.9,1.3-9.6,3.9c-2.7,2.6-4,5.7-4,9.4c0,4.1,1.5,7.5,4.4,10c2.6,2.3,5.7,3.5,9,3.5c3.7,0,7-1.3,9.6-3.9c2.6-2.6,4-5.7,4-9.4
	c0-3.7-1.3-6.9-4-9.5C255.4,154.1,252.3,152.8,248.6,152.8 M254.9,172.7c-1.8,1.8-3.9,2.6-6.5,2.6c-2.3,0-4.4-0.9-6.2-2.6
	c-1.8-1.7-2.7-3.9-2.7-6.6c0-2.5,0.9-4.7,2.6-6.5c1.7-1.8,3.9-2.7,6.4-2.7c2.5,0,4.7,0.9,6.4,2.7c1.7,1.7,2.6,3.9,2.6,6.5
	C257.6,168.7,256.7,170.9,254.9,172.7 M330.2,153.4l-9.3,9.5V153l-0.5,0.4l-3.8,2.7l-0.1,0.1v23.3l0.5-0.3l3.8-2.7l0.1-0.1v-7.8
	l0.5-0.4l8.9,11l0.2,0.2l0.2-0.2l3.3-2.2l0.3-0.2l-0.2-0.3l-9.4-11.4l11.2-11.2l0.5-0.5h-6L330.2,153.4z M275.7,156l-0.1,0.1v13.8
	c0,2.1-0.2,3.5-0.7,4.4c-0.4,0.8-1.1,1.1-2.1,1.1c-0.7,0-1.5-0.3-2.4-0.9l-0.3-0.2l-0.2,0.3l-1.9,3.2l-0.1,0.3l0.3,0.2
	c1.4,0.8,3,1.3,4.6,1.3c2.2,0,4-0.8,5.3-2.3c0.7-0.8,1.2-1.8,1.5-2.9c0.3-1,0.4-2.4,0.4-4.4V153l-0.5,0.4L275.7,156z M302.9,157.5
	L302.9,157.5l3.6-3.7l0.5-0.5h-15v25.8H303l0.1-0.1l3.4-3.6l0.5-0.5h-10.5v-8h3.2l0.1-0.1l3.6-3.6l0.5-0.5h-7.4v-5.2H302.9z
	 M366.7,161.8c-2.5,0-4.5-2-4.5-4.5c0-2.5,2-4.5,4.5-4.5c2.5,0,4.5,2,4.5,4.5C371.2,159.8,369.2,161.8,366.7,161.8 M366.7,153.5
	c-2.1,0-3.8,1.7-3.8,3.8c0,2.1,1.7,3.8,3.8,3.8c2.1,0,3.8-1.7,3.8-3.8C370.6,155.2,368.8,153.5,366.7,153.5 M368,159.9l-1.3-2h-0.9
	v2H365v-5.2h2.1c0.9,0,1.7,0.6,1.7,1.6c0,1.1-1,1.5-1.3,1.5l1.4,2.1H368z M367.1,155.4h-1.4v1.8h1.4c0.4,0,0.9-0.4,0.9-0.9
	C368,155.7,367.5,155.4,367.1,155.4"/>
</svg>
