<?xml version="1.0" encoding="utf-8"?>
<!-- Generator: Adobe Illustrator 23.0.3, SVG Export Plug-In . SVG Version: 6.00 Build 0)  -->
<svg version="1.1" id="logosvg.com" xmlns="http://www.w3.org/2000/svg" xmlns:xlink="http://www.w3.org/1999/xlink" x="0px"
	 y="0px" viewBox="0 0 400 300" style="enable-background:new 0 0 400 300;" xml:space="preserve">
<style type="text/css">
	.st0{fill-rule:evenodd;clip-rule:evenodd;fill:#F4811F;}
	.st1{fill-rule:evenodd;clip-rule:evenodd;fill:#ED2525;}
	.st2{fill-rule:evenodd;clip-rule:evenodd;fill:#007F5F;}
</style>
<path id="orange" class="st0" d="M253.8,44H120.7v52.8H191C206.7,73.8,228.5,55.6,253.8,44"/>
<path id="red" class="st1" d="M279.3,43.9v53c-22.4,10.3-39.7,29.3-47.8,52.6h-54.1C189.5,98.4,228.8,57.8,279.3,43.9z M173.6,255.2
	h52.8l0.1-52.7h-52.8L173.6,255.2z"/>
<path id="green" class="st2" d="M240,208.5c0.7,0,1.1-0.4,1.1-0.9c0-0.6-0.4-1-1.1-1h-0.8v1.9H240z M239.1,211.9h-1.2v-6.4h2.2
	c1.2,0,2.2,0.9,2.2,2c0,0.9-0.6,1.6-1.4,1.9l1.4,2.5H241l-1.3-2.4h-0.5C239.1,209.6,239.1,211.9,239.1,211.9z M239.9,213.5
	c2.6,0,4.6-2.1,4.6-4.7s-2-4.7-4.6-4.7c-2.6,0-4.6,2-4.6,4.7C235.3,211.5,237.3,213.5,239.9,213.5z M239.9,202.9
	c3.2,0,5.9,2.6,5.9,5.9c0,3.2-2.6,5.9-5.9,5.9c-3.2,0-5.8-2.7-5.8-5.9C234.1,205.6,236.7,202.9,239.9,202.9L239.9,202.9z
	 M156.5,157.6h-11.3v37.2h21v-8h-9.7L156.5,157.6L156.5,157.6z M226.2,194.8h21v-8h-9.7v-7.6h9.7v-7h-9.7v-6.3h9.7v-8.3h-21V194.8z
	 M169.7,194.8h21v-8H181v-7.6h9.7v-7H181v-6.3h9.7v-8.3h-21V194.8z M120.7,194.8h21v-8h-9.7v-7.6h9.7v-7h-9.7v-6.3h9.7v-8.3h-21
	V194.8L120.7,194.8z M269.5,157.6c-3.5,0-5.5,0.8-7.6,2.1v-2.1h-11.3v37.2h11.3v-25.3c0-1.5,1.3-2.8,2.8-2.8h0.5
	c1.5,0,2.8,1.3,2.8,2.8v25.3h11.2v-25.6C279.3,161.3,275.7,157.6,269.5,157.6z M223.2,157.5l-8.5,37.2h-12.5l-8.5-37.2H204l4.4,25.1
	l4.4-25.1H223.2z"/>
</svg>
