<?xml version="1.0" encoding="utf-8"?>
<!-- Generator: Adobe Illustrator 23.0.3, SVG Export Plug-In . SVG Version: 6.00 Build 0)  -->
<svg version="1.1" id="logosvg.com" xmlns="http://www.w3.org/2000/svg" xmlns:xlink="http://www.w3.org/1999/xlink" x="0px"
	 y="0px" viewBox="0 0 400 300" style="enable-background:new 0 0 400 300;" xml:space="preserve">
<style type="text/css">
	.st0{fill:#DA552F;}
</style>
<path id="logo" class="st0" d="M77.4,143.6c0,3.4-2.8,6.2-6.1,6.2c0,0,0,0,0,0H59.6v-12.3h11.6C74.7,137.4,77.4,140.2,77.4,143.6z
	 M106.8,149.7c0,22.6-18.4,41-41,41c-22.6,0-41-18.4-41-41c0-22.6,18.4-41,41-41C88.4,108.7,106.8,127.1,106.8,149.7z M85.6,143.6
	c0-7.9-6.4-14.3-14.3-14.3v0H51.4v41h8.2v-12.3h11.6C79.2,157.9,85.6,151.5,85.6,143.6z M193,153.2c0,5.5-3.9,10.2-10.3,10.2
	c-6.4,0-10.3-4.7-10.3-10.2c0-5.5,3.9-10.2,10.3-10.2C189.1,143,193,147.7,193,153.2z M187.7,153.2c0-3-1.8-5.6-5-5.6
	c-3.2,0-4.9,2.6-4.9,5.6c0,3.1,1.8,5.7,4.9,5.7C185.9,158.9,187.7,156.2,187.7,153.2L187.7,153.2z M164.3,146.1v-2.6h-5.1v19.9h5.1
	v-13.3c0.8-1.3,3.1-2.2,4.8-2.2c0.6,0,1,0,1.4,0.1v-5C168.1,143,165.7,144.4,164.3,146.1z M155.7,144.7c0,4.7-3.2,8.6-9,8.6h-6.8
	v10.1h-5.7h0v-27.3h12.6C152.5,136.1,155.7,140,155.7,144.7z M149.8,144.7L149.8,144.7c0-2.3-1.7-3.6-4-3.6h-6v7.2h6
	C148.1,148.3,149.8,146.9,149.8,144.7z M330.7,156.6c-0.9,1.1-2.5,2.2-4.4,2.2c-2.2,0-3.6-0.9-3.6-3.6v-11.8h-5.1v13.8
	c0,3.8,2,6.1,6.3,6.1c3.2,0,5.5-1.5,6.8-2.9v2.9h5.1v-19.9h-5.1V156.6z M352.8,143c-3.1,0-5.6,1.5-6.8,3v-2.5h-5.1v19.9h5.1v-13.6
	c0.9-1.1,2.4-2.3,4.4-2.3c2.2,0,3.6,0.9,3.6,3.6v12.2h0h5.2v-14.2C359.2,145.4,357.1,143,352.8,143z M306.7,146.6H294v-10.5h-5.7
	v27.3h5.7v-11.8h12.7v11.8h5.8v-27.3h-5.8V146.6z M373.9,158.3c-0.3,0.3-1,0.6-1.8,0.6c-1.1,0-1.8-0.9-1.8-2.2v-8.7h3.9v-4.5h-3.9
	v-5.3h-5.1v5.3H362v4.5h3.2v10.1h0c0,3.5,1.9,5.4,5.5,5.4c2.1,0,3.5-0.6,4.3-1.2L373.9,158.3z M253,147.5c1.8,0,3.2,0.7,4.1,2.1
	l3.3-3.1c-1.3-1.8-3.7-3.5-7.7-3.5c-6,0-10.3,4.2-10.3,10.2c0,6,4.3,10.2,10.3,10.2c4,0,6.4-1.8,7.7-3.5l-3.3-3.1
	c-0.9,1.3-2.3,2.1-4.1,2.1c-3.1,0-5.3-2.3-5.3-5.7C247.8,149.8,249.9,147.5,253,147.5z M233.5,156.6c-0.9,1.1-2.5,2.2-4.4,2.2
	c-2.2,0-3.6-0.9-3.6-3.6v-11.8h-5.1v13.8c0,3.8,2,6.1,6.3,6.1c3.2,0,5.5-1.5,6.8-2.9v2.9h5.1v-19.9h-5.1V156.6z M271.7,158.9
	c-1.1,0-1.8-0.9-1.8-2.2v-8.7h3.9v-4.5H270v-5.3h-5.1v5.3h-3.2v4.5h3.2v10.1h0c0,3.5,1.9,5.4,5.5,5.4c2.1,0,3.5-0.6,4.3-1.2
	l-1.1-3.9C273.2,158.6,272.5,158.9,271.7,158.9z M210.2,136.1h5.2v27.3h-5.2v-3c-1.5,1.9-3.6,3-6,3c-4.9,0-8.6-3.7-8.6-10.2
	c0-6.3,3.7-10.2,8.6-10.2c2.3,0,4.5,1,6,3V136.1z M210.2,149.8c-0.8-1.3-2.7-2.2-4.4-2.2c-2.9,0-4.9,2.3-4.9,5.6
	c0,3.4,2,5.7,4.9,5.7c1.7,0,3.5-0.9,4.4-2.2V149.8z"/>
</svg>
