<?xml version="1.0" encoding="utf-8"?>
<!-- Generator: Adobe Illustrator 23.0.3, SVG Export Plug-In . SVG Version: 6.00 Build 0)  -->
<svg version="1.1" id="logosvg.com" xmlns="http://www.w3.org/2000/svg" xmlns:xlink="http://www.w3.org/1999/xlink" x="0px"
	 y="0px" viewBox="0 0 400 300" style="enable-background:new 0 0 400 300;" xml:space="preserve">
<style type="text/css">
	.st0{fill:#FF4500;}
	.st1{fill:#222222;}
	.st2{fill:#FFFFFF;}
</style>
<path id="dot" class="st0" d="M319.8,134.4c0-3.7,3-6.7,6.7-6.7s6.7,3,6.7,6.7s-3,6.7-6.7,6.7S319.8,138.1,319.8,134.4z"/>
<path id="text" class="st1" d="M216,140.7c-10.1,0-18.4,9.4-18.4,20.6S205.9,182,216,182c6.4,0,10.9-2.2,14.2-6
	c1.5-1.9,1.1-4.5-0.7-6c-1.9-1.1-3.7-0.7-5.2,0.4c-1.5,1.5-4.1,3.7-8.6,3.7c-5.2,0-9.4-4.5-10.5-10.5h23.6c3.4,0,5.2-2.6,5.6-4.5
	c0-1.5-0.4-2.2-0.4-3C231.7,147.5,224.6,140.7,216,140.7z M205.1,156.8c1.9-5.2,5.6-8.6,10.5-8.6c4.5,0,8.6,3.7,10.1,8.6H205.1z
	 M197.3,144.5c0,1.9-1.5,3.7-3,4.5h-0.7c-7.5-0.7-13.1,5.2-13.1,12.4v16.5c0,2.2-1.9,3.7-4.1,3.7c-2.2-0.4-3.7-2.2-3.7-4.1v-31.9
	c0-1.9,1.5-3.7,3.7-3.7c1.9,0,3.7,1.5,3.7,3.7v0.4c3.4-4.1,8.6-6,13.9-5.2C195.8,141.1,197.3,142.6,197.3,144.5z M330.7,148.6
	c0,0,0,28.1,0,28.5c0,1.9-1.5,3.4-3.4,3.4c-1.9,0.4-3.7-1.1-4.1-3.4v-28.5c0-1.9,1.5-3.4,3.4-3.4
	C328.4,144.9,330.3,146.4,330.7,148.6z M269.6,123.5c-1.9-0.4-3.7,1.1-4.1,3.4v17.2c-3-2.6-6-3.7-10.1-3.7
	c-10.1,0-18.4,9.4-18.4,20.6s8.2,20.6,18.4,20.6c4.1,0,7.5-1.5,10.1-4.1c0.4,1.5,1.9,3,3.7,3c1.9,0,3.7-1.5,3.7-3.7v-49.8
	C273,125,271.5,123.5,269.6,123.5z M255.4,173.7c-6,0-10.9-5.6-10.9-12.7s4.5-13.1,10.5-13.1c6,0,10.9,6,10.9,13.1
	S261,174.1,255.4,173.7z M310.1,123.5c-1.9-0.4-3.7,1.1-4.1,3.4v17.2c-3-2.6-6-3.7-10.1-3.7c-10.1,0-18.4,9.4-18.4,20.6
	s8.2,20.6,18.4,20.6c4.1,0,7.5-1.5,10.1-4.1c0.4,1.5,1.9,3,3.7,3c1.9,0,3.7-1.5,3.7-3.7v-49.8C313.4,125,311.9,123.5,310.1,123.5z
	 M295.5,173.7c-6,0-10.9-5.6-10.9-12.7c0-7.5,4.9-13.1,10.9-13.1s10.9,6,10.9,13.1S301.8,174.1,295.5,173.7z M356.9,144.9
	c0,1.9-1.5,3.4-3.4,3.4h-3.4v28.9c0,1.9-1.5,3.7-4.5,3.4c-1.9,0-3.7-1.5-3.7-3.7v-28.9h-3.4c-1.9,0-3.4-1.9-3.4-3.7s1.5-3.4,3.4-3.4
	h3.4v-5.6c0-2.2,1.9-3.7,4.1-3.7c2.2,0.4,3.7,2.2,3.7,4.1v5.6h3.4c0.4,0,0.4,0,0.4,0C355.4,141.1,356.9,143,356.9,144.9z"/>
<path id="orange" class="st0" d="M42.1,151.2c-0.7-30,22.9-54.7,52.8-55.5c30-0.7,54.7,22.9,55.5,52.8c0,1.1,0,1.9,0,3
	c-0.7,30-25.9,53.6-55.8,52.8C66.1,203.3,42.8,180.1,42.1,151.2L42.1,151.2z"/>
<path id="white" class="st2" d="M127.9,158.3c0,0.7,0,1.5,0,2.2c0,12.4-14.2,22.1-31.9,22.1s-31.9-9.7-31.9-22.1c0-0.7,0-1.5,0-2.2
	c-4.1-1.9-5.6-6.4-4.1-10.5c1.1-3,4.1-4.9,7.1-4.5c2.2,0,4.1,0.7,5.6,2.2c6.4-4.1,13.9-6.7,21.4-6.7l4.1-18.7c0-0.4,0.4-0.7,0.4-0.7
	c0.4-0.4,0.7-0.4,1.1-0.4l13.1,3c1.5-2.6,4.9-4.1,7.5-2.6s4.1,4.9,2.6,7.5c-1.5,2.6-4.9,4.1-7.5,2.6c-1.9-0.7-3-2.6-3-4.9l-11.6-2.6
	l-3.7,16.9c8.2,0.4,15.7,3,21,6.7c3-3,8.2-3,11.2,0c1.5,1.5,2.2,3.4,2.2,5.6C132.8,154.6,130.5,157.2,127.9,158.3z M84.1,162.5
	c3,0,5.6-2.6,5.6-5.6c0-3-2.6-5.6-5.6-5.6c-3,0-5.6,2.6-5.6,5.6C78.4,159.8,80.7,162.5,84.1,162.5z M109.9,169.6
	c-0.7-0.7-1.5-0.7-1.9,0c-2.2,2.6-7.5,3.4-11.2,3.4c-3.7,0-9-0.7-11.2-3.4c-0.7-0.7-1.5-0.7-1.9,0c-0.7,0.7-0.7,1.5,0,1.9
	c3.7,3.7,11.2,4.1,13.5,4.1c2.2,0,9.4-0.4,13.5-4.1C110.3,171.1,110.3,170.3,109.9,169.6z M114.4,156.8c0-3-2.6-5.6-5.6-5.6
	s-5.6,2.6-5.6,5.6c0,3,2.6,5.6,5.6,5.6S114.4,159.8,114.4,156.8z"/>
</svg>
