<svg width="0" height="0" class="hidden">
    <symbol xmlns="http://www.w3.org/2000/svg" viewBox="0 0 512 512" id="twitter">
        <path d="M512 97.248c-19.04 8.352-39.328 13.888-60.48 16.576 21.76-12.992 38.368-33.408 46.176-58.016-20.288 12.096-42.688 20.64-66.56 25.408C411.872 60.704 384.416 48 354.464 48c-58.112 0-104.896 47.168-104.896 104.992 0 8.32.704 16.32 2.432 23.936-87.264-4.256-164.48-46.08-216.352-109.792-9.056 15.712-14.368 33.696-14.368 53.056 0 36.352 18.72 68.576 46.624 87.232-16.864-.32-33.408-5.216-47.424-12.928v1.152c0 51.008 36.384 93.376 84.096 103.136-8.544 2.336-17.856 3.456-27.52 3.456-6.72 0-13.504-.384-19.872-1.792 13.6 41.568 52.192 72.128 98.08 73.12-35.712 27.936-81.056 44.768-130.144 44.768-8.608 0-16.864-.384-25.12-1.44C46.496 446.88 101.6 464 161.024 464c193.152 0 298.752-160 298.752-298.688 0-4.64-.16-9.12-.384-13.568 20.832-14.784 38.336-33.248 52.608-54.496z" fill="#03a9f4"></path>
    </symbol>
 <symbol xmlns="http://www.w3.org/2000/svg" viewBox="0 0 512 512" id="instagram">
    <circle cx="256" cy="256" r="256" fill="#ef72ad"></circle>
    <path d="M256 0c-11.317 0-22.461.744-33.391 2.167C348.216 18.53 445.217 125.933 445.217 256s-97.002 237.47-222.609 253.833A258.556 258.556 0 00256 512c141.385 0 256-114.616 256-256S397.385 0 256 0z" fill="#ee539e"></path>
    <g fill="#fff">
      <path d="M350.84 91.826H161.16c-38.231 0-69.334 31.103-69.334 69.334v189.682c0 38.231 31.103 69.334 69.334 69.334h189.682c38.231 0 69.334-31.103 69.334-69.334V161.16c-.002-38.231-31.105-69.334-69.336-69.334zm52.638 259.014c0 29.025-23.613 52.638-52.638 52.638H161.16c-29.025 0-52.638-23.613-52.638-52.638V161.16c0-29.025 23.613-52.638 52.638-52.638h189.682c29.025 0 52.638 23.613 52.638 52.638v189.68h-.002z"></path>
      <path d="M256 169.739c-47.565 0-86.261 38.696-86.261 86.261s38.696 86.261 86.261 86.261 86.261-38.696 86.261-86.261-38.696-86.261-86.261-86.261zm0 155.826c-38.358 0-69.565-31.208-69.565-69.565s31.208-69.565 69.565-69.565 69.565 31.208 69.565 69.565-31.207 69.565-69.565 69.565z"></path>
      <circle cx="345.043" cy="155.826" r="22.261"></circle>
    </g>
  </symbol>
    <symbol xmlns="http://www.w3.org/2000/svg" viewBox="0 0 512 512" id="facebook">
        <path d="M512 256C512 114.615 397.385 0 256 0 189.548 0 129.01 25.319 83.506 66.836 32.195 113.653 6.199 181.067 6.199 256c0 141.385 108.416 251.977 249.801 251.977 74.893 0 142.275-28.137 189.088-79.401C486.65 383.063 512 322.492 512 256z" fill="#4bc3ef"></path>
        <path d="M272.516 495.484c-141.385 0-256-114.615-256-256 0-66.491 25.429-127.135 66.99-172.647C32.241 113.65 0 181.106 0 256c0 127.328 92.957 232.945 214.71 252.688h82.582c58.172-9.433 109.77-38.469 147.797-80.112-45.513 41.561-106.082 66.908-172.573 66.908z" fill="#1badde"></path>
        <path d="M322.065 165.161h33.032a8.259 8.259 0 008.258-8.258v-49.548a8.258 8.258 0 00-8.258-8.258h-49.548c-50.169 0-90.839 40.67-90.839 90.839V256h-49.548l-12.682 50.312 68.416 8.796 1.412 183.095 64.507 5.43 10.476-9.336V322.064h43.101a8.26 8.26 0 008.012-6.255l12.388-49.549c1.302-5.212-2.639-10.26-8.012-10.26h-55.49v-66.064c0-13.683 11.092-24.775 24.775-24.775z" fill="#fff"></path>
        <path d="M272.516 495.484c-8.961 0-17.801-.498-26.512-1.43-8.406-.899-14.778-8.021-14.778-16.476V322.065c0-9.122-7.395-16.516-16.516-16.516h-41.29a8.258 8.258 0 01-8.258-8.258V256h-8.258a8.258 8.258 0 00-8.258 8.258v49.548a8.258 8.258 0 008.258 8.258h57.806v186.623C228.156 510.869 241.938 512 256 512s27.844-1.136 41.29-3.318v-14.385a259.06 259.06 0 01-24.774 1.187z" fill="#e3f5ff"></path>
    </symbol>
    <symbol xmlns="http://www.w3.org/2000/svg" viewBox="0 0 112.196 112.196" id="linkedin">
        <circle cx="56.098" cy="56.097" r="56.098" fill="#007ab9"></circle>
        <path d="M89.616 60.611v23.128H76.207V62.161c0-5.418-1.936-9.118-6.791-9.118-3.705 0-5.906 2.491-6.878 4.903-.353.862-.444 2.059-.444 3.268v22.524h-13.41s.18-36.546 0-40.329h13.411v5.715c-.027.045-.065.089-.089.132h.089v-.132c1.782-2.742 4.96-6.662 12.085-6.662 8.822 0 15.436 5.764 15.436 18.149zm-54.96-36.642c-4.587 0-7.588 3.011-7.588 6.967 0 3.872 2.914 6.97 7.412 6.97h.087c4.677 0 7.585-3.098 7.585-6.97-.089-3.956-2.908-6.967-7.496-6.967zm-6.791 59.77H41.27v-40.33H27.865v40.33z" fill="#f1f2f2"></path>
    </symbol>
     <symbol fill="none" xmlns="http://www.w3.org/2000/svg" viewBox="0 0 69 18" id="arrow-right">
    <path d="M60.492.586L59.078 2l6 6H.5v2h64.578l-6 6 1.414 1.414L68.906 9 60.492.586z" fill="#000"></path>
  </symbol>
  <symbol xmlns="http://www.w3.org/2000/svg" viewBox="0 0 64 64" id="vision">
    <ellipse cx="32" cy="28" fill="#aae1f9" rx="29" ry="15"></ellipse>
    <path d="M36.933 37c-10.37 0-19.841-4.413-27.115-11.684A39.9 39.9 0 0134 17a40.209 40.209 0 0126.029 9.808C52.949 18.3 43.015 13 32 13c-11.524 0-21.874 5.8-29 15 7.126 9.2 17.476 15 29 15 11.412 0 21.668-5.69 28.787-14.739A37.6 37.6 0 0136.933 37z" fill="#57b7eb"></path>
    <path d="M47 28a15 15 0 10-24 11.98V43h18v-3.02A14.963 14.963 0 0047 28z" fill="#f9e109"></path>
    <rect fill="#d0d8da" height="4" rx="2" width="24" x="20" y="43"></rect>
    <rect fill="#d0d8da" height="4" rx="2" width="24" x="20" y="47"></rect>
    <path d="M23 51h18v1a9 9 0 01-9 9 9 9 0 01-9-9v-1z" fill="#93999a"></path>
    <path d="M43 38a20 20 0 01-20-20 20.269 20.269 0 01.105-2.058A14.96 14.96 0 0023 39.98V43h18v-3.02a15.2 15.2 0 002.141-1.987c-.048 0-.094.007-.141.007z" fill="#fcbc04"></path>
    <circle cx="32" cy="28" fill="#57b7eb" r="7"></circle>
    <circle cx="36" cy="24" fill="#aae1f9" r="3"></circle>
    <path d="M25.1 26.878A6.958 6.958 0 0032 35c.156 0 .31-.013.464-.023a20.059 20.059 0 01-7.364-8.099z" fill="#4891d3"></path>
    <path d="M23 43h-1a2 2 0 000 4h20a2 2 0 002-2H25a2 2 0 01-2-2zm0 4h-1a2 2 0 000 4h20a2 2 0 002-2H25a2 2 0 01-2-2z" fill="#93999a"></path>
    <path d="M35 55h5.477A8.956 8.956 0 0041 52v-1H23v1a8.995 8.995 0 006.026 8.486A6 6 0 0135 55z" fill="#656b76"></path>
    <g fill="#323232">
      <path d="M37.863 8.456a1.029 1.029 0 00.288.042 1 1 0 00.957-.713l1.162-3.869a1 1 0 10-1.916-.574l-1.162 3.869a1 1 0 00.671 1.245zm6.593 1.6a1 1 0 001.356-.4l1.936-3.566a1 1 0 10-1.758-.955L44.054 8.7a1 1 0 00.402 1.356zm7.487 3.261a1 1 0 00.765-.355l2.629-3.122a1 1 0 10-1.529-1.289l-2.629 3.122a1 1 0 00.764 1.644zm6.099 4.968a1 1 0 00.643-.234l3.1-2.6a1 1 0 00-1.285-1.532l-3.1 2.6a1 1 0 00.643 1.765zm-46.75-5.323a1 1 0 101.529-1.289l-2.629-3.122A1 1 0 008.663 9.84zm6.896-3.308a1 1 0 101.758-.954L18.01 5.133a1 1 0 10-1.758.955zM5.347 18.076a1 1 0 101.222-1.582l-2.958-2.285a1 1 0 10-1.222 1.582zM24.892 7.785a1 1 0 00.957.713 1.029 1.029 0 00.288-.042 1 1 0 00.671-1.245l-1.162-3.869a1 1 0 10-1.916.574zM32 8a1 1 0 001-1V3a1 1 0 00-2 0v4a1 1 0 001 1zM18.407 39.063A38.375 38.375 0 014.274 28a40.341 40.341 0 016.526-6.475 1 1 0 00-1.235-1.574 42.6 42.6 0 00-7.355 7.437 1 1 0 000 1.224A40.54 40.54 0 0017.593 40.89a1 1 0 00.814-1.827z"></path>
      <path d="M61.791 28.612a1 1 0 000-1.224C54.219 17.608 43.36 12 32 12a35.874 35.874 0 00-19.319 5.739 1 1 0 001.076 1.686 34.808 34.808 0 018.143-3.816 15.963 15.963 0 00.1 24.86V42a3 3 0 000 6h20a1 1 0 010 2H22a1 1 0 000 2 10 10 0 0020 0 2.987 2.987 0 002.22-5A2.987 2.987 0 0042 42v-1.531A15.858 15.858 0 0048 28a16.09 16.09 0 00-.374-3.416 1 1 0 10-1.954.426A14.062 14.062 0 0146 28a13.889 13.889 0 01-5.6 11.181 1 1 0 00-.4.8V42h-4v-7.08a7.966 7.966 0 003.49-9.713 1 1 0 00-.842-.645.99.99 0 00-.949.473A1.981 1.981 0 0136 26a2 2 0 01-2-2 1.981 1.981 0 01.964-1.7 1 1 0 00-.172-1.79A7.982 7.982 0 0024 28a8.041 8.041 0 004 6.92V42h-4v-2.021a1 1 0 00-.4-.8A13.991 13.991 0 1144.4 21.5a1 1 0 101.771-.93 16.061 16.061 0 00-4.038-4.955A37.515 37.515 0 0159.726 28a38.375 38.375 0 01-14.133 11.063 1 1 0 10.814 1.827 40.54 40.54 0 0015.384-12.278zM32 60a8.009 8.009 0 01-8-8h16a8.009 8.009 0 01-8 8zm11-15a1 1 0 01-1 1H22a1 1 0 010-2h20a1 1 0 011 1zM29.43 33.414A6 6 0 0132 22c.175 0 .35.008.523.023a4 4 0 005.453 5.454c.016.173.024.348.024.523a6.027 6.027 0 01-3.43 5.414 1 1 0 00-.57.9V42h-4v-7.683a1 1 0 00-.57-.903z"></path>
      <path d="M52.708 41.607a1 1 0 10-1.529 1.293l2.629 3.123a1 1 0 101.529-1.29zm5.977-5.087a1 1 0 10-1.285 1.531l3.1 2.6a1 1 0 001.286-1.531zm-47.393 5.087l-2.629 3.122a1 1 0 001.529 1.29l2.629-3.119a1 1 0 10-1.529-1.289zm-5.945-5.113l-2.958 2.284a1 1 0 101.222 1.582l2.958-2.284a1 1 0 10-1.222-1.582z"></path>
    </g>
  </symbol>
  <symbol xmlns="http://www.w3.org/2000/svg" viewBox="0 0 512.001 512.001" id="goal">
    <circle cx="236.64" cy="275.359" fill="#e94444" r="229.14"></circle>
    <circle cx="236.641" cy="275.359" fill="#ebebeb" r="166.154"></circle>
    <circle cx="236.641" cy="275.359" fill="#e94444" r="103.168"></circle>
    <circle cx="236.641" cy="275.359" fill="#5a5a5a" r="40.181"></circle>
    <path d="M236.64 46.219c-6.684 0-13.297.303-19.836.864 117.261 10.057 209.305 108.41 209.305 228.276s-92.043 218.219-209.305 228.276c6.539.561 13.152.864 19.836.864 126.551 0 229.14-102.59 229.14-229.14S363.191 46.219 236.64 46.219z" fill="#d83131"></path>
    <g fill="#0055a3">
      <path d="M449.066 8.545l-50.268 50.268a10.648 10.648 0 00-3.097 8.194l2.911 46.381 59.224-59.224-2.72-43.332c-.191-3.049-3.89-4.447-6.05-2.287z"></path>
      <path d="M503.455 62.934l-50.268 50.268a10.648 10.648 0 01-8.194 3.097l-46.381-2.911 59.224-59.224 43.332 2.72c3.049.191 4.447 3.89 2.287 6.05z"></path>
    </g>
    <path d="M445.66 123.82a18.15 18.15 0 0012.831-5.315l50.268-50.268c6.717-6.717 2.343-18.245-7.121-18.839l-26.75-1.679 17.455-17.455a7.5 7.5 0 00-10.607-10.606l-17.455 17.455-1.679-26.75c-.595-9.481-12.134-13.825-18.839-7.121L393.494 53.51a18.152 18.152 0 00-5.278 13.967l1.728 27.528c-41.954-35.772-96.025-56.286-153.303-56.286C105.851 38.719 0 144.557 0 275.359c0 59.031 21.86 115.57 61.555 159.2a7.502 7.502 0 0011.096-10.095C35.474 383.602 15 330.649 15 275.359c0-122.213 99.428-221.641 221.641-221.641 57.272 0 111.164 21.95 151.475 59.559l-34.222 34.221c-30.949-28.409-72.156-45.794-117.253-45.794-95.753 0-173.654 77.901-173.654 173.654 0 27.558 6.648 55.007 19.228 79.381l.002.003c29.149 56.481 87.854 94.27 154.425 94.27 82.029 0 153.372-57.939 170.046-138.346a7.5 7.5 0 00-14.687-3.046c-15.188 73.236-80.525 126.392-155.358 126.392-59.609 0-113.675-33.011-141.096-86.149l-.001-.003c-11.65-22.575-17.558-46.968-17.558-72.502 0-87.482 71.172-158.654 158.654-158.654 40.97 0 78.428 15.702 106.649 41.397l-33.917 33.917c-19.464-17.008-44.914-27.328-72.732-27.328-61.022 0-110.667 49.645-110.667 110.667s49.645 110.667 110.667 110.667S347.31 336.379 347.31 275.357c0-27.818-10.32-53.268-27.329-72.732l33.919-33.919c25.496 27.994 41.161 65.09 41.393 105.728a7.5 7.5 0 007.499 7.457h.044a7.5 7.5 0 007.457-7.543c-.256-44.735-17.597-85.548-45.786-116.25l34.224-34.224c37.447 40.039 59.551 93.611 59.551 151.482C458.281 397.572 358.854 497 236.641 497c-50.629 0-100.135-17.514-139.398-49.315a7.501 7.501 0 00-9.442 11.656C129.727 493.299 182.586 512 236.641 512c130.79 0 236.641-105.838 236.641-236.641 0-51.213-16.094-99.954-46.54-140.952a242.33 242.33 0 00-9.828-12.357c29.401 1.847 27.816 1.77 28.746 1.77zM332.309 275.359c0 52.751-42.916 95.667-95.668 95.667-52.751 0-95.667-42.916-95.667-95.667s42.916-95.667 95.667-95.667c23.682 0 45.378 8.653 62.102 22.958l-34.13 34.13c-7.864-5.717-17.528-9.102-27.972-9.102-26.291 0-47.681 21.39-47.681 47.681s21.39 47.681 47.681 47.681c26.292 0 47.682-21.39 47.682-47.681 0-10.445-3.385-20.109-9.102-27.972l34.13-34.13c14.304 16.724 22.958 38.42 22.958 62.102zm-100.972 5.304a7.5 7.5 0 0010.607 0l22.482-22.482a32.475 32.475 0 014.896 17.179c0 18.021-14.661 32.681-32.682 32.681s-32.681-14.661-32.681-32.681 14.66-32.681 32.681-32.681a32.483 32.483 0 0117.179 4.895l-22.483 22.483a7.5 7.5 0 00.001 10.606zm171.85-214.126a3.143 3.143 0 01.915-2.421l44.078-44.077 1.959 31.216-45.082 45.082zm12.477 40.406l45.082-45.082 31.216 1.959-44.078 44.078a3.134 3.134 0 01-2.421.915z"></path>
  </symbol>
  <symbol xmlns="http://www.w3.org/2000/svg" viewBox="0 0 512 512" id="mission">
    <path d="M127.742 87.661l24.048 40.081-24.048 40.081h72.145V87.661z" fill="#ff5f7a"></path>
    <path d="M191.871 55.597a8.016 8.016 0 00-8.016 8.016v72.145H256V55.597z" fill="#ff7e92"></path>
    <path d="M148.067 332.438c-15.652-15.652-41.03-15.652-56.682 0l-49.879 83.885h126.317l12.024-52.105z" fill="#f4aa73"></path>
    <path d="M41.506 416.323l92.829-92.829c-14.379-5.623-31.336-2.67-42.951 8.945L7.5 416.323z" fill="#e29a6c"></path>
    <path d="M404.583 292.357c-15.652-15.652-41.03-15.652-56.682 0l-43.804 43.804v56.113H504.5z" fill="#f4aa73"></path>
    <path d="M273.005 256.972c-9.392-9.392-24.618-9.392-34.01 0L55.793 472.436h432.675z" fill="#e29a6c"></path>
    <path d="M238.995 256.972L23.532 472.436h32.26l216.25-216.25c-9.441-8.512-23.954-8.306-33.047.786z" fill="#d48c64"></path>
    <path d="M273.005 256.972c-9.391-9.391-24.618-9.391-34.01 0L135.758 360.21l16.72 16.72c6.261 6.261 16.412 6.261 22.673 0l27.084-27.084a8.016 8.016 0 0111.336 0l11.052 11.052c6.261 6.261 16.412 6.261 22.673 0l29.912-29.911c5.996-5.996 15.718-5.996 21.714 0l37.928 37.927c6.261 6.261 16.412 6.261 22.673 0l12.712-12.712z" fill="#e3f5ff"></path>
    <path d="M272.042 256.186c-9.441-8.511-23.955-8.305-33.047.787L135.758 360.21l16.13 16.13z" fill="#d1edff"></path>
    <path d="M509.803 386.971l-99.917-99.917c-8.987-8.987-20.935-13.936-33.645-13.936-12.709 0-24.657 4.949-33.644 13.936l-14.453 14.452-49.837-49.837a31.361 31.361 0 00-14.808-8.328V39.565a7.5 7.5 0 00-15 0v8.532H191.87c-8.556 0-15.516 6.96-15.516 15.516v16.548h-48.613a7.5 7.5 0 00-6.431 11.359l21.733 36.222-21.733 36.222a7.499 7.499 0 006.431 11.359h72.146a7.5 7.5 0 000-15h-58.899l17.233-28.722a7.501 7.501 0 000-7.718l-17.233-28.722h35.367v40.597a7.5 7.5 0 007.5 7.5H248.5v100.083a31.361 31.361 0 00-14.808 8.328l-77.894 77.894-2.428-2.428c-18.551-18.551-48.737-18.553-67.289 0L2.197 411.02A7.5 7.5 0 007.5 423.823a7.474 7.474 0 005.303-2.197l83.884-83.885c12.704-12.702 33.374-12.703 46.076 0l2.428 2.428L18.229 467.132a7.5 7.5 0 000 10.606 7.5 7.5 0 0010.606 0l106.923-106.923 11.417 11.417c4.587 4.588 10.614 6.881 16.64 6.881s12.052-2.293 16.64-6.881l27.084-27.084c.038-.037.151-.151.365-.151s.328.114.365.151l11.052 11.052c9.176 9.175 24.105 9.174 33.28 0l29.911-29.912c3.062-3.062 8.045-3.062 11.107 0a7.5 7.5 0 0010.606 0 7.5 7.5 0 000-10.606c-8.91-8.911-23.41-8.911-32.32 0l-29.911 29.911c-3.326 3.327-8.74 3.328-12.067 0l-11.052-11.052c-2.931-2.931-6.827-4.544-10.972-4.544s-8.041 1.614-10.971 4.544l-27.084 27.084c-3.326 3.327-8.739 3.327-12.066 0l-11.417-11.417 97.934-97.934c3.126-3.125 7.281-4.847 11.702-4.847s8.576 1.721 11.702 4.847l93.926 93.926-7.409 7.409c-3.327 3.326-8.739 3.326-12.066 0l-15.566-15.566a7.5 7.5 0 00-10.606 0 7.5 7.5 0 000 10.606l15.566 15.566c4.587 4.588 10.614 6.881 16.64 6.881s12.052-2.293 16.64-6.881l7.409-7.409 110.931 110.931c1.464 1.464 3.384 2.197 5.303 2.197s3.839-.732 5.303-2.197a7.5 7.5 0 000-10.606L338.752 312.113l14.453-14.452c6.154-6.153 14.335-9.542 23.038-9.542s16.884 3.389 23.038 9.542l99.917 99.917c1.464 1.464 3.384 2.197 5.303 2.197s3.839-.732 5.303-2.197a7.5 7.5 0 00-.001-10.607zM191.355 128.258V63.613c0-.285.231-.516.516-.516H248.5v65.162h-57.145z"></path>
  </symbol>
    <symbol xmlns="http://www.w3.org/2000/svg" viewBox="0 0 512 512" id="arrow-left-slide">
    <path d="M501.333 245.333H36.417l141.792-141.792c4.167-4.167 4.167-10.917 0-15.083-4.167-4.167-10.917-4.167-15.083 0l-160 160c-4.167 4.167-4.167 10.917 0 15.083l160 160a10.634 10.634 0 007.542 3.125c2.729 0 5.458-1.042 7.542-3.125 4.167-4.167 4.167-10.917 0-15.083L36.417 266.667h464.917c5.896 0 10.667-4.771 10.667-10.667s-4.772-10.667-10.668-10.667z"></path>
  </symbol>
  <symbol xmlns="http://www.w3.org/2000/svg" viewBox="0 0 512 512" id="arrow-right-slide">
    <path d="M508.875 248.458l-160-160c-4.167-4.167-10.917-4.167-15.083 0-4.167 4.167-4.167 10.917 0 15.083l141.792 141.792H10.667C4.771 245.333 0 250.104 0 256s4.771 10.667 10.667 10.667h464.917L333.792 408.458c-4.167 4.167-4.167 10.917 0 15.083a10.634 10.634 0 007.542 3.125c2.729 0 5.458-1.042 7.542-3.125l160-160c4.166-4.166 4.166-10.916-.001-15.083z"></path>
  </symbol>
   <symbol xmlns="http://www.w3.org/2000/svg" viewBox="0 0 95.333 95.332" id="quote">
    <path d="M30.512 43.939c-2.348-.676-4.696-1.019-6.98-1.019-3.527 0-6.47.806-8.752 1.793 2.2-8.054 7.485-21.951 18.013-23.516a2.501 2.501 0 002.04-1.799l2.301-8.23a2.5 2.5 0 00-2.068-3.15 17.477 17.477 0 00-2.354-.16c-12.637 0-25.152 13.19-30.433 32.076-3.1 11.08-4.009 27.738 3.627 38.223 4.273 5.867 10.507 9 18.529 9.313l.098.002c9.898 0 18.675-6.666 21.345-16.209a22.032 22.032 0 00-2.032-16.851c-2.875-5.105-7.61-8.826-13.334-10.473zm61.959 10.474c-2.875-5.106-7.61-8.827-13.334-10.474-2.348-.676-4.696-1.019-6.979-1.019a21.94 21.94 0 00-8.753 1.793c2.2-8.054 7.485-21.951 18.014-23.516a2.503 2.503 0 002.04-1.799l2.301-8.23a2.5 2.5 0 00-2.068-3.15 17.455 17.455 0 00-2.354-.16c-12.637 0-25.152 13.19-30.434 32.076-3.099 11.08-4.008 27.738 3.629 38.225 4.272 5.866 10.507 9 18.528 9.312l.099.002c9.897 0 18.675-6.666 21.345-16.209a22.045 22.045 0 00-2.034-16.851z"></path>
  </symbol>
</svg>