<svg width="0" height="0" class="hidden">
    <symbol xmlns="http://www.w3.org/2000/svg" viewBox="0 0 512 512" id="twitter">
        <path d="M512 97.248c-19.04 8.352-39.328 13.888-60.48 16.576 21.76-12.992 38.368-33.408 46.176-58.016-20.288 12.096-42.688 20.64-66.56 25.408C411.872 60.704 384.416 48 354.464 48c-58.112 0-104.896 47.168-104.896 104.992 0 8.32.704 16.32 2.432 23.936-87.264-4.256-164.48-46.08-216.352-109.792-9.056 15.712-14.368 33.696-14.368 53.056 0 36.352 18.72 68.576 46.624 87.232-16.864-.32-33.408-5.216-47.424-12.928v1.152c0 51.008 36.384 93.376 84.096 103.136-8.544 2.336-17.856 3.456-27.52 3.456-6.72 0-13.504-.384-19.872-1.792 13.6 41.568 52.192 72.128 98.08 73.12-35.712 27.936-81.056 44.768-130.144 44.768-8.608 0-16.864-.384-25.12-1.44C46.496 446.88 101.6 464 161.024 464c193.152 0 298.752-160 298.752-298.688 0-4.64-.16-9.12-.384-13.568 20.832-14.784 38.336-33.248 52.608-54.496z" fill="#03a9f4"></path>
    </symbol>
 <symbol xmlns="http://www.w3.org/2000/svg" viewBox="0 0 512 512" id="instagram">
    <circle cx="256" cy="256" r="256" fill="#ef72ad"></circle>
    <path d="M256 0c-11.317 0-22.461.744-33.391 2.167C348.216 18.53 445.217 125.933 445.217 256s-97.002 237.47-222.609 253.833A258.556 258.556 0 00256 512c141.385 0 256-114.616 256-256S397.385 0 256 0z" fill="#ee539e"></path>
    <g fill="#fff">
      <path d="M350.84 91.826H161.16c-38.231 0-69.334 31.103-69.334 69.334v189.682c0 38.231 31.103 69.334 69.334 69.334h189.682c38.231 0 69.334-31.103 69.334-69.334V161.16c-.002-38.231-31.105-69.334-69.336-69.334zm52.638 259.014c0 29.025-23.613 52.638-52.638 52.638H161.16c-29.025 0-52.638-23.613-52.638-52.638V161.16c0-29.025 23.613-52.638 52.638-52.638h189.682c29.025 0 52.638 23.613 52.638 52.638v189.68h-.002z"></path>
      <path d="M256 169.739c-47.565 0-86.261 38.696-86.261 86.261s38.696 86.261 86.261 86.261 86.261-38.696 86.261-86.261-38.696-86.261-86.261-86.261zm0 155.826c-38.358 0-69.565-31.208-69.565-69.565s31.208-69.565 69.565-69.565 69.565 31.208 69.565 69.565-31.207 69.565-69.565 69.565z"></path>
      <circle cx="345.043" cy="155.826" r="22.261"></circle>
    </g>
  </symbol>
    <symbol xmlns="http://www.w3.org/2000/svg" viewBox="0 0 512 512" id="facebook">
        <path d="M512 256C512 114.615 397.385 0 256 0 189.548 0 129.01 25.319 83.506 66.836 32.195 113.653 6.199 181.067 6.199 256c0 141.385 108.416 251.977 249.801 251.977 74.893 0 142.275-28.137 189.088-79.401C486.65 383.063 512 322.492 512 256z" fill="#4bc3ef"></path>
        <path d="M272.516 495.484c-141.385 0-256-114.615-256-256 0-66.491 25.429-127.135 66.99-172.647C32.241 113.65 0 181.106 0 256c0 127.328 92.957 232.945 214.71 252.688h82.582c58.172-9.433 109.77-38.469 147.797-80.112-45.513 41.561-106.082 66.908-172.573 66.908z" fill="#1badde"></path>
        <path d="M322.065 165.161h33.032a8.259 8.259 0 008.258-8.258v-49.548a8.258 8.258 0 00-8.258-8.258h-49.548c-50.169 0-90.839 40.67-90.839 90.839V256h-49.548l-12.682 50.312 68.416 8.796 1.412 183.095 64.507 5.43 10.476-9.336V322.064h43.101a8.26 8.26 0 008.012-6.255l12.388-49.549c1.302-5.212-2.639-10.26-8.012-10.26h-55.49v-66.064c0-13.683 11.092-24.775 24.775-24.775z" fill="#fff"></path>
        <path d="M272.516 495.484c-8.961 0-17.801-.498-26.512-1.43-8.406-.899-14.778-8.021-14.778-16.476V322.065c0-9.122-7.395-16.516-16.516-16.516h-41.29a8.258 8.258 0 01-8.258-8.258V256h-8.258a8.258 8.258 0 00-8.258 8.258v49.548a8.258 8.258 0 008.258 8.258h57.806v186.623C228.156 510.869 241.938 512 256 512s27.844-1.136 41.29-3.318v-14.385a259.06 259.06 0 01-24.774 1.187z" fill="#e3f5ff"></path>
    </symbol>
    <symbol xmlns="http://www.w3.org/2000/svg" viewBox="0 0 112.196 112.196" id="linkedin">
        <circle cx="56.098" cy="56.097" r="56.098" fill="#007ab9"></circle>
        <path d="M89.616 60.611v23.128H76.207V62.161c0-5.418-1.936-9.118-6.791-9.118-3.705 0-5.906 2.491-6.878 4.903-.353.862-.444 2.059-.444 3.268v22.524h-13.41s.18-36.546 0-40.329h13.411v5.715c-.027.045-.065.089-.089.132h.089v-.132c1.782-2.742 4.96-6.662 12.085-6.662 8.822 0 15.436 5.764 15.436 18.149zm-54.96-36.642c-4.587 0-7.588 3.011-7.588 6.967 0 3.872 2.914 6.97 7.412 6.97h.087c4.677 0 7.585-3.098 7.585-6.97-.089-3.956-2.908-6.967-7.496-6.967zm-6.791 59.77H41.27v-40.33H27.865v40.33z" fill="#f1f2f2"></path>
    </symbol>
     <symbol fill="none" xmlns="http://www.w3.org/2000/svg" viewBox="0 0 69 18" id="arrow-right">
    <path d="M60.492.586L59.078 2l6 6H.5v2h64.578l-6 6 1.414 1.414L68.906 9 60.492.586z" fill="#000"></path>
  </symbol>
</svg>