<svg width="0" height="0" class="hidden">
  <symbol xmlns="http://www.w3.org/2000/svg" viewBox="0 0 512 512" id="twitter">
    <path d="M512 97.248c-19.04 8.352-39.328 13.888-60.48 16.576 21.76-12.992 38.368-33.408 46.176-58.016-20.288 12.096-42.688 20.64-66.56 25.408C411.872 60.704 384.416 48 354.464 48c-58.112 0-104.896 47.168-104.896 104.992 0 8.32.704 16.32 2.432 23.936-87.264-4.256-164.48-46.08-216.352-109.792-9.056 15.712-14.368 33.696-14.368 53.056 0 36.352 18.72 68.576 46.624 87.232-16.864-.32-33.408-5.216-47.424-12.928v1.152c0 51.008 36.384 93.376 84.096 103.136-8.544 2.336-17.856 3.456-27.52 3.456-6.72 0-13.504-.384-19.872-1.792 13.6 41.568 52.192 72.128 98.08 73.12-35.712 27.936-81.056 44.768-130.144 44.768-8.608 0-16.864-.384-25.12-1.44C46.496 446.88 101.6 464 161.024 464c193.152 0 298.752-160 298.752-298.688 0-4.64-.16-9.12-.384-13.568 20.832-14.784 38.336-33.248 52.608-54.496z" fill="#03a9f4"></path>
  </symbol>
  <symbol xmlns="http://www.w3.org/2000/svg" viewBox="0 0 512 512" id="instagram">
    <circle cx="256" cy="256" r="256" fill="#ef72ad"></circle>
    <path d="M256 0c-11.317 0-22.461.744-33.391 2.167C348.216 18.53 445.217 125.933 445.217 256s-97.002 237.47-222.609 253.833A258.556 258.556 0 00256 512c141.385 0 256-114.616 256-256S397.385 0 256 0z" fill="#ee539e"></path>
    <g fill="#fff">
      <path d="M350.84 91.826H161.16c-38.231 0-69.334 31.103-69.334 69.334v189.682c0 38.231 31.103 69.334 69.334 69.334h189.682c38.231 0 69.334-31.103 69.334-69.334V161.16c-.002-38.231-31.105-69.334-69.336-69.334zm52.638 259.014c0 29.025-23.613 52.638-52.638 52.638H161.16c-29.025 0-52.638-23.613-52.638-52.638V161.16c0-29.025 23.613-52.638 52.638-52.638h189.682c29.025 0 52.638 23.613 52.638 52.638v189.68h-.002z"></path>
      <path d="M256 169.739c-47.565 0-86.261 38.696-86.261 86.261s38.696 86.261 86.261 86.261 86.261-38.696 86.261-86.261-38.696-86.261-86.261-86.261zm0 155.826c-38.358 0-69.565-31.208-69.565-69.565s31.208-69.565 69.565-69.565 69.565 31.208 69.565 69.565-31.207 69.565-69.565 69.565z"></path>
      <circle cx="345.043" cy="155.826" r="22.261"></circle>
    </g>
  </symbol>
  <symbol xmlns="http://www.w3.org/2000/svg" viewBox="0 0 512 512" id="facebook">
    <path d="M512 256C512 114.615 397.385 0 256 0 189.548 0 129.01 25.319 83.506 66.836 32.195 113.653 6.199 181.067 6.199 256c0 141.385 108.416 251.977 249.801 251.977 74.893 0 142.275-28.137 189.088-79.401C486.65 383.063 512 322.492 512 256z" fill="#4bc3ef"></path>
    <path d="M272.516 495.484c-141.385 0-256-114.615-256-256 0-66.491 25.429-127.135 66.99-172.647C32.241 113.65 0 181.106 0 256c0 127.328 92.957 232.945 214.71 252.688h82.582c58.172-9.433 109.77-38.469 147.797-80.112-45.513 41.561-106.082 66.908-172.573 66.908z" fill="#1badde"></path>
    <path d="M322.065 165.161h33.032a8.259 8.259 0 008.258-8.258v-49.548a8.258 8.258 0 00-8.258-8.258h-49.548c-50.169 0-90.839 40.67-90.839 90.839V256h-49.548l-12.682 50.312 68.416 8.796 1.412 183.095 64.507 5.43 10.476-9.336V322.064h43.101a8.26 8.26 0 008.012-6.255l12.388-49.549c1.302-5.212-2.639-10.26-8.012-10.26h-55.49v-66.064c0-13.683 11.092-24.775 24.775-24.775z" fill="#fff"></path>
    <path d="M272.516 495.484c-8.961 0-17.801-.498-26.512-1.43-8.406-.899-14.778-8.021-14.778-16.476V322.065c0-9.122-7.395-16.516-16.516-16.516h-41.29a8.258 8.258 0 01-8.258-8.258V256h-8.258a8.258 8.258 0 00-8.258 8.258v49.548a8.258 8.258 0 008.258 8.258h57.806v186.623C228.156 510.869 241.938 512 256 512s27.844-1.136 41.29-3.318v-14.385a259.06 259.06 0 01-24.774 1.187z" fill="#e3f5ff"></path>
  </symbol>
  <symbol xmlns="http://www.w3.org/2000/svg" viewBox="0 0 112.196 112.196" id="linkedin">
    <circle cx="56.098" cy="56.097" r="56.098" fill="#007ab9"></circle>
    <path d="M89.616 60.611v23.128H76.207V62.161c0-5.418-1.936-9.118-6.791-9.118-3.705 0-5.906 2.491-6.878 4.903-.353.862-.444 2.059-.444 3.268v22.524h-13.41s.18-36.546 0-40.329h13.411v5.715c-.027.045-.065.089-.089.132h.089v-.132c1.782-2.742 4.96-6.662 12.085-6.662 8.822 0 15.436 5.764 15.436 18.149zm-54.96-36.642c-4.587 0-7.588 3.011-7.588 6.967 0 3.872 2.914 6.97 7.412 6.97h.087c4.677 0 7.585-3.098 7.585-6.97-.089-3.956-2.908-6.967-7.496-6.967zm-6.791 59.77H41.27v-40.33H27.865v40.33z" fill="#f1f2f2"></path>
  </symbol>
  <symbol fill="none"
    xmlns="http://www.w3.org/2000/svg" viewBox="0 0 69 18" id="arrow-right">
    <path d="M60.492.586L59.078 2l6 6H.5v2h64.578l-6 6 1.414 1.414L68.906 9 60.492.586z" fill="#000"></path>
  </symbol>
  <symbol xmlns="http://www.w3.org/2000/svg" viewBox="0 0 64 64" id="vision">
    <ellipse cx="32" cy="28" fill="#aae1f9" rx="29" ry="15"></ellipse>
    <path d="M36.933 37c-10.37 0-19.841-4.413-27.115-11.684A39.9 39.9 0 0134 17a40.209 40.209 0 0126.029 9.808C52.949 18.3 43.015 13 32 13c-11.524 0-21.874 5.8-29 15 7.126 9.2 17.476 15 29 15 11.412 0 21.668-5.69 28.787-14.739A37.6 37.6 0 0136.933 37z" fill="#57b7eb"></path>
    <path d="M47 28a15 15 0 10-24 11.98V43h18v-3.02A14.963 14.963 0 0047 28z" fill="#f9e109"></path>
    <rect fill="#d0d8da" height="4" rx="2" width="24" x="20" y="43"></rect>
    <rect fill="#d0d8da" height="4" rx="2" width="24" x="20" y="47"></rect>
    <path d="M23 51h18v1a9 9 0 01-9 9 9 9 0 01-9-9v-1z" fill="#93999a"></path>
    <path d="M43 38a20 20 0 01-20-20 20.269 20.269 0 01.105-2.058A14.96 14.96 0 0023 39.98V43h18v-3.02a15.2 15.2 0 002.141-1.987c-.048 0-.094.007-.141.007z" fill="#fcbc04"></path>
    <circle cx="32" cy="28" fill="#57b7eb" r="7"></circle>
    <circle cx="36" cy="24" fill="#aae1f9" r="3"></circle>
    <path d="M25.1 26.878A6.958 6.958 0 0032 35c.156 0 .31-.013.464-.023a20.059 20.059 0 01-7.364-8.099z" fill="#4891d3"></path>
    <path d="M23 43h-1a2 2 0 000 4h20a2 2 0 002-2H25a2 2 0 01-2-2zm0 4h-1a2 2 0 000 4h20a2 2 0 002-2H25a2 2 0 01-2-2z" fill="#93999a"></path>
    <path d="M35 55h5.477A8.956 8.956 0 0041 52v-1H23v1a8.995 8.995 0 006.026 8.486A6 6 0 0135 55z" fill="#656b76"></path>
    <g fill="#323232">
      <path d="M37.863 8.456a1.029 1.029 0 00.288.042 1 1 0 00.957-.713l1.162-3.869a1 1 0 10-1.916-.574l-1.162 3.869a1 1 0 00.671 1.245zm6.593 1.6a1 1 0 001.356-.4l1.936-3.566a1 1 0 10-1.758-.955L44.054 8.7a1 1 0 00.402 1.356zm7.487 3.261a1 1 0 00.765-.355l2.629-3.122a1 1 0 10-1.529-1.289l-2.629 3.122a1 1 0 00.764 1.644zm6.099 4.968a1 1 0 00.643-.234l3.1-2.6a1 1 0 00-1.285-1.532l-3.1 2.6a1 1 0 00.643 1.765zm-46.75-5.323a1 1 0 101.529-1.289l-2.629-3.122A1 1 0 008.663 9.84zm6.896-3.308a1 1 0 101.758-.954L18.01 5.133a1 1 0 10-1.758.955zM5.347 18.076a1 1 0 101.222-1.582l-2.958-2.285a1 1 0 10-1.222 1.582zM24.892 7.785a1 1 0 00.957.713 1.029 1.029 0 00.288-.042 1 1 0 00.671-1.245l-1.162-3.869a1 1 0 10-1.916.574zM32 8a1 1 0 001-1V3a1 1 0 00-2 0v4a1 1 0 001 1zM18.407 39.063A38.375 38.375 0 014.274 28a40.341 40.341 0 016.526-6.475 1 1 0 00-1.235-1.574 42.6 42.6 0 00-7.355 7.437 1 1 0 000 1.224A40.54 40.54 0 0017.593 40.89a1 1 0 00.814-1.827z"></path>
      <path d="M61.791 28.612a1 1 0 000-1.224C54.219 17.608 43.36 12 32 12a35.874 35.874 0 00-19.319 5.739 1 1 0 001.076 1.686 34.808 34.808 0 018.143-3.816 15.963 15.963 0 00.1 24.86V42a3 3 0 000 6h20a1 1 0 010 2H22a1 1 0 000 2 10 10 0 0020 0 2.987 2.987 0 002.22-5A2.987 2.987 0 0042 42v-1.531A15.858 15.858 0 0048 28a16.09 16.09 0 00-.374-3.416 1 1 0 10-1.954.426A14.062 14.062 0 0146 28a13.889 13.889 0 01-5.6 11.181 1 1 0 00-.4.8V42h-4v-7.08a7.966 7.966 0 003.49-9.713 1 1 0 00-.842-.645.99.99 0 00-.949.473A1.981 1.981 0 0136 26a2 2 0 01-2-2 1.981 1.981 0 01.964-1.7 1 1 0 00-.172-1.79A7.982 7.982 0 0024 28a8.041 8.041 0 004 6.92V42h-4v-2.021a1 1 0 00-.4-.8A13.991 13.991 0 1144.4 21.5a1 1 0 101.771-.93 16.061 16.061 0 00-4.038-4.955A37.515 37.515 0 0159.726 28a38.375 38.375 0 01-14.133 11.063 1 1 0 10.814 1.827 40.54 40.54 0 0015.384-12.278zM32 60a8.009 8.009 0 01-8-8h16a8.009 8.009 0 01-8 8zm11-15a1 1 0 01-1 1H22a1 1 0 010-2h20a1 1 0 011 1zM29.43 33.414A6 6 0 0132 22c.175 0 .35.008.523.023a4 4 0 005.453 5.454c.016.173.024.348.024.523a6.027 6.027 0 01-3.43 5.414 1 1 0 00-.57.9V42h-4v-7.683a1 1 0 00-.57-.903z"></path>
      <path d="M52.708 41.607a1 1 0 10-1.529 1.293l2.629 3.123a1 1 0 101.529-1.29zm5.977-5.087a1 1 0 10-1.285 1.531l3.1 2.6a1 1 0 001.286-1.531zm-47.393 5.087l-2.629 3.122a1 1 0 001.529 1.29l2.629-3.119a1 1 0 10-1.529-1.289zm-5.945-5.113l-2.958 2.284a1 1 0 101.222 1.582l2.958-2.284a1 1 0 10-1.222-1.582z"></path>
    </g>
  </symbol>
  <symbol xmlns="http://www.w3.org/2000/svg" viewBox="0 0 512.001 512.001" id="goal">
    <circle cx="236.64" cy="275.359" fill="#e94444" r="229.14"></circle>
    <circle cx="236.641" cy="275.359" fill="#ebebeb" r="166.154"></circle>
    <circle cx="236.641" cy="275.359" fill="#e94444" r="103.168"></circle>
    <circle cx="236.641" cy="275.359" fill="#5a5a5a" r="40.181"></circle>
    <path d="M236.64 46.219c-6.684 0-13.297.303-19.836.864 117.261 10.057 209.305 108.41 209.305 228.276s-92.043 218.219-209.305 228.276c6.539.561 13.152.864 19.836.864 126.551 0 229.14-102.59 229.14-229.14S363.191 46.219 236.64 46.219z" fill="#d83131"></path>
    <g fill="#0055a3">
      <path d="M449.066 8.545l-50.268 50.268a10.648 10.648 0 00-3.097 8.194l2.911 46.381 59.224-59.224-2.72-43.332c-.191-3.049-3.89-4.447-6.05-2.287z"></path>
      <path d="M503.455 62.934l-50.268 50.268a10.648 10.648 0 01-8.194 3.097l-46.381-2.911 59.224-59.224 43.332 2.72c3.049.191 4.447 3.89 2.287 6.05z"></path>
    </g>
    <path d="M445.66 123.82a18.15 18.15 0 0012.831-5.315l50.268-50.268c6.717-6.717 2.343-18.245-7.121-18.839l-26.75-1.679 17.455-17.455a7.5 7.5 0 00-10.607-10.606l-17.455 17.455-1.679-26.75c-.595-9.481-12.134-13.825-18.839-7.121L393.494 53.51a18.152 18.152 0 00-5.278 13.967l1.728 27.528c-41.954-35.772-96.025-56.286-153.303-56.286C105.851 38.719 0 144.557 0 275.359c0 59.031 21.86 115.57 61.555 159.2a7.502 7.502 0 0011.096-10.095C35.474 383.602 15 330.649 15 275.359c0-122.213 99.428-221.641 221.641-221.641 57.272 0 111.164 21.95 151.475 59.559l-34.222 34.221c-30.949-28.409-72.156-45.794-117.253-45.794-95.753 0-173.654 77.901-173.654 173.654 0 27.558 6.648 55.007 19.228 79.381l.002.003c29.149 56.481 87.854 94.27 154.425 94.27 82.029 0 153.372-57.939 170.046-138.346a7.5 7.5 0 00-14.687-3.046c-15.188 73.236-80.525 126.392-155.358 126.392-59.609 0-113.675-33.011-141.096-86.149l-.001-.003c-11.65-22.575-17.558-46.968-17.558-72.502 0-87.482 71.172-158.654 158.654-158.654 40.97 0 78.428 15.702 106.649 41.397l-33.917 33.917c-19.464-17.008-44.914-27.328-72.732-27.328-61.022 0-110.667 49.645-110.667 110.667s49.645 110.667 110.667 110.667S347.31 336.379 347.31 275.357c0-27.818-10.32-53.268-27.329-72.732l33.919-33.919c25.496 27.994 41.161 65.09 41.393 105.728a7.5 7.5 0 007.499 7.457h.044a7.5 7.5 0 007.457-7.543c-.256-44.735-17.597-85.548-45.786-116.25l34.224-34.224c37.447 40.039 59.551 93.611 59.551 151.482C458.281 397.572 358.854 497 236.641 497c-50.629 0-100.135-17.514-139.398-49.315a7.501 7.501 0 00-9.442 11.656C129.727 493.299 182.586 512 236.641 512c130.79 0 236.641-105.838 236.641-236.641 0-51.213-16.094-99.954-46.54-140.952a242.33 242.33 0 00-9.828-12.357c29.401 1.847 27.816 1.77 28.746 1.77zM332.309 275.359c0 52.751-42.916 95.667-95.668 95.667-52.751 0-95.667-42.916-95.667-95.667s42.916-95.667 95.667-95.667c23.682 0 45.378 8.653 62.102 22.958l-34.13 34.13c-7.864-5.717-17.528-9.102-27.972-9.102-26.291 0-47.681 21.39-47.681 47.681s21.39 47.681 47.681 47.681c26.292 0 47.682-21.39 47.682-47.681 0-10.445-3.385-20.109-9.102-27.972l34.13-34.13c14.304 16.724 22.958 38.42 22.958 62.102zm-100.972 5.304a7.5 7.5 0 0010.607 0l22.482-22.482a32.475 32.475 0 014.896 17.179c0 18.021-14.661 32.681-32.682 32.681s-32.681-14.661-32.681-32.681 14.66-32.681 32.681-32.681a32.483 32.483 0 0117.179 4.895l-22.483 22.483a7.5 7.5 0 00.001 10.606zm171.85-214.126a3.143 3.143 0 01.915-2.421l44.078-44.077 1.959 31.216-45.082 45.082zm12.477 40.406l45.082-45.082 31.216 1.959-44.078 44.078a3.134 3.134 0 01-2.421.915z"></path>
  </symbol>
  <symbol xmlns="http://www.w3.org/2000/svg" viewBox="0 0 512 512" id="mission">
    <path d="M127.742 87.661l24.048 40.081-24.048 40.081h72.145V87.661z" fill="#ff5f7a"></path>
    <path d="M191.871 55.597a8.016 8.016 0 00-8.016 8.016v72.145H256V55.597z" fill="#ff7e92"></path>
    <path d="M148.067 332.438c-15.652-15.652-41.03-15.652-56.682 0l-49.879 83.885h126.317l12.024-52.105z" fill="#f4aa73"></path>
    <path d="M41.506 416.323l92.829-92.829c-14.379-5.623-31.336-2.67-42.951 8.945L7.5 416.323z" fill="#e29a6c"></path>
    <path d="M404.583 292.357c-15.652-15.652-41.03-15.652-56.682 0l-43.804 43.804v56.113H504.5z" fill="#f4aa73"></path>
    <path d="M273.005 256.972c-9.392-9.392-24.618-9.392-34.01 0L55.793 472.436h432.675z" fill="#e29a6c"></path>
    <path d="M238.995 256.972L23.532 472.436h32.26l216.25-216.25c-9.441-8.512-23.954-8.306-33.047.786z" fill="#d48c64"></path>
    <path d="M273.005 256.972c-9.391-9.391-24.618-9.391-34.01 0L135.758 360.21l16.72 16.72c6.261 6.261 16.412 6.261 22.673 0l27.084-27.084a8.016 8.016 0 0111.336 0l11.052 11.052c6.261 6.261 16.412 6.261 22.673 0l29.912-29.911c5.996-5.996 15.718-5.996 21.714 0l37.928 37.927c6.261 6.261 16.412 6.261 22.673 0l12.712-12.712z" fill="#e3f5ff"></path>
    <path d="M272.042 256.186c-9.441-8.511-23.955-8.305-33.047.787L135.758 360.21l16.13 16.13z" fill="#d1edff"></path>
    <path d="M509.803 386.971l-99.917-99.917c-8.987-8.987-20.935-13.936-33.645-13.936-12.709 0-24.657 4.949-33.644 13.936l-14.453 14.452-49.837-49.837a31.361 31.361 0 00-14.808-8.328V39.565a7.5 7.5 0 00-15 0v8.532H191.87c-8.556 0-15.516 6.96-15.516 15.516v16.548h-48.613a7.5 7.5 0 00-6.431 11.359l21.733 36.222-21.733 36.222a7.499 7.499 0 006.431 11.359h72.146a7.5 7.5 0 000-15h-58.899l17.233-28.722a7.501 7.501 0 000-7.718l-17.233-28.722h35.367v40.597a7.5 7.5 0 007.5 7.5H248.5v100.083a31.361 31.361 0 00-14.808 8.328l-77.894 77.894-2.428-2.428c-18.551-18.551-48.737-18.553-67.289 0L2.197 411.02A7.5 7.5 0 007.5 423.823a7.474 7.474 0 005.303-2.197l83.884-83.885c12.704-12.702 33.374-12.703 46.076 0l2.428 2.428L18.229 467.132a7.5 7.5 0 000 10.606 7.5 7.5 0 0010.606 0l106.923-106.923 11.417 11.417c4.587 4.588 10.614 6.881 16.64 6.881s12.052-2.293 16.64-6.881l27.084-27.084c.038-.037.151-.151.365-.151s.328.114.365.151l11.052 11.052c9.176 9.175 24.105 9.174 33.28 0l29.911-29.912c3.062-3.062 8.045-3.062 11.107 0a7.5 7.5 0 0010.606 0 7.5 7.5 0 000-10.606c-8.91-8.911-23.41-8.911-32.32 0l-29.911 29.911c-3.326 3.327-8.74 3.328-12.067 0l-11.052-11.052c-2.931-2.931-6.827-4.544-10.972-4.544s-8.041 1.614-10.971 4.544l-27.084 27.084c-3.326 3.327-8.739 3.327-12.066 0l-11.417-11.417 97.934-97.934c3.126-3.125 7.281-4.847 11.702-4.847s8.576 1.721 11.702 4.847l93.926 93.926-7.409 7.409c-3.327 3.326-8.739 3.326-12.066 0l-15.566-15.566a7.5 7.5 0 00-10.606 0 7.5 7.5 0 000 10.606l15.566 15.566c4.587 4.588 10.614 6.881 16.64 6.881s12.052-2.293 16.64-6.881l7.409-7.409 110.931 110.931c1.464 1.464 3.384 2.197 5.303 2.197s3.839-.732 5.303-2.197a7.5 7.5 0 000-10.606L338.752 312.113l14.453-14.452c6.154-6.153 14.335-9.542 23.038-9.542s16.884 3.389 23.038 9.542l99.917 99.917c1.464 1.464 3.384 2.197 5.303 2.197s3.839-.732 5.303-2.197a7.5 7.5 0 00-.001-10.607zM191.355 128.258V63.613c0-.285.231-.516.516-.516H248.5v65.162h-57.145z"></path>
  </symbol>
  <symbol xmlns="http://www.w3.org/2000/svg" viewBox="0 0 512 512" id="arrow-left-slide">
    <path d="M501.333 245.333H36.417l141.792-141.792c4.167-4.167 4.167-10.917 0-15.083-4.167-4.167-10.917-4.167-15.083 0l-160 160c-4.167 4.167-4.167 10.917 0 15.083l160 160a10.634 10.634 0 007.542 3.125c2.729 0 5.458-1.042 7.542-3.125 4.167-4.167 4.167-10.917 0-15.083L36.417 266.667h464.917c5.896 0 10.667-4.771 10.667-10.667s-4.772-10.667-10.668-10.667z"></path>
  </symbol>
  <symbol xmlns="http://www.w3.org/2000/svg" viewBox="0 0 512 512" id="arrow-right-slide">
    <path d="M508.875 248.458l-160-160c-4.167-4.167-10.917-4.167-15.083 0-4.167 4.167-4.167 10.917 0 15.083l141.792 141.792H10.667C4.771 245.333 0 250.104 0 256s4.771 10.667 10.667 10.667h464.917L333.792 408.458c-4.167 4.167-4.167 10.917 0 15.083a10.634 10.634 0 007.542 3.125c2.729 0 5.458-1.042 7.542-3.125l160-160c4.166-4.166 4.166-10.916-.001-15.083z"></path>
  </symbol>
  <symbol xmlns="http://www.w3.org/2000/svg" viewBox="0 0 95.333 95.332" id="quote">
    <path d="M30.512 43.939c-2.348-.676-4.696-1.019-6.98-1.019-3.527 0-6.47.806-8.752 1.793 2.2-8.054 7.485-21.951 18.013-23.516a2.501 2.501 0 002.04-1.799l2.301-8.23a2.5 2.5 0 00-2.068-3.15 17.477 17.477 0 00-2.354-.16c-12.637 0-25.152 13.19-30.433 32.076-3.1 11.08-4.009 27.738 3.627 38.223 4.273 5.867 10.507 9 18.529 9.313l.098.002c9.898 0 18.675-6.666 21.345-16.209a22.032 22.032 0 00-2.032-16.851c-2.875-5.105-7.61-8.826-13.334-10.473zm61.959 10.474c-2.875-5.106-7.61-8.827-13.334-10.474-2.348-.676-4.696-1.019-6.979-1.019a21.94 21.94 0 00-8.753 1.793c2.2-8.054 7.485-21.951 18.014-23.516a2.503 2.503 0 002.04-1.799l2.301-8.23a2.5 2.5 0 00-2.068-3.15 17.455 17.455 0 00-2.354-.16c-12.637 0-25.152 13.19-30.434 32.076-3.099 11.08-4.008 27.738 3.629 38.225 4.272 5.866 10.507 9 18.528 9.312l.099.002c9.897 0 18.675-6.666 21.345-16.209a22.045 22.045 0 00-2.034-16.851z"></path>
  </symbol>
  <symbol xmlns="http://www.w3.org/2000/svg" viewBox="0 0 512.131 512.131" id="innovators">
    <path d="M96.432 233.068H64.596v19.249c0 7.943 6.439 14.382 14.382 14.382h3.071c7.943 0 14.382-6.439 14.382-14.382v-19.249zm209.862 134.474l1.948.299c42.202 6.481 75.014-36.06 58.026-75.232l-16.28-37.54a45.432 45.432 0 01-3.288-11.607c-6.488-45.091-45.122-78.563-90.676-78.563-45.555 0-84.189 33.473-90.676 78.563a45.432 45.432 0 01-3.288 11.607l-16.281 37.54c-16.988 39.172 15.823 81.713 58.026 75.232l1.948-.299 31.291-7.509h42.187z" fill="#a59ca6"></path>
    <path d="M279.228 410.586l43.053 17.273c23.875 9.579 39.523 32.717 39.523 58.442v9.311a9.018 9.018 0 01-9.018 9.018H157.258a9.018 9.018 0 01-9.018-9.018v-9.311c0-25.725 15.648-48.863 39.523-58.442l43.053-17.273 13.202-5.305h22.568z" fill="#e79098"></path>
    <path d="M279.228 410.586l-.209-.088-2.805.341-40.415 14.1v-16.355l-4.983 2.002-43.054 17.274c-23.875 9.579-39.522 32.717-39.522 58.441v9.312a9.018 9.018 0 009.018 9.018h15.188v-7.336c0-25.725 15.648-48.863 39.522-58.441l3.647-1.463c4.436-1.78 9.555-.987 13.094 2.226 6.96 6.319 16.193 10.176 26.313 10.176 19.633 0 35.939-14.506 38.769-33.363z" fill="#e17983"></path>
    <path d="M279.228 410.586c0 13.369-10.837 24.206-24.206 24.206s-24.206-10.837-24.206-24.206v-57.948h48.412z" fill="#ffd1c2"></path>
    <path d="M315.882 263.164v69.018c0 33.06-26.8 59.86-59.86 59.86s-59.86-26.8-59.86-59.86v-51.944a70.352 70.352 0 0115.428-43.963 5.006 5.006 0 017.067-.755l2.794 2.273a73.394 73.394 0 0044.386 16.437l42.433 1.119a7.818 7.818 0 017.612 7.815z" fill="#ffe0d1"></path>
    <path d="M204.788 250.574l3.756 2.76c16.905 12.42 37.888 19.436 59.673 19.955l47.665 1.135v-11.259a7.818 7.818 0 00-7.612-7.815l-42.433-1.119a73.397 73.397 0 01-44.386-16.437l-2.794-2.273a5.005 5.005 0 00-7.067.755 70.401 70.401 0 00-8.435 13.416 6.876 6.876 0 011.633.882z" fill="#ffd1c2"></path>
    <path d="M132.884 161.782c0-35.659-35.639-62.994-73.241-48.327-12.459 4.859-22.408 14.716-27.333 27.149-7.545 19.046-4.292 37.605 5.375 51.317l25.199 39.23v7.575a3.342 3.342 0 003.342 3.342h28.579a3.341 3.341 0 003.341-3.341v-7.575l25.199-39.23a52.138 52.138 0 009.539-30.14z" fill="#fbe88c"></path>
    <path d="M85.217 238.726v-7.575l-25.199-39.23c-9.667-13.712-12.92-32.271-5.375-51.317 4.926-12.433 14.874-22.29 27.333-27.149a60.143 60.143 0 019.611-2.875c-9.902-2.135-20.83-1.461-31.945 2.875-12.459 4.86-22.408 14.716-27.333 27.149-7.545 19.046-4.292 37.605 5.375 51.317l25.199 39.23v7.575a3.342 3.342 0 003.342 3.342h22.334a3.342 3.342 0 01-3.342-3.342z" fill="#f9de58"></path>
    <path d="M86.667 189.588H74.361a7.457 7.457 0 01-7.457-7.457v-12.306a7.457 7.457 0 017.457-7.457h12.306a7.457 7.457 0 017.457 7.457v12.306a7.456 7.456 0 01-7.457 7.457z" fill="#f9de58"></path>
    <circle cx="255.022" cy="66.583" fill="#b3e5ee" r="59.084"></circle>
    <path d="M221.735 62.995c0-25.278 15.894-46.855 38.217-55.292a60.036 60.036 0 00-4.931-.203c-32.631 0-59.084 26.453-59.084 59.084s26.453 59.083 59.084 59.083a58.924 58.924 0 0020.88-3.795c-30.327-2.502-54.166-27.904-54.166-58.877z" fill="#86d7e5"></path>
    <path d="M429.62 111.754l14.707 29.8a4.202 4.202 0 003.163 2.298l32.886 4.779c3.446.501 4.822 4.735 2.328 7.165l-23.797 23.196a4.2 4.2 0 00-1.208 3.718l5.618 32.753c.589 3.432-3.013 6.049-6.095 4.428l-29.414-15.464a4.204 4.204 0 00-3.91 0l-29.414 15.464c-3.082 1.62-6.684-.997-6.095-4.428l5.618-32.753a4.2 4.2 0 00-1.208-3.718l-23.797-23.196c-2.493-2.43-1.117-6.665 2.328-7.165l32.886-4.779a4.202 4.202 0 003.163-2.298l14.707-29.8c1.541-3.122 5.993-3.122 7.534 0z" fill="#fbe88c"></path>
    <path d="M463.318 215.464l-.608-3.547-34.551-18.165a4.951 4.951 0 00-4.61 0l-16.367 8.604c-2.215 1.165-4.804-.716-4.381-3.183l3.443-20.071a5.093 5.093 0 00-1.464-4.507l-13.418-13.079c-2.542-2.478-1.139-6.796 2.374-7.306l18.518-2.691a4.77 4.77 0 003.59-2.608l16.058-32.538-2.28-4.62c-1.541-3.122-5.993-3.123-7.534 0l-14.707 29.8a4.2 4.2 0 01-3.163 2.298l-32.887 4.779c-3.446.501-4.822 4.735-2.328 7.166l23.797 23.196a4.2 4.2 0 011.208 3.718l-5.618 32.753c-.589 3.432 3.013 6.049 6.095 4.428l29.415-15.464a4.204 4.204 0 013.91 0l29.415 15.464c3.08 1.622 6.681-.995 6.093-4.427z" fill="#f9de58"></path>
    <path d="M356.868 252.083a37.867 37.867 0 01-2.745-9.689 99.233 99.233 0 00-7.126-25.209 7.498 7.498 0 00-9.859-3.91 7.499 7.499 0 00-3.91 9.859 84.22 84.22 0 016.048 21.396 52.977 52.977 0 003.831 13.522l16.28 37.54c6.876 15.854 4.68 33.488-5.874 47.172-8.992 11.658-22.302 18.15-36.605 18.204a66.95 66.95 0 006.475-28.786v-69.019c0-8.365-6.551-15.091-14.915-15.312l-42.433-1.118c-14.471-.382-28.623-5.623-39.851-14.757l-2.793-2.273a12.429 12.429 0 00-9.222-2.735 12.42 12.42 0 00-8.436 4.621c-11.009 13.755-17.072 31.032-17.072 48.649v51.944a66.953 66.953 0 006.475 28.786c-14.302-.053-27.613-6.545-36.604-18.204-10.555-13.684-12.751-31.317-5.875-47.172l16.28-37.539a52.996 52.996 0 003.831-13.523c2.881-20.022 12.888-38.345 28.176-51.591s34.849-20.541 55.077-20.541c22.86 0 44.251 9.023 60.231 25.408 2.891 2.967 7.64 3.024 10.605.133s3.025-7.641.133-10.605c-18.827-19.305-44.031-29.936-70.97-29.936-23.836 0-46.885 8.596-64.899 24.204s-29.806 37.198-33.201 60.791a37.863 37.863 0 01-2.745 9.69l-16.28 37.54c-9.081 20.939-6.181 44.229 7.759 62.302 11.924 15.46 29.59 24.076 48.57 24.075 3.012 0 6.062-.226 9.123-.667a67.84 67.84 0 0018.968 15.707v14.474l-38.347 15.384c-26.868 10.78-44.229 36.453-44.229 65.403v18.329c0 4.143 3.357 7.5 7.5 7.5s7.5-3.357 7.5-7.5v-18.329c0-22.788 13.666-42.996 34.815-51.481l34.517-13.848c4.311 12.396 16.105 21.319 29.95 21.319s25.639-8.924 29.95-21.319l34.521 13.85c.906.363 1.863.784 3.013 1.325a7.502 7.502 0 006.385-13.574 71.048 71.048 0 00-3.815-1.674l-38.347-15.385v-13.409a67.78 67.78 0 0020.968-16.772c3.062.442 6.109.667 9.123.667 18.979 0 36.647-8.616 48.57-24.075 13.939-18.072 16.84-41.362 7.759-62.302zm-85.14 158.504c0 9.211-7.494 16.705-16.706 16.705s-16.706-7.494-16.706-16.705v-13.423a67.185 67.185 0 0017.706 2.378c5.408 0 10.663-.658 15.706-1.868zm-15.706-26.045c-28.871 0-52.36-23.488-52.36-52.359v-51.944c0-13.384 4.334-26.524 12.251-37.281l.805.655c13.784 11.213 31.158 17.646 48.922 18.115l42.432 1.118a.318.318 0 01.312.318v69.019c-.002 28.871-23.491 52.359-52.362 52.359zm89.864 59.259a7.498 7.498 0 00-1.788 10.454c6.677 9.433 10.206 20.514 10.206 32.047v18.329c0 4.143 3.357 7.5 7.5 7.5s7.5-3.357 7.5-7.5v-18.329c0-14.655-4.482-28.733-12.964-40.713a7.497 7.497 0 00-10.454-1.788zM114.255 112.32c-16.707-11.416-37.605-13.553-57.339-5.854-14.395 5.614-25.904 17.05-31.58 31.374-3.693 9.323-5.217 18.857-4.526 28.338a7.493 7.493 0 008.025 6.936 7.501 7.501 0 006.936-8.025c-.525-7.209.656-14.518 3.511-21.723 4.146-10.464 12.561-18.819 23.086-22.925 15.044-5.868 30.873-4.314 43.425 4.264a44.888 44.888 0 0119.591 37.077c0 9.31-2.825 18.236-8.169 25.817a9.67 9.67 0 00-.181.268l-25.199 39.23a7.508 7.508 0 00-1.189 4.054v3.416h-2.631V197.02c7.618-.684 13.61-7.096 13.61-14.889v-12.307c0-8.247-6.71-14.957-14.957-14.957H74.361c-8.247 0-14.957 6.71-14.957 14.957v12.307c0 7.792 5.993 14.205 13.61 14.889v37.548h-2.631v-3.416a7.508 7.508 0 00-1.189-4.054l-22.932-35.701a7.5 7.5 0 00-12.621 8.107l21.742 33.849v5.373c0 2.145.634 4.141 1.713 5.826v7.766c0 12.065 9.816 21.882 21.883 21.882h3.07c12.066 0 21.883-9.816 21.883-21.882v-7.766a10.767 10.767 0 001.713-5.826v-5.373l23.925-37.247c7.074-10.094 10.813-21.959 10.813-34.323a59.882 59.882 0 00-26.128-49.463zm-27.631 57.504l.048 12.264-5.759.02c-.133-.007-.265-.02-.4-.02-.155 0-.307.014-.459.023l-5.651.02-.043-12.264zm2.308 82.493c0 3.795-3.088 6.882-6.883 6.882h-3.07c-3.795 0-6.883-3.087-6.883-6.882v-2.75h16.836zm166.09-119.15c36.715 0 66.584-29.869 66.584-66.584C321.606 29.869 291.737 0 255.022 0s-66.584 29.869-66.584 66.583c0 36.715 29.869 66.584 66.584 66.584zm0-118.167c28.443 0 51.584 23.14 51.584 51.583s-23.141 51.584-51.584 51.584-51.584-23.141-51.584-51.584S226.579 15 255.022 15z"></path>
    <path d="M241.834 91.611c1.464 1.464 3.384 2.196 5.303 2.196s3.839-.732 5.304-2.196l35.038-35.038a7.5 7.5 0 00-10.607-10.607l-29.734 29.735-5.046-5.045a7.5 7.5 0 00-10.606.001 7.498 7.498 0 00.001 10.606zm249.068 57.564a11.63 11.63 0 00-9.447-7.966l-31.169-4.529-13.939-28.245a11.63 11.63 0 00-10.493-6.522 11.63 11.63 0 00-10.492 6.522l-13.94 28.245-31.17 4.529a11.627 11.627 0 00-9.445 7.965 11.628 11.628 0 002.961 11.993l22.555 21.985-5.325 31.045a11.63 11.63 0 004.656 11.443 11.625 11.625 0 0012.322.891l27.879-14.657 27.88 14.657a11.705 11.705 0 005.455 1.356c2.416 0 4.816-.758 6.868-2.248a11.627 11.627 0 004.653-11.443l-5.324-31.043 22.553-21.985a11.629 11.629 0 002.962-11.993zm-37.228 24.445a11.7 11.7 0 00-3.366 10.358l4.487 26.165-23.496-12.353a11.7 11.7 0 00-10.891-.001l-23.497 12.354 4.488-26.167a11.699 11.699 0 00-3.365-10.355l-19.01-18.529 26.273-3.817a11.699 11.699 0 008.807-6.401l11.749-23.806L437.6 144.87a11.698 11.698 0 008.812 6.404l26.27 3.817zM334.549 96.204a218.338 218.338 0 0133.097 16.281c-3.302 1.551-5.069 5.316-3.996 8.919a7.503 7.503 0 009.33 5.046l14.208-4.232a7.498 7.498 0 005.358-7.188V99.662c0-4.143-3.357-7.5-7.5-7.5s-7.5 3.357-7.5 7.5v1.296C365.61 93.605 353.022 87.309 340 82.229a7.5 7.5 0 00-9.713 4.262 7.502 7.502 0 004.262 9.713zm-197.877 18.472a7.465 7.465 0 003.919-1.11 219.334 219.334 0 0121.744-11.714l-.39 1.46a7.501 7.501 0 0014.491 3.874l4.58-17.138a7.499 7.499 0 00-4.829-9.036l-13.744-4.678c-3.918-1.338-8.182.761-9.516 4.684a7.491 7.491 0 001.883 7.795 234.378 234.378 0 00-22.07 11.973 7.5 7.5 0 003.932 13.89z"></path>
  </symbol>
  <symbol xmlns="http://www.w3.org/2000/svg" viewBox="0 0 508.18 508.18" id="entrepreneurial">
    <path d="M217.179 464.656l36.785-10 36.785 10v3.069c0 20.316-16.469 36.785-36.785 36.785-20.316 0-36.785-16.469-36.785-36.785z" fill="#60b7ff"></path>
    <path d="M281.06 464.656h-64.192c-7.242 0-13.113-5.871-13.113-13.113v-87.305l50.209-10 40.209 10v87.305c.001 7.242-5.87 13.113-13.113 13.113z" fill="#c4e2ff"></path>
    <path d="M277.174 360.01v91.533c0 7.242-5.871 13.113-13.113 13.113h27c7.242 0 13.114-5.871 13.114-13.113v-87.305z" fill="#8ac9fe"></path>
    <path d="M373.847 199.78c0-71.112-47.205-128.864-118.108-129.747-71.59-.892-131.407 58.152-131.407 129.747 0 38.383 16.667 72.87 43.158 96.625 19.202 17.22 31.72 40.66 35.975 66.098l.29 1.734h100.419l.245-1.467c4.329-25.882 7.533-49.323 26.947-66.979 26.098-23.732 42.481-57.957 42.481-96.011z" fill="#fed402"></path>
    <path d="M255.739 70.033a127.895 127.895 0 00-15.019.706c65.255 6.813 116.127 61.982 116.127 129.041 0 38.055-16.384 72.279-42.481 96.012-19.414 17.656-32.618 41.096-36.947 66.979l-.245 1.467h27l.245-1.467c4.329-25.882 17.533-49.323 36.947-66.979 26.097-23.733 42.481-57.957 42.481-96.012 0-71.113-57.205-128.864-128.108-129.747z" fill="#fac600"></path>
    <path d="M341.739 210.67v-21.78a5 5 0 00-5-5h-20.544a63.706 63.706 0 00-6.96-16.783l14.533-14.533a5 5 0 000-7.071l-15.4-15.4a5 5 0 00-7.071 0l-14.533 14.533a63.742 63.742 0 00-16.783-6.961v-20.544a5 5 0 00-5-5H243.2a5 5 0 00-5 5v20.544a63.706 63.706 0 00-16.783 6.96l-14.533-14.533a5 5 0 00-7.071 0l-15.4 15.4a5 5 0 000 7.071l14.533 14.533a63.706 63.706 0 00-6.96 16.783h-20.544a5 5 0 00-5 5v21.78a5 5 0 005 5h20.544a63.706 63.706 0 006.96 16.783l-14.533 14.533a5 5 0 000 7.071l15.4 15.4a5 5 0 007.071 0l14.533-14.533a63.706 63.706 0 0016.783 6.96v20.544a5 5 0 005 5h21.78a5 5 0 005-5v-20.544a63.706 63.706 0 0016.783-6.96l14.533 14.533a5 5 0 007.071 0l15.4-15.4a5 5 0 000-7.071l-14.533-14.533a63.742 63.742 0 006.961-16.783h20.544c2.761.001 5-2.238 5-4.999zm-87.649 20.079c-17.104 0-30.969-13.865-30.969-30.969s13.865-30.969 30.969-30.969 30.969 13.865 30.969 30.969-13.866 30.969-30.969 30.969z" fill="#efedef"></path>
    <path d="M254.09 48.662a7.5 7.5 0 007.5-7.5V7.5a7.5 7.5 0 00-15 0v33.662a7.5 7.5 0 007.5 7.5zm130.651 9.849l-23.803 23.803a7.5 7.5 0 005.304 12.803 7.478 7.478 0 005.304-2.197l23.803-23.803a7.5 7.5 0 000-10.606 7.503 7.503 0 00-10.608 0zM136.634 306.618l-23.803 23.803a7.5 7.5 0 005.303 12.803 7.474 7.474 0 005.303-2.197l23.803-23.803a7.5 7.5 0 000-10.606 7.5 7.5 0 00-10.606 0zm0-213.698c1.464 1.464 3.384 2.197 5.303 2.197s3.839-.732 5.303-2.197a7.5 7.5 0 000-10.606l-23.803-23.803a7.5 7.5 0 00-10.606 0 7.5 7.5 0 000 10.606zm234.912 213.698a7.5 7.5 0 00-10.607 10.606l23.803 23.803c1.465 1.464 3.385 2.197 5.304 2.197s3.839-.732 5.304-2.197a7.5 7.5 0 000-10.606zM95.483 192.269H61.82a7.5 7.5 0 000 15h33.662a7.5 7.5 0 00.001-15zm350.876 0h-33.662c-4.143 0-7.5 3.358-7.5 7.5s3.357 7.5 7.5 7.5h33.662c4.143 0 7.5-3.358 7.5-7.5s-3.357-7.5-7.5-7.5z"></path>
    <path d="M314.384 405.2c4.143 0 7.5-3.358 7.5-7.5s-3.357-7.5-7.5-7.5h-2.71v-25.35l.143-.853a106.31 106.31 0 018.171-26.633 7.5 7.5 0 00-13.644-6.232 121.585 121.585 0 00-8.406 25.596h-87.929c-5.261-25.567-18.462-48.836-37.51-65.917-22.502-20.178-36.687-47.757-39.941-77.655a7.5 7.5 0 10-14.912 1.623c3.655 33.58 19.579 64.548 44.839 87.199 17.644 15.822 29.571 37.753 33.585 61.751l.188 1.122V390.2h-2.46a7.5 7.5 0 000 15h2.46v18.473h-2.46a7.5 7.5 0 000 15h2.46v12.86c0 8.876 5.65 16.437 13.533 19.334 1.091 15.654 10.266 29.46 24.494 36.529a7.501 7.501 0 0010.054-3.38 7.5 7.5 0 00-3.38-10.054c-8.694-4.32-14.528-12.443-15.939-21.816h57.894c-1.41 9.373-7.244 17.496-15.938 21.815a7.5 7.5 0 106.674 13.433c14.228-7.069 23.402-20.875 24.493-36.528 7.884-2.897 13.533-10.458 13.533-19.334v-12.86h2.71c4.143 0 7.5-3.358 7.5-7.5s-3.357-7.5-7.5-7.5h-2.71V405.2zm-103.129-33.473h85.418V390.2h-85.418zm85.419 79.805a5.62 5.62 0 01-5.613 5.613h-74.192a5.62 5.62 0 01-5.613-5.613v-12.86h85.418zm0-27.86h-85.418V405.2h85.418zM254.09 238.238c21.212 0 38.469-17.257 38.469-38.469S275.301 161.3 254.09 161.3c-21.212 0-38.469 17.257-38.469 38.469s17.257 38.469 38.469 38.469zm0-61.938c12.94 0 23.469 10.528 23.469 23.469s-10.528 23.469-23.469 23.469-23.469-10.528-23.469-23.469S241.149 176.3 254.09 176.3z"></path>
    <path d="M171.441 176.379c-6.893 0-12.5 5.607-12.5 12.5v21.78c0 6.893 5.607 12.5 12.5 12.5h14.97a71.248 71.248 0 003.287 7.924l-10.589 10.589c-4.874 4.874-4.874 12.804 0 17.677l15.4 15.4c4.874 4.874 12.804 4.874 17.678 0l10.589-10.588a71.248 71.248 0 007.924 3.287v14.97c0 6.893 5.607 12.5 12.5 12.5h21.779c6.893 0 12.5-5.607 12.5-12.5v-14.97a71.248 71.248 0 007.924-3.287l10.589 10.588c2.36 2.361 5.5 3.662 8.839 3.662s6.478-1.3 8.84-3.661l15.4-15.401c4.872-4.874 4.872-12.803 0-17.677l-10.589-10.589a70.862 70.862 0 003.286-7.924h14.971c6.893 0 12.5-5.607 12.5-12.5v-21.78c0-6.893-5.607-12.5-12.5-12.5h-14.971a71.13 71.13 0 00-3.286-7.924l10.589-10.589c4.872-4.874 4.872-12.803 0-17.677l-15.401-15.401c-2.361-2.36-5.5-3.66-8.839-3.66s-6.478 1.3-8.839 3.661l-10.589 10.589a71.058 71.058 0 00-7.924-3.287v-14.97c0-6.893-5.607-12.5-12.5-12.5H243.2c-6.893 0-12.5 5.607-12.5 12.5v14.97a71.058 71.058 0 00-7.924 3.287l-10.589-10.589c-4.874-4.874-12.804-4.874-17.678 0l-15.4 15.4c-4.874 4.874-4.874 12.804 0 17.678l10.589 10.589a71.254 71.254 0 00-3.288 7.924h-14.969zm32.808-14.586l-12.766-12.765 11.865-11.865 12.765 12.766a7.5 7.5 0 009.133 1.145 56.21 56.21 0 0114.808-6.142 7.5 7.5 0 005.646-7.268V119.62h16.779v18.044a7.5 7.5 0 005.647 7.268 56.19 56.19 0 0114.808 6.142 7.5 7.5 0 009.133-1.145l12.765-12.766 11.865 11.865-12.766 12.766a7.5 7.5 0 00-1.145 9.133 56.194 56.194 0 016.141 14.806 7.5 7.5 0 007.268 5.647h18.045v16.78h-18.045a7.501 7.501 0 00-7.268 5.647 56.18 56.18 0 01-6.141 14.806 7.5 7.5 0 001.145 9.133l12.766 12.766-11.865 11.865-12.765-12.765a7.498 7.498 0 00-9.133-1.146 56.215 56.215 0 01-14.808 6.142 7.5 7.5 0 00-5.647 7.267v18.044H245.7v-18.044a7.5 7.5 0 00-5.646-7.267 56.262 56.262 0 01-14.808-6.142 7.5 7.5 0 00-9.133 1.146l-12.765 12.765-11.865-11.865 12.765-12.766a7.5 7.5 0 001.146-9.133 56.23 56.23 0 01-6.143-14.807 7.5 7.5 0 00-7.267-5.646H173.94v-16.78h18.044a7.5 7.5 0 007.267-5.646 56.232 56.232 0 016.143-14.808 7.5 7.5 0 00-1.145-9.133z"></path>
    <path d="M351.717 103.288c-25.535-25.835-59.587-40.313-95.884-40.765-33.638-.404-66.256 11.745-91.895 34.25-25.407 22.302-41.742 52.735-45.996 85.693a7.5 7.5 0 0014.877 1.919c3.786-29.336 18.352-56.447 41.014-76.339 22.849-20.057 51.937-30.914 81.812-30.525 32.328.403 62.658 13.298 85.402 36.31 22.764 23.032 35.3 53.552 35.3 85.938 0 34.358-14.59 67.331-40.027 90.463a129.124 129.124 0 00-11.074 11.395 7.5 7.5 0 00.808 10.576 7.468 7.468 0 004.88 1.809 7.481 7.481 0 005.695-2.616 114.117 114.117 0 019.783-10.065c28.558-25.97 44.936-62.987 44.936-101.561-.001-36.36-14.075-70.624-39.631-96.482z"></path>
  </symbol>
  <symbol xmlns="http://www.w3.org/2000/svg" viewBox="0 0 512 512" id="360-partnership">
    <path clip-rule="evenodd" d="M114.427 274.059C50.098 287.119 8.003 308.828 8.003 333.42c0 12.664 11.146 24.536 30.722 34.882 31.146-16.451 83.651-29.002 146.623-34.429-28.798-13.088-53.325-33.921-70.921-59.814zm283.118 0c-17.568 25.893-42.123 46.726-70.921 59.813 62.972 5.427 115.476 17.978 146.623 34.429 19.604-10.346 30.75-22.218 30.75-34.882 0-24.591-42.123-46.3-106.452-59.36z" fill="#808b95" fill-rule="evenodd"></path>
    <path clip-rule="evenodd" d="M473.246 368.302c-16.238 8.593-38.247 16.084-64.528 22.077-4.894 1.131-5.46 3.901-5.46 8.593v58.343c0 2.205.424 3.618 2.97 3.053 59.407-13.201 97.767-34.062 97.767-57.524V333.42c.002 12.664-11.144 24.536-30.749 34.882zm-217.26 37.425c-93.552 0-175.025-15.123-217.261-37.426-19.576-10.345-30.722-22.217-30.722-34.881v69.424c0 39.941 111.035 72.307 247.983 72.307v26.826c0 .424.028.791.085 1.131h4.215l81.925-59.135c3.423-1.724 3.423-5.371 0-7.095l-82.915-59.813c-2.405-1.215-3.31-.961-3.31 1.837z" fill="#e7ecf1" fill-rule="evenodd"></path>
    <path clip-rule="evenodd" d="M255.986 7.5c-94.401 0-170.923 76.463-170.923 170.79 0 35.475 10.835 68.435 29.364 95.769 17.596 25.893 42.123 46.726 70.921 59.813 21.528 9.78 45.461 15.208 70.638 15.208 25.206 0 49.11-5.427 70.638-15.208 28.798-13.088 53.353-33.921 70.921-59.813 18.558-27.334 29.364-60.294 29.364-95.769 0-94.327-76.522-170.79-170.923-170.79z" fill="#ffdb4e" fill-rule="evenodd"></path>
    <path clip-rule="evenodd" d="M480.064 364.457v56.054c0 6.021-2.546 11.872-7.299 17.469 19.887-10.402 31.231-22.388 31.231-35.136V333.42c.001 11.109-8.599 21.624-23.932 31.037z" fill="#c6d0da" fill-rule="evenodd"></path>
    <path clip-rule="evenodd" d="M255.986 7.5c-7.638 0-15.191.509-22.575 1.47 84.386 10.459 149.678 82.342 149.678 169.49 0 86.695-64.612 158.296-148.348 169.32 6.959.876 14.06 1.3 21.245 1.3 25.206 0 49.11-5.427 70.638-15.208 28.798-13.088 53.353-33.921 70.921-59.813 18.558-27.334 29.364-60.294 29.364-95.769 0-94.327-76.522-170.79-170.923-170.79z" fill="#ffaf5d" fill-rule="evenodd"></path>
    <path d="M188.432 209.262h-35.73a7.5 7.5 0 000 15h35.73c8.643 0 15.675-7.017 15.675-15.641v-56.223c0-8.624-7.032-15.641-15.675-15.641h-35.73a7.5 7.5 0 000 15h35.73c.347 0 .675.312.675.641v20.626h-36.405a7.5 7.5 0 000 15h36.405v20.598c0 .328-.328.64-.675.64zm47.638-57.506h35.758c4.143 0 7.5-3.358 7.5-7.5s-3.357-7.5-7.5-7.5H236.07c-8.628 0-15.647 7.017-15.647 15.641v56.223c0 8.624 7.019 15.641 15.647 15.641h27.582c8.643 0 15.676-7.017 15.676-15.641v-19.957c0-8.624-7.032-15.641-15.676-15.641h-28.229v-20.626c0-.322.32-.64.647-.64zm27.582 36.267c.36 0 .676.3.676.641v19.957c0 .33-.328.641-.676.641H236.07c-.327 0-.647-.317-.647-.641v-20.598zm47.639-51.267c-8.628 0-15.647 7.017-15.647 15.641v56.223c0 8.624 7.019 15.641 15.647 15.641h27.582c8.628 0 15.647-7.017 15.647-15.641v-56.223c0-8.624-7.019-15.641-15.647-15.641zm28.229 15.641v56.223c0 .324-.32.641-.647.641h-27.582a.67.67 0 01-.647-.641v-56.223c0-.335.309-.641.647-.641h27.582c.327 0 .647.318.647.641zm30.769-27.973a7.5 7.5 0 005.304 12.803 7.478 7.478 0 005.304-2.197l.028-.028c2.929-2.929 2.914-7.663-.015-10.592s-7.691-2.914-10.621.014z"></path>
    <path d="M478.486 292.832c-17.007-9.28-40.697-17.461-68.939-23.859 15.783-26.586 24.862-57.592 24.862-90.682 0-4.142-3.357-7.5-7.5-7.5s-7.5 3.358-7.5 7.5c0 90.038-73.312 163.29-163.423 163.29S92.563 268.328 92.563 178.29 165.874 15 255.986 15c77.325 0 144.667 54.838 160.124 130.392a7.498 7.498 0 008.85 5.844 7.5 7.5 0 005.845-8.851c-8.112-39.654-29.885-75.762-61.309-101.671C337.654 14.459 297.342 0 255.986 0 157.603 0 77.563 79.98 77.563 178.29c0 33.09 9.079 64.097 24.862 90.682-28.239 6.398-51.924 14.578-68.927 23.859C11.604 304.783.503 318.439.503 333.42v69.424c0 26.309 35.305 49.001 99.411 63.896a7.501 7.501 0 003.394-14.61c-64.739-15.042-87.806-35.322-87.806-49.286v-41.068c12.945 11.423 34.128 21.547 63.037 29.976 47.499 13.848 110.518 21.475 177.446 21.475a7.5 7.5 0 007.499-7.5v-16.392l70.824 51.091-70.824 51.115v-16.389a7.5 7.5 0 00-7.499-7.5c-41.556 0-82.639-3.085-118.807-8.922a7.5 7.5 0 00-2.39 14.808c34.763 5.61 73.92 8.729 113.697 9.078v19.36c0 4.061 1.418 7.001 4.216 8.74a8.335 8.335 0 004.481 1.283c2.473 0 4.536-1.018 5.432-1.46a7.407 7.407 0 001.07-.644l82.52-59.557c3.816-2.166 6.073-5.827 6.073-9.914-.001-4.087-2.257-7.747-6.074-9.913l-82.521-59.529a7.49 7.49 0 00-1.004-.611c-1.402-.709-5.673-2.868-9.939-.243-2.823 1.736-4.254 4.688-4.254 8.774v19.289c-62.729-.544-121.34-7.893-165.748-20.84-9.662-2.817-18.417-5.854-26.193-9.044 30.901-12.665 76.184-22.237 127.675-26.804 21.972 9.684 46.249 15.076 71.765 15.076 25.517 0 49.793-5.391 71.766-15.076 51.542 4.57 96.866 14.157 127.773 26.844-12.671 5.184-28.66 10.199-48.493 14.723-11.272 2.604-11.272 12.264-11.272 15.901v58.343c0 1.433 0 5.795 3.588 8.673 1.229.986 3.154 2.005 5.859 2.005.811 0 1.695-.092 2.65-.304 66.833-14.85 103.64-37.879 103.64-64.845V333.42c.002-14.981-11.105-28.637-33.009-40.588zM38.834 359.828c-15.029-8.521-23.331-17.66-23.331-26.408 0-18.714 37.403-38.569 95.721-51.031a179.798 179.798 0 0049.344 46.489c-50.781 6.072-93.253 16.836-121.734 30.95zm457.663 43.016c0 17.419-33.431 36.333-85.738 48.786v-52.658c0-.584.012-1.031.028-1.373 40.383-9.25 69.474-21.559 85.71-35.921zm-23.291-42.982c-28.484-14.133-70.984-24.909-121.802-30.984a179.78 179.78 0 0049.343-46.489c58.336 12.465 95.749 32.32 95.749 51.031.001 7.595-6.786 17.015-23.29 26.442z"></path>
  </symbol>
</svg>