<svg id="Capa_1" enable-background="new 0 0 512 512" height="512" viewBox="0 0 512 512" width="512" xmlns="http://www.w3.org/2000/svg"><g><g><g><path d="m123.791 219.458-31.855 30.152c-10.482-6.314-18.695-16.025-23.099-27.595l35.449-33.57z" fill="#17998c"/><g><g><path d="m25.469 305.774c-4.763 0-9.516-1.882-13.049-5.614-6.822-7.205-6.511-18.576.695-25.398l91.173-86.317c3.336-3.159 7.757-4.919 12.351-4.919h199.4l142.166-142.168c7.016-7.016 18.391-7.016 25.408 0 7.016 7.016 7.016 18.391 0 25.408l-147.43 147.429c-3.37 3.369-7.939 5.262-12.704 5.262h-199.686l-85.976 81.398c-3.473 3.288-7.915 4.919-12.348 4.919z" fill="#20b69f"/></g><path d="m483.617 66.761-33.406 33.406c-1.406-3.994-2.176-8.295-2.176-12.771v-10.308h-10.307c-4.558 0-8.932-.79-12.987-2.258l33.467-33.467c7.012-7.022 18.387-7.022 25.409 0 7.012 7.011 7.012 18.386 0 25.398z" fill="#17998c"/><g><path d="m486.534 105.359c-9.922 0-17.966-8.043-17.966-17.966v-30.839h-30.838c-9.922 0-17.966-8.043-17.966-17.966s8.043-17.966 17.966-17.966h48.804c9.922 0 17.966 8.043 17.966 17.966v48.804c0 9.923-8.043 17.967-17.966 17.967z" fill="#23f1a8"/></g></g><g><circle cx="120.229" cy="202.483" fill="#23f1a8" r="34.452"/><path d="m154.682 202.478c0 19.033-15.43 34.453-34.453 34.453-6.95 0-13.428-2.063-18.849-5.616 15.071-.965 27.01-13.51 27.01-28.837s-11.939-27.872-27.02-28.827c5.42-3.552 11.898-5.616 18.859-5.616 19.023.001 34.453 15.42 34.453 34.443z" fill="#26d192"/></g><g><circle cx="324.534" cy="197.483" fill="#23f1a8" r="34.452"/><path d="m358.987 197.478c0 19.033-15.43 34.453-34.453 34.453-6.95 0-13.428-2.063-18.849-5.616 15.071-.965 27.01-13.51 27.01-28.837s-11.939-27.872-27.02-28.827c5.42-3.552 11.898-5.616 18.859-5.616 19.023.001 34.453 15.42 34.453 34.443z" fill="#26d192"/></g></g></g><g><g><g><path d="m98.604 491.377h-81.921c-5.072 0-9.183-4.111-9.183-9.183v-18.448c0-5.072 4.111-9.183 9.183-9.183h81.921c5.072 0 9.183 4.111 9.183 9.183v18.448c0 5.072-4.111 9.183-9.183 9.183z" fill="#ffd496"/><path d="m107.789 463.748v18.449c0 5.069-4.114 9.183-9.183 9.183h-28.698c5.069 0 9.183-4.114 9.183-9.183v-18.449c0-5.069-4.114-9.183-9.183-9.183h28.697c5.07 0 9.184 4.114 9.184 9.183z" fill="#fcc16d"/></g><g><path d="m98.604 454.56h-81.921c-5.072 0-9.183-4.111-9.183-9.183v-18.448c0-5.072 4.111-9.183 9.183-9.183h81.921c5.072 0 9.183 4.111 9.183 9.183v18.448c0 5.072-4.111 9.183-9.183 9.183z" fill="#fca62f"/><path d="m107.789 426.931v18.449c0 5.069-4.114 9.183-9.183 9.183h-28.698c5.069 0 9.183-4.114 9.183-9.183v-18.449c0-5.069-4.114-9.183-9.183-9.183h28.697c5.07 0 9.184 4.114 9.184 9.183z" fill="#f98824"/></g><g><path d="m98.604 417.743h-81.921c-5.072 0-9.183-4.111-9.183-9.183v-18.448c0-5.072 4.111-9.183 9.183-9.183h81.921c5.072 0 9.183 4.111 9.183 9.183v18.448c0 5.072-4.111 9.183-9.183 9.183z" fill="#ffd496"/><path d="m107.789 390.114v18.449c0 5.069-4.114 9.183-9.183 9.183h-28.698c5.069 0 9.183-4.114 9.183-9.183v-18.449c0-5.069-4.114-9.183-9.183-9.183h28.697c5.07 0 9.184 4.114 9.184 9.183z" fill="#fcc16d"/></g><g><path d="m98.604 380.927h-81.921c-5.072 0-9.183-4.111-9.183-9.183v-18.448c0-5.072 4.111-9.183 9.183-9.183h81.921c5.072 0 9.183 4.111 9.183 9.183v18.448c0 5.072-4.111 9.183-9.183 9.183z" fill="#fca62f"/><path d="m107.789 353.298v18.449c0 5.069-4.114 9.183-9.183 9.183h-28.698c5.069 0 9.183-4.114 9.183-9.183v-18.449c0-5.069-4.114-9.183-9.183-9.183h28.697c5.07 0 9.184 4.114 9.184 9.183z" fill="#f98824"/></g></g><g><g><path d="m230.841 491.377h-81.921c-5.072 0-9.183-4.111-9.183-9.183v-18.448c0-5.072 4.111-9.183 9.183-9.183h81.921c5.072 0 9.183 4.111 9.183 9.183v18.448c0 5.072-4.111 9.183-9.183 9.183z" fill="#fca62f"/><path d="m240.026 463.748v18.449c0 5.069-4.114 9.183-9.183 9.183h-28.697c5.069 0 9.183-4.114 9.183-9.183v-18.449c0-5.069-4.114-9.183-9.183-9.183h28.697c5.069 0 9.183 4.114 9.183 9.183z" fill="#f98824"/></g><g><path d="m230.841 454.56h-81.921c-5.072 0-9.183-4.111-9.183-9.183v-18.448c0-5.072 4.111-9.183 9.183-9.183h81.921c5.072 0 9.183 4.111 9.183 9.183v18.448c0 5.072-4.111 9.183-9.183 9.183z" fill="#ffd496"/><path d="m240.026 426.931v18.449c0 5.069-4.114 9.183-9.183 9.183h-28.697c5.069 0 9.183-4.114 9.183-9.183v-18.449c0-5.069-4.114-9.183-9.183-9.183h28.697c5.069 0 9.183 4.114 9.183 9.183z" fill="#fcc16d"/></g><g><path d="m230.841 417.743h-81.921c-5.072 0-9.183-4.111-9.183-9.183v-18.448c0-5.072 4.111-9.183 9.183-9.183h81.921c5.072 0 9.183 4.111 9.183 9.183v18.448c0 5.072-4.111 9.183-9.183 9.183z" fill="#fca62f"/><path d="m240.026 390.114v18.449c0 5.069-4.114 9.183-9.183 9.183h-28.697c5.069 0 9.183-4.114 9.183-9.183v-18.449c0-5.069-4.114-9.183-9.183-9.183h28.697c5.069 0 9.183 4.114 9.183 9.183z" fill="#f98824"/></g></g><g><g><path d="m363.078 491.377h-81.921c-5.072 0-9.183-4.111-9.183-9.183v-18.448c0-5.072 4.111-9.183 9.183-9.183h81.921c5.072 0 9.183 4.111 9.183 9.183v18.448c0 5.072-4.111 9.183-9.183 9.183z" fill="#ffd496"/><path d="m372.263 463.748v18.449c0 5.069-4.114 9.183-9.183 9.183h-28.697c5.069 0 9.183-4.114 9.183-9.183v-18.449c0-5.069-4.114-9.183-9.183-9.183h28.697c5.069 0 9.183 4.114 9.183 9.183z" fill="#fcc16d"/></g><g><path d="m363.078 454.56h-81.921c-5.072 0-9.183-4.111-9.183-9.183v-18.448c0-5.072 4.111-9.183 9.183-9.183h81.921c5.072 0 9.183 4.111 9.183 9.183v18.448c0 5.072-4.111 9.183-9.183 9.183z" fill="#fca62f"/><path d="m372.263 426.931v18.449c0 5.069-4.114 9.183-9.183 9.183h-28.697c5.069 0 9.183-4.114 9.183-9.183v-18.449c0-5.069-4.114-9.183-9.183-9.183h28.697c5.069 0 9.183 4.114 9.183 9.183z" fill="#f98824"/></g><g><path d="m363.078 417.743h-81.921c-5.072 0-9.183-4.111-9.183-9.183v-18.448c0-5.072 4.111-9.183 9.183-9.183h81.921c5.072 0 9.183 4.111 9.183 9.183v18.448c0 5.072-4.111 9.183-9.183 9.183z" fill="#ffd496"/><path d="m372.263 390.114v18.449c0 5.069-4.114 9.183-9.183 9.183h-28.697c5.069 0 9.183-4.114 9.183-9.183v-18.449c0-5.069-4.114-9.183-9.183-9.183h28.697c5.069 0 9.183 4.114 9.183 9.183z" fill="#fcc16d"/></g></g><g><g><path d="m495.315 491.377h-81.921c-5.072 0-9.183-4.111-9.183-9.183v-18.448c0-5.072 4.111-9.183 9.183-9.183h81.921c5.072 0 9.183 4.111 9.183 9.183v18.448c0 5.072-4.111 9.183-9.183 9.183z" fill="#fca62f"/><path d="m504.5 463.748v18.449c0 5.069-4.114 9.183-9.183 9.183h-28.697c5.069 0 9.183-4.114 9.183-9.183v-18.449c0-5.069-4.114-9.183-9.183-9.183h28.697c5.069 0 9.183 4.114 9.183 9.183z" fill="#f98824"/></g><g><path d="m495.315 454.56h-81.921c-5.072 0-9.183-4.111-9.183-9.183v-18.448c0-5.072 4.111-9.183 9.183-9.183h81.921c5.072 0 9.183 4.111 9.183 9.183v18.448c0 5.072-4.111 9.183-9.183 9.183z" fill="#ffd496"/><path d="m504.5 426.931v18.449c0 5.069-4.114 9.183-9.183 9.183h-28.697c5.069 0 9.183-4.114 9.183-9.183v-18.449c0-5.069-4.114-9.183-9.183-9.183h28.697c5.069 0 9.183 4.114 9.183 9.183z" fill="#fcc16d"/></g><g><path d="m495.315 417.743h-81.921c-5.072 0-9.183-4.111-9.183-9.183v-18.448c0-5.072 4.111-9.183 9.183-9.183h81.921c5.072 0 9.183 4.111 9.183 9.183v18.448c0 5.072-4.111 9.183-9.183 9.183z" fill="#fca62f"/><path d="m504.5 390.114v18.449c0 5.069-4.114 9.183-9.183 9.183h-28.697c5.069 0 9.183-4.114 9.183-9.183v-18.449c0-5.069-4.114-9.183-9.183-9.183h28.697c5.069 0 9.183 4.114 9.183 9.183z" fill="#f98824"/></g></g><g><g><path d="m230.841 380.926h-81.921c-5.072 0-9.183-4.111-9.183-9.183v-18.448c0-5.072 4.111-9.183 9.183-9.183h81.921c5.072 0 9.183 4.111 9.183 9.183v18.448c0 5.072-4.111 9.183-9.183 9.183z" fill="#ffd496"/><path d="m240.026 353.297v18.449c0 5.069-4.114 9.183-9.183 9.183h-28.697c5.069 0 9.183-4.114 9.183-9.183v-18.449c0-5.069-4.114-9.183-9.183-9.183h28.697c5.069 0 9.183 4.114 9.183 9.183z" fill="#fcc16d"/></g></g><g><g><path d="m230.841 344.107h-81.921c-5.072 0-9.183-4.111-9.183-9.183v-18.448c0-5.072 4.111-9.183 9.183-9.183h81.921c5.072 0 9.183 4.111 9.183 9.183v18.448c0 5.072-4.111 9.183-9.183 9.183z" fill="#fca62f"/><path d="m240.026 316.479v18.449c0 5.069-4.114 9.183-9.183 9.183h-28.697c5.069 0 9.183-4.114 9.183-9.183v-18.449c0-5.069-4.114-9.183-9.183-9.183h28.697c5.069-.001 9.183 4.113 9.183 9.183z" fill="#f98824"/></g></g><g><g><path d="m363.078 380.926h-81.921c-5.072 0-9.183-4.111-9.183-9.183v-18.448c0-5.072 4.111-9.183 9.183-9.183h81.921c5.072 0 9.183 4.111 9.183 9.183v18.448c0 5.072-4.111 9.183-9.183 9.183z" fill="#fca62f"/><path d="m372.263 353.297v18.449c0 5.069-4.114 9.183-9.183 9.183h-28.697c5.069 0 9.183-4.114 9.183-9.183v-18.449c0-5.069-4.114-9.183-9.183-9.183h28.697c5.069 0 9.183 4.114 9.183 9.183z" fill="#f98824"/></g><g><path d="m363.078 344.109h-81.921c-5.072 0-9.183-4.111-9.183-9.183v-18.448c0-5.072 4.111-9.183 9.183-9.183h81.921c5.072 0 9.183 4.111 9.183 9.183v18.448c0 5.072-4.111 9.183-9.183 9.183z" fill="#ffd496"/><path d="m372.263 316.48v18.449c0 5.069-4.114 9.183-9.183 9.183h-28.697c5.069 0 9.183-4.114 9.183-9.183v-18.449c0-5.069-4.114-9.183-9.183-9.183h28.697c5.069 0 9.183 4.114 9.183 9.183z" fill="#fcc16d"/></g></g><g><g><path d="m230.841 307.29h-81.921c-5.072 0-9.183-4.111-9.183-9.183v-18.448c0-5.072 4.111-9.183 9.183-9.183h81.921c5.072 0 9.183 4.111 9.183 9.183v18.448c0 5.071-4.111 9.183-9.183 9.183z" fill="#ffd496"/><path d="m240.026 279.661v18.449c0 5.069-4.114 9.183-9.183 9.183h-28.697c5.069 0 9.183-4.114 9.183-9.183v-18.449c0-5.069-4.114-9.183-9.183-9.183h28.697c5.069 0 9.183 4.114 9.183 9.183z" fill="#fcc16d"/></g></g><g><g><path d="m363.078 307.291h-81.921c-5.072 0-9.183-4.111-9.183-9.183v-18.448c0-5.072 4.111-9.183 9.183-9.183h81.921c5.072 0 9.183 4.111 9.183 9.183v18.448c0 5.072-4.111 9.183-9.183 9.183z" fill="#fca62f"/><path d="m372.263 279.662v18.449c0 5.069-4.114 9.183-9.183 9.183h-28.697c5.069 0 9.183-4.114 9.183-9.183v-18.449c0-5.069-4.114-9.183-9.183-9.183h28.697c5.069 0 9.183 4.114 9.183 9.183z" fill="#f98824"/></g></g><g><g><path d="m495.315 380.926h-81.921c-5.072 0-9.183-4.111-9.183-9.183v-18.448c0-5.072 4.111-9.183 9.183-9.183h81.921c5.072 0 9.183 4.111 9.183 9.183v18.448c0 5.072-4.111 9.183-9.183 9.183z" fill="#ffd496"/><path d="m504.5 353.297v18.449c0 5.069-4.114 9.183-9.183 9.183h-28.697c5.069 0 9.183-4.114 9.183-9.183v-18.449c0-5.069-4.114-9.183-9.183-9.183h28.697c5.069 0 9.183 4.114 9.183 9.183z" fill="#fcc16d"/></g><g><path d="m495.315 344.109h-81.921c-5.072 0-9.183-4.111-9.183-9.183v-18.448c0-5.072 4.111-9.183 9.183-9.183h81.921c5.072 0 9.183 4.111 9.183 9.183v18.448c0 5.072-4.111 9.183-9.183 9.183z" fill="#fca62f"/><path d="m504.5 316.48v18.449c0 5.069-4.114 9.183-9.183 9.183h-28.697c5.069 0 9.183-4.114 9.183-9.183v-18.449c0-5.069-4.114-9.183-9.183-9.183h28.697c5.069 0 9.183 4.114 9.183 9.183z" fill="#f98824"/></g><g><path d="m495.315 307.292h-81.921c-5.072 0-9.183-4.111-9.183-9.183v-18.448c0-5.072 4.111-9.183 9.183-9.183h81.921c5.072 0 9.183 4.111 9.183 9.183v18.448c0 5.072-4.111 9.183-9.183 9.183z" fill="#ffd496"/><path d="m504.5 279.663v18.449c0 5.069-4.114 9.183-9.183 9.183h-28.697c5.069 0 9.183-4.114 9.183-9.183v-18.449c0-5.069-4.114-9.183-9.183-9.183h28.697c5.069 0 9.183 4.114 9.183 9.183z" fill="#fcc16d"/></g></g><g><g><path d="m495.315 270.477h-81.921c-5.072 0-9.183-4.111-9.183-9.183v-18.448c0-5.072 4.111-9.183 9.183-9.183h81.921c5.072 0 9.183 4.111 9.183 9.183v18.448c0 5.071-4.111 9.183-9.183 9.183z" fill="#fca62f"/><path d="m504.5 242.848v18.449c0 5.069-4.114 9.183-9.183 9.183h-28.697c5.069 0 9.183-4.114 9.183-9.183v-18.449c0-5.069-4.114-9.183-9.183-9.183h28.697c5.069 0 9.183 4.114 9.183 9.183z" fill="#f98824"/></g><g><path d="m495.315 233.66h-81.921c-5.072 0-9.183-4.111-9.183-9.183v-18.448c0-5.072 4.111-9.183 9.183-9.183h81.921c5.072 0 9.183 4.111 9.183 9.183v18.448c0 5.071-4.111 9.183-9.183 9.183z" fill="#ffd496"/><path d="m504.5 206.031v18.449c0 5.069-4.114 9.183-9.183 9.183h-28.697c5.069 0 9.183-4.114 9.183-9.183v-18.449c0-5.069-4.114-9.183-9.183-9.183h28.697c5.069 0 9.183 4.114 9.183 9.183z" fill="#fcc16d"/><g><path d="m78.277 202.483-70.325 66.834c-10.188 9.651-10.628 25.8-.979 36 4.785 5.055 11.527 7.955 18.498 7.955 6.532 0 12.748-2.475 17.506-6.974l66.744-63.196c3.359.87 6.88 1.333 10.508 1.333 14.005 0 26.421-6.905 34.045-17.483h140.436c7.61 7.701 18.168 12.483 29.824 12.483 23.132 0 41.951-18.819 41.951-41.952 0-.969-.045-1.927-.11-2.88l43.628-43.628c2.929-2.929 2.929-7.678 0-10.606-2.93-2.929-7.678-2.929-10.607 0l-37.695 37.695c-3.301-6.292-8.148-11.648-14.039-15.557l98.451-98.452h14.955v14.643l-36.892 36.902c-2.929 2.93-2.928 7.678.001 10.607 1.465 1.464 3.384 2.196 5.303 2.196 1.92 0 3.84-.732 5.304-2.197l28.479-28.487c3.969 8.911 12.903 15.141 23.271 15.141 14.042 0 25.466-11.424 25.466-25.465v-48.806c0-14.042-11.424-25.466-25.466-25.466h-48.805c-14.041 0-25.465 11.424-25.465 25.466 0 10.284 6.131 19.158 14.927 23.174l-94.56 94.56c-2.622-.515-5.328-.792-8.098-.792-15.294 0-28.698 8.23-36.029 20.491h-135.751c-7.699-9.445-19.417-15.491-32.524-15.491-23.133 0-41.952 18.82-41.952 41.952zm-45.61 92.919c-1.958 1.851-4.514 2.87-7.197 2.87-2.91 0-5.61-1.16-7.602-3.264-3.968-4.195-3.789-10.834.397-14.8l63.78-60.38c2.962 6.495 7.525 12.111 13.193 16.329zm87.562-65.967c-14.861 0-26.952-12.09-26.952-26.952s12.09-26.952 26.952-26.952 26.952 12.091 26.952 26.952-12.091 26.952-26.952 26.952zm40.861-17.483c.706-3.045 1.091-6.212 1.091-9.469 0-3.974-.567-7.816-1.605-11.461h122.505c-.327 2.107-.499 4.264-.499 6.461 0 5.083.91 9.956 2.573 14.469zm163.444 12.483c-14.861 0-26.952-12.09-26.952-26.952s12.091-26.952 26.952-26.952 26.951 12.091 26.951 26.952-12.089 26.952-26.951 26.952zm172.466-137.042c0 5.771-4.695 10.465-10.466 10.465s-10.466-4.695-10.466-10.465v-30.839c0-4.142-3.357-7.5-7.5-7.5h-30.839c-5.771 0-10.465-4.695-10.465-10.466s4.694-10.466 10.465-10.466h48.805c5.771 0 10.466 4.695 10.466 10.466z"/><path d="m98.604 336.613h-81.921c-9.199 0-16.683 7.484-16.683 16.683v18.448c0 3.392 1.023 6.548 2.77 9.184-1.747 2.637-2.77 5.792-2.77 9.185v18.447c0 3.393 1.024 6.548 2.77 9.185-1.746 2.636-2.77 5.792-2.77 9.184v18.448c0 3.393 1.024 6.548 2.77 9.185-1.746 2.636-2.77 5.792-2.77 9.184v18.448c0 9.199 7.484 16.683 16.683 16.683h81.921c9.199 0 16.683-7.484 16.683-16.683v-18.448c0-3.393-1.024-6.548-2.77-9.185 1.746-2.637 2.77-5.792 2.77-9.185v-18.448c0-3.393-1.024-6.548-2.77-9.185 1.746-2.637 2.77-5.792 2.77-9.185v-18.447c0-3.392-1.023-6.548-2.77-9.184 1.746-2.637 2.77-5.792 2.77-9.184v-18.448c0-9.198-7.484-16.682-16.683-16.682zm-83.604 16.683c0-.928.755-1.683 1.683-1.683h81.921c.928 0 1.683.755 1.683 1.683v18.448c0 .928-.755 1.683-1.683 1.683h-81.921c-.928 0-1.683-.755-1.683-1.683zm85.287 92.081c0 .928-.755 1.683-1.683 1.683h-81.921c-.928 0-1.683-.755-1.683-1.683v-18.448c0-.928.755-1.683 1.683-1.683.023 0 .045-.003.068-.003h81.785c.023 0 .045.003.068.003.928 0 1.683.755 1.683 1.683zm0-36.817c0 .928-.755 1.683-1.683 1.683h-81.921c-.928 0-1.683-.755-1.683-1.683v-18.447c0-.928.755-1.683 1.683-1.683.016 0 .032-.002.048-.002h81.824c.016 0 .032.002.048.002.928 0 1.683.755 1.683 1.683v18.447zm0 73.634c0 .928-.755 1.683-1.683 1.683h-81.921c-.928 0-1.683-.755-1.683-1.683v-18.448c0-.928.755-1.683 1.683-1.683.02 0 .038-.003.058-.003h81.805c.02 0 .038.003.058.003.928 0 1.683.755 1.683 1.683z"/><path d="m230.841 262.976h-81.92c-9.199 0-16.684 7.484-16.684 16.683v18.448c0 3.393 1.024 6.548 2.77 9.185-1.747 2.637-2.77 5.792-2.77 9.185v18.447c0 3.393 1.024 6.549 2.771 9.186-1.747 2.637-2.771 5.793-2.771 9.185v18.448c0 3.393 1.024 6.548 2.77 9.185-1.746 2.637-2.77 5.792-2.77 9.185v18.447c0 3.393 1.024 6.548 2.77 9.185-1.746 2.637-2.77 5.792-2.77 9.185v18.448c0 3.392 1.023 6.548 2.77 9.184-1.747 2.637-2.77 5.792-2.77 9.185v18.448c0 9.199 7.484 16.683 16.684 16.683h81.92c9.199 0 16.684-7.484 16.684-16.683v-18.448c0-3.393-1.024-6.548-2.77-9.185 1.746-2.637 2.77-5.792 2.77-9.185v-18.448c0-3.393-1.024-6.548-2.77-9.185 1.747-2.637 2.77-5.792 2.77-9.185v-18.447c0-3.393-1.024-6.548-2.77-9.185 1.747-2.637 2.77-5.792 2.77-9.185v-18.448c0-3.393-1.024-6.549-2.771-9.185 1.747-2.637 2.771-5.793 2.771-9.186v-18.447c0-3.393-1.024-6.548-2.77-9.185 1.747-2.637 2.77-5.792 2.77-9.185v-18.448c-.001-9.198-7.485-16.682-16.684-16.682zm-83.604 16.683c0-.928.755-1.683 1.684-1.683h81.92c.928 0 1.684.755 1.684 1.683v18.448c0 .928-.755 1.683-1.684 1.683h-81.92c-.928 0-1.684-.755-1.684-1.683zm85.287 128.901c0 .928-.755 1.683-1.684 1.683h-33.115c-4.142 0-7.5 3.358-7.5 7.5s3.358 7.5 7.5 7.5h33.047c.023 0 .045.003.068.003.928 0 1.684.755 1.684 1.683v18.448c0 .928-.755 1.683-1.684 1.683h-81.92c-.928 0-1.683-.755-1.683-1.683v-18.448c0-.928.755-1.683 1.683-1.683.023 0 .045-.003.068-.003h13.697c4.142 0 7.5-3.358 7.5-7.5s-3.358-7.5-7.5-7.5h-13.765c-.928 0-1.683-.755-1.683-1.683v-18.447c0-.928.755-1.683 1.683-1.683.023 0 .045-.003.068-.003h81.785c.023 0 .045.003.068.003.928 0 1.684.755 1.684 1.683v18.447zm0-36.817c0 .928-.755 1.683-1.684 1.683h-81.92c-.928 0-1.684-.755-1.684-1.683v-18.448c0-.928.755-1.683 1.684-1.683.029 0 .058-.004.087-.004h81.746c.029 0 .058.004.087.004.928 0 1.684.755 1.684 1.683zm0-36.819c0 .928-.755 1.684-1.684 1.684h-81.92c-.928 0-1.684-.755-1.684-1.684v-18.447c0-.928.755-1.683 1.684-1.683.026 0 .051-.004.077-.004h81.766c.026 0 .051.004.077.004.928 0 1.684.755 1.684 1.683zm0 147.27c0 .928-.755 1.683-1.684 1.683h-81.92c-.928 0-1.684-.755-1.684-1.683v-18.448c0-.928.755-1.683 1.684-1.683.02 0 .038-.003.058-.003h81.804c.02 0 .038.003.058.003.928 0 1.684.755 1.684 1.683z"/><path d="m363.078 262.977h-81.921c-9.199 0-16.684 7.484-16.684 16.683v18.448c0 3.393 1.024 6.548 2.77 9.185-1.747 2.637-2.77 5.792-2.77 9.185v18.448c0 3.393 1.024 6.548 2.77 9.185-1.746 2.637-2.77 5.792-2.77 9.185v18.448c0 3.393 1.024 6.548 2.77 9.185-1.747 2.637-2.77 5.792-2.77 9.185v18.447c0 3.393 1.024 6.548 2.77 9.185-1.747 2.637-2.77 5.792-2.77 9.185v18.448c0 3.393 1.024 6.548 2.77 9.185-1.746 2.637-2.77 5.792-2.77 9.185v18.448c0 9.199 7.484 16.683 16.684 16.683h81.921c9.199 0 16.684-7.484 16.684-16.683v-18.448c0-3.393-1.024-6.548-2.77-9.185 1.746-2.637 2.77-5.792 2.77-9.185v-18.448c0-3.393-1.024-6.548-2.77-9.185 1.747-2.637 2.77-5.792 2.77-9.185v-18.447c0-3.393-1.024-6.548-2.77-9.185 1.747-2.637 2.77-5.792 2.77-9.185v-18.448c0-3.393-1.024-6.548-2.77-9.185 1.746-2.637 2.77-5.792 2.77-9.185v-18.448c0-3.393-1.024-6.548-2.77-9.185 1.747-2.637 2.77-5.792 2.77-9.185v-18.448c0-9.199-7.485-16.683-16.684-16.683zm-83.604 16.683c0-.928.755-1.683 1.684-1.683h81.921c.929 0 1.684.755 1.684 1.683v18.448c0 .928-.755 1.683-1.684 1.683h-81.921c-.929 0-1.684-.755-1.684-1.683zm85.288 165.717c0 .928-.755 1.683-1.684 1.683h-81.921c-.929 0-1.684-.755-1.684-1.683v-18.448c0-.928.755-1.683 1.684-1.683.023 0 .045-.003.068-.003h81.785c.023 0 .045.003.068.003.929 0 1.684.755 1.684 1.683zm0-36.817c0 .928-.755 1.683-1.684 1.683h-81.921c-.929 0-1.684-.755-1.684-1.683v-18.447c0-.928.755-1.683 1.684-1.683.023 0 .045-.003.068-.003h81.785c.023 0 .045.003.068.003.929 0 1.684.755 1.684 1.683zm0-36.817c0 .928-.755 1.683-1.684 1.683h-81.921c-.929 0-1.684-.755-1.684-1.683v-18.448c0-.928.755-1.683 1.684-1.683.02 0 .038-.003.058-.003h81.805c.02 0 .039.003.058.003.929 0 1.684.755 1.684 1.683zm0-36.817c0 .928-.755 1.683-1.684 1.683h-81.921c-.929 0-1.684-.755-1.684-1.683v-18.448c0-.928.755-1.683 1.684-1.683.026 0 .051-.004.077-.004h81.766c.026 0 .051.004.077.004.929 0 1.684.755 1.684 1.683v18.448zm0 147.268c0 .928-.755 1.683-1.684 1.683h-81.921c-.929 0-1.684-.755-1.684-1.683v-18.448c0-.928.755-1.683 1.684-1.683.02 0 .038-.003.058-.003h81.805c.02 0 .039.003.058.003.929 0 1.684.755 1.684 1.683z"/><path d="m495.315 189.346h-19.979c-4.143 0-7.5 3.358-7.5 7.5s3.357 7.5 7.5 7.5h19.979c.928 0 1.683.755 1.683 1.683v18.447c0 .928-.755 1.684-1.683 1.684h-81.921c-.929 0-1.684-.755-1.684-1.684v-18.447c0-.928.755-1.683 1.684-1.683h26.9c4.143 0 7.5-3.358 7.5-7.5s-3.357-7.5-7.5-7.5h-26.9c-9.199 0-16.684 7.484-16.684 16.683v18.447c0 3.393 1.024 6.548 2.77 9.185-1.747 2.637-2.77 5.792-2.77 9.185v18.448c0 3.392 1.023 6.547 2.77 9.184-1.746 2.636-2.77 5.792-2.77 9.184v18.447c0 3.393 1.024 6.548 2.77 9.185-1.747 2.637-2.77 5.792-2.77 9.185v18.448c0 3.393 1.024 6.548 2.77 9.185-1.746 2.637-2.77 5.792-2.77 9.185v18.448c0 3.393 1.024 6.548 2.77 9.185-1.747 2.637-2.77 5.792-2.77 9.185v18.447c0 3.393 1.024 6.548 2.77 9.185-1.747 2.637-2.77 5.792-2.77 9.185v18.448c0 3.393 1.024 6.548 2.77 9.185-1.746 2.637-2.77 5.792-2.77 9.185v18.448c0 9.199 7.484 16.683 16.684 16.683h81.921c9.199 0 16.683-7.484 16.683-16.683v-18.448c0-3.393-1.023-6.548-2.77-9.185 1.746-2.637 2.77-5.792 2.77-9.185v-18.448c0-3.393-1.023-6.548-2.77-9.185 1.746-2.637 2.77-5.792 2.77-9.185v-18.447c0-3.393-1.023-6.548-2.77-9.185 1.746-2.637 2.77-5.792 2.77-9.185v-18.448c0-3.393-1.023-6.548-2.77-9.185 1.746-2.637 2.77-5.792 2.77-9.185v-18.448c0-3.393-1.024-6.548-2.77-9.185 1.746-2.637 2.77-5.792 2.77-9.185v-18.447c0-3.392-1.023-6.547-2.769-9.184 1.746-2.636 2.769-5.792 2.769-9.184v-18.448c0-3.393-1.024-6.548-2.77-9.185 1.746-2.637 2.77-5.792 2.77-9.185v-18.447c0-9.199-7.483-16.683-16.683-16.683zm1.683 256.031c0 .928-.755 1.683-1.683 1.683h-81.921c-.929 0-1.684-.755-1.684-1.683v-18.448c0-.928.755-1.683 1.684-1.683.023 0 .045-.003.068-.003h81.785c.023 0 .045.003.068.003.928 0 1.683.755 1.683 1.683zm0-36.817c0 .928-.755 1.683-1.683 1.683h-81.921c-.929 0-1.684-.755-1.684-1.683v-18.447c0-.928.755-1.683 1.684-1.683.023 0 .045-.003.068-.003h81.785c.023 0 .045.003.068.003.928 0 1.683.755 1.683 1.683zm0-36.817c0 .928-.755 1.683-1.683 1.683h-81.921c-.929 0-1.684-.755-1.684-1.683v-18.448c0-.928.755-1.683 1.684-1.683.02 0 .038-.003.058-.003h81.805c.02 0 .039.003.058.003.928 0 1.683.755 1.683 1.683zm0-36.817c0 .928-.755 1.683-1.683 1.683h-81.921c-.929 0-1.684-.755-1.684-1.683v-18.448c0-.928.755-1.683 1.684-1.683.02 0 .038-.003.058-.003h81.805c.02 0 .039.003.058.003.928 0 1.683.755 1.683 1.683zm0-36.817c0 .928-.755 1.684-1.683 1.684h-81.921c-.929 0-1.684-.755-1.684-1.684v-18.447c0-.928.755-1.683 1.684-1.683.01 0 .019-.001.029-.001h81.863c.01 0 .019.001.029.001.928 0 1.683.755 1.683 1.683zm0-36.815c0 .928-.755 1.683-1.683 1.683h-81.921c-.929 0-1.684-.755-1.684-1.683v-18.448c0-.928.755-1.683 1.684-1.683.02 0 .038-.003.058-.003h81.805c.02 0 .039.003.058.003.928 0 1.683.755 1.683 1.683zm0 220.9c0 .928-.755 1.683-1.683 1.683h-81.921c-.929 0-1.684-.755-1.684-1.683v-18.448c0-.928.755-1.683 1.684-1.683.02 0 .038-.003.058-.003h81.805c.02 0 .039.003.058.003.928 0 1.683.755 1.683 1.683z"/></g></g></g></g></g></svg>